<mxfile host="65bd71144e">
    <diagram name="Page-1" id="c7558073-3199-34d8-9f00-42111426c3f3">
        <mxGraphModel dx="1423" dy="354" grid="1" gridSize="10" guides="1" tooltips="1" connect="1" arrows="1" fold="1" page="1" pageScale="1" pageWidth="826" pageHeight="1169" background="none" math="0" shadow="0">
            <root>
                <mxCell id="0"/>
                <mxCell id="1" parent="0"/>
                <mxCell id="qeZRCIdwOhh2XQ9P8bx--96" value="&lt;font data-font-src=&quot;https://fonts.googleapis.com/css?family=Roboto&quot; size=&quot;1&quot;&gt;&lt;b style=&quot;font-size: 14px;&quot;&gt;accounts&lt;/b&gt;&lt;/font&gt;" style="rounded=1;whiteSpace=wrap;html=1;sketch=1;curveFitting=1;jiggle=2;fillColor=#d5e8d4;strokeColor=#82b366;labelBackgroundColor=none;fontFamily=Roboto;fontSource=https%3A%2F%2Ffonts.googleapis.com%2Fcss%3Ffamily%3DRoboto;" parent="1" vertex="1">
                    <mxGeometry x="240" y="160" width="160" height="80" as="geometry"/>
                </mxCell>
                <mxCell id="qeZRCIdwOhh2XQ9P8bx--97" value="&lt;div style=&quot;font-size: 14px;&quot;&gt;&lt;b&gt;&lt;font style=&quot;font-size: 14px;&quot;&gt;API&lt;/font&gt;&lt;/b&gt;&lt;/div&gt;&lt;div style=&quot;font-size: 14px;&quot;&gt;&lt;b&gt;&lt;font style=&quot;font-size: 14px;&quot;&gt;Gateway&lt;br&gt;&lt;/font&gt;&lt;/b&gt;&lt;/div&gt;" style="shape=hexagon;perimeter=hexagonPerimeter2;whiteSpace=wrap;html=1;fixedSize=1;size=40;sketch=1;curveFitting=1;jiggle=2;rounded=0;shadow=0;fillColor=#d5e8d4;strokeColor=#82b366;strokeWidth=1;fontFamily=Roboto;fontSource=https%3A%2F%2Ffonts.googleapis.com%2Fcss%3Ffamily%3DRoboto;" parent="1" vertex="1">
                    <mxGeometry x="350" y="360" width="140" height="120" as="geometry"/>
                </mxCell>
                <mxCell id="qeZRCIdwOhh2XQ9P8bx--98" value="&lt;h3&gt;users&lt;/h3&gt;" style="rounded=0;whiteSpace=wrap;html=1;sketch=1;curveFitting=1;jiggle=2;glass=0;shadow=0;fillColor=#d5e8d4;strokeColor=#82b366;fontFamily=Roboto;fontSource=https%3A%2F%2Ffonts.googleapis.com%2Fcss%3Ffamily%3DRoboto;" parent="1" vertex="1">
                    <mxGeometry x="40" y="560" width="200" height="80" as="geometry"/>
                </mxCell>
                <mxCell id="qeZRCIdwOhh2XQ9P8bx--131" value="" style="edgeStyle=orthogonalEdgeStyle;rounded=0;orthogonalLoop=1;jettySize=auto;html=1;fontFamily=Roboto;fontSource=https%3A%2F%2Ffonts.googleapis.com%2Fcss%3Ffamily%3DRoboto;" parent="1" source="qeZRCIdwOhh2XQ9P8bx--99" target="qeZRCIdwOhh2XQ9P8bx--100" edge="1">
                    <mxGeometry relative="1" as="geometry"/>
                </mxCell>
                <mxCell id="qeZRCIdwOhh2XQ9P8bx--138" value="" style="edgeStyle=orthogonalEdgeStyle;rounded=0;orthogonalLoop=1;jettySize=auto;html=1;fontFamily=Roboto;fontSource=https%3A%2F%2Ffonts.googleapis.com%2Fcss%3Ffamily%3DRoboto;" parent="1" source="qeZRCIdwOhh2XQ9P8bx--99" target="qeZRCIdwOhh2XQ9P8bx--98" edge="1">
                    <mxGeometry relative="1" as="geometry"/>
                </mxCell>
                <mxCell id="qeZRCIdwOhh2XQ9P8bx--143" value="" style="edgeStyle=orthogonalEdgeStyle;rounded=0;orthogonalLoop=1;jettySize=auto;html=1;fontFamily=Roboto;fontSource=https%3A%2F%2Ffonts.googleapis.com%2Fcss%3Ffamily%3DRoboto;" parent="1" source="qeZRCIdwOhh2XQ9P8bx--99" target="qeZRCIdwOhh2XQ9P8bx--135" edge="1">
                    <mxGeometry relative="1" as="geometry"/>
                </mxCell>
                <mxCell id="qeZRCIdwOhh2XQ9P8bx--99" value="&lt;h3&gt;companies&lt;/h3&gt;" style="rounded=0;whiteSpace=wrap;html=1;sketch=1;curveFitting=1;jiggle=2;fillColor=#d5e8d4;strokeColor=#82b366;fontFamily=Roboto;fontSource=https%3A%2F%2Ffonts.googleapis.com%2Fcss%3Ffamily%3DRoboto;" parent="1" vertex="1">
                    <mxGeometry x="318" y="560" width="200" height="80" as="geometry"/>
                </mxCell>
                <mxCell id="qeZRCIdwOhh2XQ9P8bx--142" value="" style="edgeStyle=orthogonalEdgeStyle;rounded=0;orthogonalLoop=1;jettySize=auto;html=1;fontFamily=Roboto;fontSource=https%3A%2F%2Ffonts.googleapis.com%2Fcss%3Ffamily%3DRoboto;" parent="1" source="qeZRCIdwOhh2XQ9P8bx--100" target="qeZRCIdwOhh2XQ9P8bx--99" edge="1">
                    <mxGeometry relative="1" as="geometry"/>
                </mxCell>
                <mxCell id="qeZRCIdwOhh2XQ9P8bx--100" value="&lt;h3&gt;service ?&lt;/h3&gt;" style="rounded=0;whiteSpace=wrap;html=1;sketch=1;curveFitting=1;jiggle=2;fillColor=#f5f5f5;strokeColor=#666666;strokeWidth=1;fontColor=#333333;fontFamily=Roboto;fontSource=https%3A%2F%2Ffonts.googleapis.com%2Fcss%3Ffamily%3DRoboto;" parent="1" vertex="1">
                    <mxGeometry x="600" y="560" width="200" height="80" as="geometry"/>
                </mxCell>
                <mxCell id="qeZRCIdwOhh2XQ9P8bx--101" value="&lt;font size=&quot;1&quot;&gt;&lt;b style=&quot;font-size: 14px;&quot;&gt;db_api_gateway&lt;/b&gt;&lt;/font&gt;" style="rounded=1;whiteSpace=wrap;html=1;sketch=1;curveFitting=1;jiggle=2;fillColor=#dae8fc;strokeColor=#35609c;fontFamily=Roboto;fontSource=https%3A%2F%2Ffonts.googleapis.com%2Fcss%3Ffamily%3DRoboto;" parent="1" vertex="1">
                    <mxGeometry x="560" y="400" width="140" height="40" as="geometry"/>
                </mxCell>
                <mxCell id="qeZRCIdwOhh2XQ9P8bx--103" value="&lt;font size=&quot;1&quot;&gt;&lt;b style=&quot;font-size: 14px;&quot;&gt;db_companies&lt;/b&gt;&lt;/font&gt;" style="rounded=1;whiteSpace=wrap;html=1;sketch=1;curveFitting=1;jiggle=2;fillColor=#dae8fc;strokeColor=#6c8ebf;strokeWidth=2;fontFamily=Roboto;fontSource=https%3A%2F%2Ffonts.googleapis.com%2Fcss%3Ffamily%3DRoboto;" parent="1" vertex="1">
                    <mxGeometry x="360" y="680" width="120" height="40" as="geometry"/>
                </mxCell>
                <mxCell id="qeZRCIdwOhh2XQ9P8bx--104" value="" style="shape=cylinder3;whiteSpace=wrap;html=1;boundedLbl=1;backgroundOutline=1;size=5.841818181818098;sketch=1;curveFitting=1;jiggle=2;fontFamily=Roboto;fontSource=https%3A%2F%2Ffonts.googleapis.com%2Fcss%3Ffamily%3DRoboto;" parent="1" vertex="1">
                    <mxGeometry x="340" y="660" width="30" height="36.67" as="geometry"/>
                </mxCell>
                <mxCell id="qeZRCIdwOhh2XQ9P8bx--105" value="&lt;font size=&quot;1&quot;&gt;&lt;b style=&quot;font-size: 14px;&quot;&gt;db_users&lt;/b&gt;&lt;/font&gt;" style="rounded=1;whiteSpace=wrap;html=1;sketch=1;curveFitting=1;jiggle=2;fillColor=#dae8fc;strokeColor=#6c8ebf;strokeWidth=2;fontFamily=Roboto;fontSource=https%3A%2F%2Ffonts.googleapis.com%2Fcss%3Ffamily%3DRoboto;" parent="1" vertex="1">
                    <mxGeometry x="80" y="680" width="120" height="40" as="geometry"/>
                </mxCell>
                <mxCell id="qeZRCIdwOhh2XQ9P8bx--106" value="" style="shape=cylinder3;whiteSpace=wrap;html=1;boundedLbl=1;backgroundOutline=1;size=5.841818181818098;sketch=1;curveFitting=1;jiggle=2;fontFamily=Roboto;fontSource=https%3A%2F%2Ffonts.googleapis.com%2Fcss%3Ffamily%3DRoboto;" parent="1" vertex="1">
                    <mxGeometry x="60" y="660" width="30" height="36.67" as="geometry"/>
                </mxCell>
                <mxCell id="qeZRCIdwOhh2XQ9P8bx--111" value="" style="endArrow=classic;html=1;curved=1;entryX=0.5;entryY=0;entryDx=0;entryDy=0;exitX=0.5;exitY=1;exitDx=0;exitDy=0;sketch=1;curveFitting=1;jiggle=2;fontFamily=Roboto;fontSource=https%3A%2F%2Ffonts.googleapis.com%2Fcss%3Ffamily%3DRoboto;" parent="1" source="qeZRCIdwOhh2XQ9P8bx--97" target="qeZRCIdwOhh2XQ9P8bx--98" edge="1">
                    <mxGeometry width="50" height="50" relative="1" as="geometry">
                        <mxPoint x="300" y="420" as="sourcePoint"/>
                        <mxPoint x="390" y="470" as="targetPoint"/>
                        <Array as="points">
                            <mxPoint x="420" y="540"/>
                            <mxPoint x="160" y="480"/>
                        </Array>
                    </mxGeometry>
                </mxCell>
                <mxCell id="qeZRCIdwOhh2XQ9P8bx--116" value="grpc" style="edgeLabel;html=1;align=center;verticalAlign=middle;resizable=0;points=[];fontStyle=1;fontSize=14;fontFamily=Roboto;fontSource=https%3A%2F%2Ffonts.googleapis.com%2Fcss%3Ffamily%3DRoboto;" parent="qeZRCIdwOhh2XQ9P8bx--111" vertex="1" connectable="0">
                    <mxGeometry x="0.1394" y="-1" relative="1" as="geometry">
                        <mxPoint as="offset"/>
                    </mxGeometry>
                </mxCell>
                <mxCell id="qeZRCIdwOhh2XQ9P8bx--113" value="" style="endArrow=classic;html=1;exitX=0.5;exitY=1;exitDx=0;exitDy=0;entryX=0.5;entryY=0;entryDx=0;entryDy=0;curved=1;sketch=1;curveFitting=1;jiggle=2;fontFamily=Roboto;fontSource=https%3A%2F%2Ffonts.googleapis.com%2Fcss%3Ffamily%3DRoboto;" parent="1" source="qeZRCIdwOhh2XQ9P8bx--97" target="qeZRCIdwOhh2XQ9P8bx--100" edge="1">
                    <mxGeometry width="50" height="50" relative="1" as="geometry">
                        <mxPoint x="340" y="520" as="sourcePoint"/>
                        <mxPoint x="390" y="470" as="targetPoint"/>
                        <Array as="points">
                            <mxPoint x="420" y="540"/>
                            <mxPoint x="680" y="480"/>
                        </Array>
                    </mxGeometry>
                </mxCell>
                <mxCell id="qeZRCIdwOhh2XQ9P8bx--114" value="&lt;b style=&quot;font-size: 14px;&quot;&gt;grpc&lt;/b&gt;" style="edgeLabel;html=1;align=center;verticalAlign=middle;resizable=0;points=[];fontSize=14;fontFamily=Roboto;fontSource=https%3A%2F%2Ffonts.googleapis.com%2Fcss%3Ffamily%3DRoboto;" parent="qeZRCIdwOhh2XQ9P8bx--113" vertex="1" connectable="0">
                    <mxGeometry x="-0.1777" relative="1" as="geometry">
                        <mxPoint x="45" y="-12" as="offset"/>
                    </mxGeometry>
                </mxCell>
                <mxCell id="qeZRCIdwOhh2XQ9P8bx--118" value="&lt;font size=&quot;1&quot;&gt;&lt;b style=&quot;font-size: 14px;&quot;&gt;db_service ?&lt;/b&gt;&lt;/font&gt;" style="rounded=1;whiteSpace=wrap;html=1;sketch=1;curveFitting=1;jiggle=2;fillColor=#f5f5f5;strokeColor=#666666;fontColor=#333333;fontFamily=Roboto;fontSource=https%3A%2F%2Ffonts.googleapis.com%2Fcss%3Ffamily%3DRoboto;" parent="1" vertex="1">
                    <mxGeometry x="640" y="680" width="120" height="40" as="geometry"/>
                </mxCell>
                <mxCell id="qeZRCIdwOhh2XQ9P8bx--119" value="" style="shape=cylinder3;whiteSpace=wrap;html=1;boundedLbl=1;backgroundOutline=1;size=5.841818181818098;sketch=1;curveFitting=1;jiggle=2;fontFamily=Roboto;fontSource=https%3A%2F%2Ffonts.googleapis.com%2Fcss%3Ffamily%3DRoboto;" parent="1" vertex="1">
                    <mxGeometry x="630" y="660" width="30" height="36.67" as="geometry"/>
                </mxCell>
                <mxCell id="qeZRCIdwOhh2XQ9P8bx--120" value="" style="endArrow=classic;html=1;rounded=0;exitX=0.5;exitY=1;exitDx=0;exitDy=0;fontFamily=Roboto;fontSource=https%3A%2F%2Ffonts.googleapis.com%2Fcss%3Ffamily%3DRoboto;" parent="1" source="qeZRCIdwOhh2XQ9P8bx--135" edge="1">
                    <mxGeometry width="50" height="50" relative="1" as="geometry">
                        <mxPoint x="460" y="520" as="sourcePoint"/>
                        <mxPoint x="420" y="560" as="targetPoint"/>
                    </mxGeometry>
                </mxCell>
                <mxCell id="qeZRCIdwOhh2XQ9P8bx--128" value="grpc" style="edgeLabel;html=1;align=center;verticalAlign=middle;resizable=0;points=[];fontSize=14;fontStyle=1;fontFamily=Roboto;fontSource=https%3A%2F%2Ffonts.googleapis.com%2Fcss%3Ffamily%3DRoboto;" parent="qeZRCIdwOhh2XQ9P8bx--120" vertex="1" connectable="0">
                    <mxGeometry x="0.1875" y="-2" relative="1" as="geometry">
                        <mxPoint x="2" y="-9" as="offset"/>
                    </mxGeometry>
                </mxCell>
                <mxCell id="qeZRCIdwOhh2XQ9P8bx--122" value="" style="endArrow=classic;html=1;rounded=0;exitX=0.5;exitY=1;exitDx=0;exitDy=0;entryX=0.5;entryY=0;entryDx=0;entryDy=0;sketch=1;curveFitting=1;jiggle=2;fontFamily=Roboto;fontSource=https%3A%2F%2Ffonts.googleapis.com%2Fcss%3Ffamily%3DRoboto;" parent="1" source="qeZRCIdwOhh2XQ9P8bx--98" target="qeZRCIdwOhh2XQ9P8bx--105" edge="1">
                    <mxGeometry width="50" height="50" relative="1" as="geometry">
                        <mxPoint x="210" y="710" as="sourcePoint"/>
                        <mxPoint x="260" y="660" as="targetPoint"/>
                    </mxGeometry>
                </mxCell>
                <mxCell id="qeZRCIdwOhh2XQ9P8bx--123" value="" style="endArrow=classic;html=1;rounded=0;exitX=0.5;exitY=1;exitDx=0;exitDy=0;entryX=0.5;entryY=0;entryDx=0;entryDy=0;sketch=1;curveFitting=1;jiggle=2;fontFamily=Roboto;fontSource=https%3A%2F%2Ffonts.googleapis.com%2Fcss%3Ffamily%3DRoboto;" parent="1" target="qeZRCIdwOhh2XQ9P8bx--103" edge="1">
                    <mxGeometry width="50" height="50" relative="1" as="geometry">
                        <mxPoint x="419.58" y="640" as="sourcePoint"/>
                        <mxPoint x="419.58" y="680" as="targetPoint"/>
                    </mxGeometry>
                </mxCell>
                <mxCell id="qeZRCIdwOhh2XQ9P8bx--124" value="" style="endArrow=classic;html=1;rounded=0;exitX=0.5;exitY=1;exitDx=0;exitDy=0;entryX=0.5;entryY=0;entryDx=0;entryDy=0;sketch=1;curveFitting=1;jiggle=2;fontFamily=Roboto;fontSource=https%3A%2F%2Ffonts.googleapis.com%2Fcss%3Ffamily%3DRoboto;" parent="1" target="qeZRCIdwOhh2XQ9P8bx--118" edge="1">
                    <mxGeometry width="50" height="50" relative="1" as="geometry">
                        <mxPoint x="699.5799999999999" y="640" as="sourcePoint"/>
                        <mxPoint x="699.5799999999999" y="680" as="targetPoint"/>
                    </mxGeometry>
                </mxCell>
                <mxCell id="qeZRCIdwOhh2XQ9P8bx--126" value="" style="endArrow=classic;html=1;rounded=0;exitX=1;exitY=0.5;exitDx=0;exitDy=0;entryX=0;entryY=0.5;entryDx=0;entryDy=0;sketch=1;curveFitting=1;jiggle=2;fontFamily=Roboto;fontSource=https%3A%2F%2Ffonts.googleapis.com%2Fcss%3Ffamily%3DRoboto;" parent="1" source="qeZRCIdwOhh2XQ9P8bx--97" target="qeZRCIdwOhh2XQ9P8bx--101" edge="1">
                    <mxGeometry width="50" height="50" relative="1" as="geometry">
                        <mxPoint x="709.5799999999999" y="650" as="sourcePoint"/>
                        <mxPoint x="709.5799999999999" y="690" as="targetPoint"/>
                    </mxGeometry>
                </mxCell>
                <mxCell id="qeZRCIdwOhh2XQ9P8bx--129" value="" style="endArrow=classic;html=1;rounded=0;exitX=1;exitY=0.5;exitDx=0;exitDy=0;startArrow=classic;startFill=1;sketch=1;curveFitting=1;jiggle=2;fontFamily=Roboto;fontSource=https%3A%2F%2Ffonts.googleapis.com%2Fcss%3Ffamily%3DRoboto;" parent="1" edge="1">
                    <mxGeometry width="50" height="50" relative="1" as="geometry">
                        <mxPoint x="518" y="599.58" as="sourcePoint"/>
                        <mxPoint x="600" y="600" as="targetPoint"/>
                    </mxGeometry>
                </mxCell>
                <mxCell id="qeZRCIdwOhh2XQ9P8bx--130" value="grpc" style="edgeLabel;html=1;align=center;verticalAlign=middle;resizable=0;points=[];fontStyle=1;fontSize=14;fontFamily=Roboto;fontSource=https%3A%2F%2Ffonts.googleapis.com%2Fcss%3Ffamily%3DRoboto;" parent="qeZRCIdwOhh2XQ9P8bx--129" vertex="1" connectable="0">
                    <mxGeometry x="0.2155" relative="1" as="geometry">
                        <mxPoint x="-8" as="offset"/>
                    </mxGeometry>
                </mxCell>
                <mxCell id="qeZRCIdwOhh2XQ9P8bx--132" value="" style="endArrow=classic;html=1;rounded=0;exitX=1;exitY=0.5;exitDx=0;exitDy=0;entryX=1;entryY=0.5;entryDx=0;entryDy=0;startArrow=classic;startFill=1;sketch=1;curveFitting=1;jiggle=2;fontFamily=Roboto;fontSource=https%3A%2F%2Ffonts.googleapis.com%2Fcss%3Ffamily%3DRoboto;" parent="1" target="qeZRCIdwOhh2XQ9P8bx--98" edge="1">
                    <mxGeometry width="50" height="50" relative="1" as="geometry">
                        <mxPoint x="318" y="599.72" as="sourcePoint"/>
                        <mxPoint x="400" y="600.14" as="targetPoint"/>
                    </mxGeometry>
                </mxCell>
                <mxCell id="qeZRCIdwOhh2XQ9P8bx--133" value="grpc" style="edgeLabel;html=1;align=center;verticalAlign=middle;resizable=0;points=[];fontStyle=1;fontSize=14;fontFamily=Roboto;fontSource=https%3A%2F%2Ffonts.googleapis.com%2Fcss%3Ffamily%3DRoboto;" parent="qeZRCIdwOhh2XQ9P8bx--132" vertex="1" connectable="0">
                    <mxGeometry x="0.2155" relative="1" as="geometry">
                        <mxPoint x="9" as="offset"/>
                    </mxGeometry>
                </mxCell>
                <mxCell id="qeZRCIdwOhh2XQ9P8bx--136" value="" style="endArrow=classic;html=1;rounded=0;exitX=0.5;exitY=1;exitDx=0;exitDy=0;fontFamily=Roboto;fontSource=https%3A%2F%2Ffonts.googleapis.com%2Fcss%3Ffamily%3DRoboto;" parent="1" source="qeZRCIdwOhh2XQ9P8bx--97" target="qeZRCIdwOhh2XQ9P8bx--135" edge="1">
                    <mxGeometry width="50" height="50" relative="1" as="geometry">
                        <mxPoint x="420" y="480" as="sourcePoint"/>
                        <mxPoint x="420" y="560" as="targetPoint"/>
                    </mxGeometry>
                </mxCell>
                <mxCell id="qeZRCIdwOhh2XQ9P8bx--135" value="&lt;b&gt;protected&lt;/b&gt;" style="rounded=1;whiteSpace=wrap;html=1;fillColor=#040404;fontColor=#ffffff;strokeColor=#314354;gradientColor=none;sketch=1;curveFitting=1;jiggle=2;strokeWidth=0;fontFamily=Roboto;fontSource=https%3A%2F%2Ffonts.googleapis.com%2Fcss%3Ffamily%3DRoboto;" parent="1" vertex="1">
                    <mxGeometry x="360" y="490" width="120" height="20" as="geometry"/>
                </mxCell>
                <mxCell id="qeZRCIdwOhh2XQ9P8bx--140" value="" style="endArrow=none;html=1;rounded=0;entryX=0.5;entryY=1;entryDx=0;entryDy=0;startArrow=classic;startFill=1;endFill=0;sketch=1;curveFitting=1;jiggle=2;fontFamily=Roboto;fontSource=https%3A%2F%2Ffonts.googleapis.com%2Fcss%3Ffamily%3DRoboto;" parent="1" target="8" edge="1">
                    <mxGeometry width="50" height="50" relative="1" as="geometry">
                        <mxPoint x="450" y="360" as="sourcePoint"/>
                        <mxPoint x="419.72" y="407.5" as="targetPoint"/>
                    </mxGeometry>
                </mxCell>
                <mxCell id="qeZRCIdwOhh2XQ9P8bx--141" value="http" style="edgeLabel;html=1;align=center;verticalAlign=middle;resizable=0;points=[];fontSize=14;fontStyle=1;fontFamily=Roboto;fontSource=https%3A%2F%2Ffonts.googleapis.com%2Fcss%3Ffamily%3DRoboto;" parent="qeZRCIdwOhh2XQ9P8bx--140" vertex="1" connectable="0">
                    <mxGeometry x="0.1875" y="-2" relative="1" as="geometry">
                        <mxPoint x="-2" y="6" as="offset"/>
                    </mxGeometry>
                </mxCell>
                <mxCell id="2" value="&lt;font size=&quot;1&quot;&gt;&lt;b style=&quot;font-size: 14px;&quot;&gt;cache&lt;/b&gt;&lt;/font&gt;" style="rounded=1;whiteSpace=wrap;html=1;sketch=1;curveFitting=1;jiggle=2;fillColor=#f8cecc;strokeColor=#b85450;fontFamily=Roboto;fontSource=https%3A%2F%2Ffonts.googleapis.com%2Fcss%3Ffamily%3DRoboto;" parent="1" vertex="1">
                    <mxGeometry x="140" y="400" width="140" height="40" as="geometry"/>
                </mxCell>
                <mxCell id="5" value="" style="endArrow=classic;html=1;rounded=0;exitX=0;exitY=0.5;exitDx=0;exitDy=0;sketch=1;curveFitting=1;jiggle=2;fontFamily=Roboto;fontSource=https%3A%2F%2Ffonts.googleapis.com%2Fcss%3Ffamily%3DRoboto;" parent="1" source="qeZRCIdwOhh2XQ9P8bx--97" target="2" edge="1">
                    <mxGeometry width="50" height="50" relative="1" as="geometry">
                        <mxPoint x="500" y="430" as="sourcePoint"/>
                        <mxPoint x="570" y="430" as="targetPoint"/>
                    </mxGeometry>
                </mxCell>
                <mxCell id="6" value="&lt;font size=&quot;1&quot;&gt;&lt;b style=&quot;font-size: 14px;&quot;&gt;managem&lt;/b&gt;&lt;/font&gt;" style="rounded=1;whiteSpace=wrap;html=1;sketch=1;curveFitting=1;jiggle=2;fillColor=#e1d5e7;strokeColor=#9673a6;labelBackgroundColor=none;fontFamily=Roboto;fontSource=https%3A%2F%2Ffonts.googleapis.com%2Fcss%3Ffamily%3DRoboto;" parent="1" vertex="1">
                    <mxGeometry x="40" y="200" width="160" height="80" as="geometry"/>
                </mxCell>
                <mxCell id="7" value="&lt;font data-font-src=&quot;https://fonts.googleapis.com/css?family=Roboto&quot; size=&quot;1&quot;&gt;&lt;b style=&quot;font-size: 14px;&quot;&gt;afiliate&lt;/b&gt;&lt;/font&gt;" style="rounded=1;whiteSpace=wrap;html=1;sketch=1;curveFitting=1;jiggle=2;fillColor=#e1d5e7;strokeColor=#9673a6;labelBackgroundColor=none;fontFamily=Roboto;fontSource=https%3A%2F%2Ffonts.googleapis.com%2Fcss%3Ffamily%3DRoboto;" parent="1" vertex="1">
                    <mxGeometry x="640" y="200" width="160" height="80" as="geometry"/>
                </mxCell>
                <mxCell id="8" value="&lt;font data-font-src=&quot;https://fonts.googleapis.com/css?family=Roboto&quot; size=&quot;1&quot;&gt;&lt;b style=&quot;font-size: 14px;&quot;&gt;store&lt;/b&gt;&lt;/font&gt;" style="rounded=1;whiteSpace=wrap;html=1;sketch=1;curveFitting=1;jiggle=2;fillColor=#e1d5e7;strokeColor=#9673a6;labelBackgroundColor=none;fontFamily=Roboto;fontSource=https%3A%2F%2Ffonts.googleapis.com%2Fcss%3Ffamily%3DRoboto;" parent="1" vertex="1">
                    <mxGeometry x="440" y="160" width="160" height="80" as="geometry"/>
                </mxCell>
                <mxCell id="9" value="" style="endArrow=none;html=1;rounded=0;entryX=0.5;entryY=1;entryDx=0;entryDy=0;startArrow=classic;startFill=1;endFill=0;sketch=1;curveFitting=1;jiggle=2;exitX=0.85;exitY=0.233;exitDx=0;exitDy=0;exitPerimeter=0;fontFamily=Roboto;fontSource=https%3A%2F%2Ffonts.googleapis.com%2Fcss%3Ffamily%3DRoboto;" parent="1" source="qeZRCIdwOhh2XQ9P8bx--97" target="7" edge="1">
                    <mxGeometry width="50" height="50" relative="1" as="geometry">
                        <mxPoint x="429.72000000000025" y="367.5" as="sourcePoint"/>
                        <mxPoint x="430" y="290" as="targetPoint"/>
                    </mxGeometry>
                </mxCell>
                <mxCell id="10" value="http" style="edgeLabel;html=1;align=center;verticalAlign=middle;resizable=0;points=[];fontSize=14;fontStyle=1;fontFamily=Roboto;fontSource=https%3A%2F%2Ffonts.googleapis.com%2Fcss%3Ffamily%3DRoboto;" parent="9" vertex="1" connectable="0">
                    <mxGeometry x="0.1875" y="-2" relative="1" as="geometry">
                        <mxPoint x="-6" y="2" as="offset"/>
                    </mxGeometry>
                </mxCell>
                <mxCell id="11" value="" style="endArrow=none;html=1;rounded=0;entryX=0.5;entryY=1;entryDx=0;entryDy=0;startArrow=classic;startFill=1;endFill=0;sketch=1;curveFitting=1;jiggle=2;fontFamily=Roboto;fontSource=https%3A%2F%2Ffonts.googleapis.com%2Fcss%3Ffamily%3DRoboto;" parent="1" source="qeZRCIdwOhh2XQ9P8bx--97" edge="1">
                    <mxGeometry width="50" height="50" relative="1" as="geometry">
                        <mxPoint x="199.50000000000026" y="357.5" as="sourcePoint"/>
                        <mxPoint x="199.78" y="280" as="targetPoint"/>
                    </mxGeometry>
                </mxCell>
                <mxCell id="12" value="http" style="edgeLabel;html=1;align=center;verticalAlign=middle;resizable=0;points=[];fontSize=14;fontStyle=1;fontFamily=Roboto;fontSource=https%3A%2F%2Ffonts.googleapis.com%2Fcss%3Ffamily%3DRoboto;" parent="11" vertex="1" connectable="0">
                    <mxGeometry x="0.1875" y="-2" relative="1" as="geometry">
                        <mxPoint x="-2" y="6" as="offset"/>
                    </mxGeometry>
                </mxCell>
                <mxCell id="13" value="" style="endArrow=none;html=1;rounded=0;exitX=0.271;exitY=-0.008;exitDx=0;exitDy=0;entryX=0.5;entryY=1;entryDx=0;entryDy=0;startArrow=classic;startFill=1;endFill=0;sketch=1;curveFitting=1;jiggle=2;exitPerimeter=0;fontFamily=Roboto;fontSource=https%3A%2F%2Ffonts.googleapis.com%2Fcss%3Ffamily%3DRoboto;" parent="1" target="qeZRCIdwOhh2XQ9P8bx--96" edge="1">
                    <mxGeometry width="50" height="50" relative="1" as="geometry">
                        <mxPoint x="388.97" y="359.99999999999994" as="sourcePoint"/>
                        <mxPoint x="321.03" y="280.96" as="targetPoint"/>
                    </mxGeometry>
                </mxCell>
                <mxCell id="14" value="http" style="edgeLabel;html=1;align=center;verticalAlign=middle;resizable=0;points=[];fontSize=14;fontStyle=1;fontFamily=Roboto;fontSource=https%3A%2F%2Ffonts.googleapis.com%2Fcss%3Ffamily%3DRoboto;" parent="13" vertex="1" connectable="0">
                    <mxGeometry x="0.1875" y="-2" relative="1" as="geometry">
                        <mxPoint x="-2" y="6" as="offset"/>
                    </mxGeometry>
                </mxCell>
                <mxCell id="15" value="" style="shape=image;verticalLabelPosition=bottom;labelBackgroundColor=default;verticalAlign=top;aspect=fixed;imageAspect=0;image=data:image/svg+xml,PHN2ZyB4bWxucz0iaHR0cDovL3d3dy53My5vcmcvMjAwMC9zdmciIHByZXNlcnZlQXNwZWN0UmF0aW89InhNaW5ZTWluIG1lZXQiIHZpZXdCb3g9IjAgMC41ODQwMjI1MjE5NzI2NTYyIDI1NiAyMTguNTg2OTE0MDYyNSIgaGVpZ2h0PSI2ODMuMDg0MTA2NDQ1MzEyNSIgd2lkdGg9IjgwMCI+PHBhdGggZmlsbD0iIzkxMjYyNiIgZD0iTTI0NS45NyAxNjguOTQzYy0xMy42NjIgNy4xMjEtODQuNDM0IDM2LjIyLTk5LjUwMSA0NC4wNzUtMTUuMDY3IDcuODU2LTIzLjQzNyA3Ljc4LTM1LjM0IDIuMDktMTEuOTAyLTUuNjktODcuMjE2LTM2LjExMi0xMDAuNzgzLTQyLjU5N0MzLjU2NiAxNjkuMjcxIDAgMTY2LjUzNSAwIDE2My45NTF2LTI1Ljg3NnM5OC4wNS0yMS4zNDUgMTEzLjg3OS0yNy4wMjRjMTUuODI4LTUuNjc5IDIxLjMyLTUuODg0IDM0Ljc5LS45NSAxMy40NzIgNC45MzYgOTQuMDE4IDE5LjQ2OCAxMDcuMzMxIDI0LjM0NGwtLjAwNiAyNS41MWMuMDAyIDIuNTU4LTMuMDcgNS4zNjQtMTAuMDI0IDguOTg4Ii8+PHBhdGggZmlsbD0iI0M2MzAyQiIgZD0iTTI0NS45NjUgMTQzLjIyYy0xMy42NjEgNy4xMTgtODQuNDMxIDM2LjIxOC05OS40OTggNDQuMDcyLTE1LjA2NiA3Ljg1Ny0yMy40MzYgNy43OC0zNS4zMzggMi4wOS0xMS45MDMtNS42ODYtODcuMjE0LTM2LjExMy0xMDAuNzgtNDIuNTk0LTEzLjU2Ni02LjQ4NS0xMy44NS0xMC45NDgtLjUyNC0xNi4xNjYgMTMuMzI2LTUuMjIgODguMjI0LTM0LjYwNSAxMDQuMDU1LTQwLjI4NCAxNS44MjgtNS42NzcgMjEuMzE5LTUuODg0IDM0Ljc4OS0uOTQ4IDEzLjQ3MSA0LjkzNCA4My44MTkgMzIuOTM1IDk3LjEzIDM3LjgxIDEzLjMxNiA0Ljg4MSAxMy44MjcgOC45LjE2NiAxNi4wMiIvPjxwYXRoIGZpbGw9IiM5MTI2MjYiIGQ9Ik0yNDUuOTcgMTI3LjA3NGMtMTMuNjYyIDcuMTIyLTg0LjQzNCAzNi4yMi05OS41MDEgNDQuMDc4LTE1LjA2NyA3Ljg1My0yMy40MzcgNy43NzctMzUuMzQgMi4wODctMTEuOTAzLTUuNjg3LTg3LjIxNi0zNi4xMTItMTAwLjc4My00Mi41OTdDMy41NjYgMTI3LjQwMiAwIDEyNC42NyAwIDEyMi4wODVWOTYuMjA2czk4LjA1LTIxLjM0NCAxMTMuODc5LTI3LjAyM2MxNS44MjgtNS42NzkgMjEuMzItNS44ODUgMzQuNzktLjk1QzE2Mi4xNDIgNzMuMTY4IDI0Mi42ODggODcuNjk3IDI1NiA5Mi41NzRsLS4wMDYgMjUuNTEzYy4wMDIgMi41NTctMy4wNyA1LjM2My0xMC4wMjQgOC45ODciLz48cGF0aCBmaWxsPSIjQzYzMDJCIiBkPSJNMjQ1Ljk2NSAxMDEuMzUxYy0xMy42NjEgNy4xMi04NC40MzEgMzYuMjE4LTk5LjQ5OCA0NC4wNzUtMTUuMDY2IDcuODU0LTIzLjQzNiA3Ljc3Ny0zNS4zMzggMi4wODctMTEuOTAzLTUuNjg2LTg3LjIxNC0zNi4xMTItMTAwLjc4LTQyLjU5NC0xMy41NjYtNi40ODMtMTMuODUtMTAuOTQ3LS41MjQtMTYuMTY3QzIzLjE1MSA4My41MzUgOTguMDUgNTQuMTQ4IDExMy44OCA0OC40N2MxNS44MjgtNS42NzggMjEuMzE5LTUuODg0IDM0Ljc4OS0uOTQ5IDEzLjQ3MSA0LjkzNCA4My44MTkgMzIuOTMzIDk3LjEzIDM3LjgxIDEzLjMxNiA0Ljg4IDEzLjgyNyA4LjkuMTY2IDE2LjAyIi8+PHBhdGggZmlsbD0iIzkxMjYyNiIgZD0iTTI0NS45NyA4My42NTNjLTEzLjY2MiA3LjEyLTg0LjQzNCAzNi4yMi05OS41MDEgNDQuMDc4LTE1LjA2NyA3Ljg1NC0yMy40MzcgNy43NzctMzUuMzQgMi4wODctMTEuOTAzLTUuNjg3LTg3LjIxNi0zNi4xMTMtMTAwLjc4My00Mi41OTVDMy41NjYgODMuOTggMCA4MS4yNDcgMCA3OC42NjV2LTI1Ljg4czk4LjA1LTIxLjM0MyAxMTMuODc5LTI3LjAyMWMxNS44MjgtNS42OCAyMS4zMi01Ljg4NCAzNC43OS0uOTVDMTYyLjE0MiAyOS43NDkgMjQyLjY4OCA0NC4yNzggMjU2IDQ5LjE1NWwtLjAwNiAyNS41MTJjLjAwMiAyLjU1NS0zLjA3IDUuMzYxLTEwLjAyNCA4Ljk4NiIvPjxwYXRoIGZpbGw9IiNDNjMwMkIiIGQ9Ik0yNDUuOTY1IDU3LjkzYy0xMy42NjEgNy4xMi04NC40MzEgMzYuMjItOTkuNDk4IDQ0LjA3NC0xNS4wNjYgNy44NTQtMjMuNDM2IDcuNzc3LTM1LjMzOCAyLjA5Qzk5LjIyNyA5OC40MDQgMjMuOTE1IDY3Ljk4IDEwLjM1IDYxLjQ5Ny0zLjIxNyA1NS4wMTUtMy41IDUwLjU1IDkuODI1IDQ1LjMzMSAyMy4xNTEgNDAuMTEzIDk4LjA1IDEwLjczIDExMy44OCA1LjA1YzE1LjgyOC01LjY3OSAyMS4zMTktNS44ODMgMzQuNzg5LS45NDggMTMuNDcxIDQuOTM1IDgzLjgxOSAzMi45MzQgOTcuMTMgMzcuODExIDEzLjMxNiA0Ljg3NiAxMy44MjcgOC44OTcuMTY2IDE2LjAxNyIvPjxwYXRoIGZpbGw9IiNGRkYiIGQ9Ik0xNTkuMjgzIDMyLjc1N2wtMjIuMDEgMi4yODUtNC45MjcgMTEuODU2LTcuOTU4LTEzLjIzLTI1LjQxNS0yLjI4NCAxOC45NjQtNi44MzktNS42OS0xMC40OTggMTcuNzU1IDYuOTQ0IDE2LjczOC01LjQ4LTQuNTI0IDEwLjg1NSAxNy4wNjcgNi4zOTFNMTMxLjAzMiA5MC4yNzVMODkuOTU1IDczLjIzOGw1OC44Ni05LjAzNS0xNy43ODMgMjYuMDcyTTc0LjA4MiAzOS4zNDdjMTcuMzc1IDAgMzEuNDYgNS40NiAzMS40NiAxMi4xOTQgMCA2LjczNi0xNC4wODUgMTIuMTk1LTMxLjQ2IDEyLjE5NXMtMzEuNDYtNS40Ni0zMS40Ni0xMi4xOTVjMC02LjczNCAxNC4wODUtMTIuMTk0IDMxLjQ2LTEyLjE5NCIvPjxwYXRoIGZpbGw9IiM2MjFCMUMiIGQ9Ik0xODUuMjk1IDM1Ljk5OGwzNC44MzYgMTMuNzY2LTM0LjgwNiAxMy43NTMtLjAzLTI3LjUyIi8+PHBhdGggZmlsbD0iIzlBMjkyOCIgZD0iTTE0Ni43NTUgNTEuMjQzbDM4LjU0LTE1LjI0NS4wMyAyNy41MTktMy43NzkgMS40NzgtMzQuNzkxLTEzLjc1MiIvPjwvc3ZnPg==;sketch=1;curveFitting=1;jiggle=2;opacity=40;" vertex="1" parent="1">
                    <mxGeometry x="260" y="377.61" width="36.22" height="30.93" as="geometry"/>
                </mxCell>
                <mxCell id="16" value="" style="shape=image;verticalLabelPosition=bottom;labelBackgroundColor=default;verticalAlign=top;aspect=fixed;imageAspect=0;image=data:image/svg+xml,PHN2ZyB4bWxuczp4bGluaz0iaHR0cDovL3d3dy53My5vcmcvMTk5OS94bGluayIgeG1sbnM9Imh0dHA6Ly93d3cudzMub3JnLzIwMDAvc3ZnIiBwcmVzZXJ2ZUFzcGVjdFJhdGlvPSJ4TWlkWU1pZCIgdmVyc2lvbj0iMS4xIiB2aWV3Qm94PSIwLjI5NzM2MTM3MzkwMTM2NzIgMC4zNjQzNzc4ODYwNTY5IDI1NS4zODY0MTM1NzQyMTg3NSAyNjMuMjk4NDYxOTE0MDYyNSIgaGVpZ2h0PSI3OTcuODc0MTI3MDEyMzEwNiIgd2lkdGg9Ijc3My44OTgyMjI5NTIxNzgiPgogICAgPGc+CiAgICAgICAgPHBhdGggZmlsbD0iIzAwMDAwMCIgZD0iTTI1NS4wMDc5MjYsMTU4LjA4NTYxNyBDMjUzLjQ3MzEwOSwxNTMuNDM3NDEzIDI0OS40NTIxOTQsMTUwLjE5OTI3OSAyNDQuMjUxNzg4LDE0OS40MjE4MiBDMjQxLjc5OTk4MiwxNDkuMDU1ODUyIDIzOC45OTE2NjcsMTQ5LjIxMTkzNSAyMzUuNjY4OTg4LDE0OS44OTcxNjQgQzIyOS44NzczNTgsMTUxLjA5MjAyOCAyMjUuNTgwMzQyLDE1MS41NDY2NzkgMjIyLjQ0NDQ5LDE1MS42MzUzNjMgQzIzNC4yODA3OTQsMTMxLjY1MDIxNyAyNDMuOTA1OTIxLDEwOC44NTk3MTQgMjQ5LjQ0Njg3Myw4Ny40MDY1NTg5IEMyNTguNDA2MjgyLDUyLjcxODI2MzMgMjUzLjYxODU1LDM2LjkxNTQzNjUgMjQ4LjAyMzc5NywyOS43NjY5NDY5IEMyMzMuMjE3MTgyLDEwLjg0Nzc3ODMgMjExLjYxNDQ0OCwwLjY4MzQ1NDk2NSAxODUuNTUxNTIsMC4zNzE4Nzk5MDggQzE3MS42NDk0NzgsMC4yMDIxOTg2MTQgMTU5LjQ0MzY1OCwyLjk0NzI1MTczIDE1My4wNzczNTgsNC45MjA3NTc1MSBDMTQ3LjE0OTE1NSwzLjg3NTQ3MzQ0IDE0MC43NzQ1NzcsMy4yOTEzNDQxMSAxMzQuMDg2MDYsMy4xODMxNTAxMiBDMTIxLjU1MDMzNywyLjk4MzMxNjQgMTEwLjQ3MzE2NCw1LjcxNTk1MzgxIDEwMS4wMDgyNTksMTEuMzMyNTgyIEM5NS43NjcwNTc3LDkuNTYxMjc0ODMgODcuMzU4MDc4NSw3LjA2MzM1MzM1IDc3LjY0NjA0MTYsNS40Njg4MjIxNyBDNTQuODAzNTEwNCwxLjcxODY4ODIyIDM2LjM5Mzk3NjksNC42NDExMDg1NSAyMi45MjgyNTg3LDE0LjE1MzkwMyBDNi42MjIzMDAyMywyNS42NzIxMjkzIC0wLjkzNzA5MDA2OSw0NS42ODM4Nzk5IDAuNDYxMTU0NzM0LDczLjYzMzk5NTQgQzAuOTA0NTcyNzQ4LDgyLjUwODI2NzkgNS44NjkwODA4MywxMDkuNTA3Njk1IDEzLjY4NTA2MjQsMTM1LjExNDE5OSBDMTguMTc3MTgyNCwxNDkuODMxNTM4IDIyLjk2NzI3OTQsMTYyLjA1MzkxMiAyNy45MjIzMjc5LDE3MS40NDM3MzIgQzM0Ljk0OTAyNTQsMTg0Ljc1ODY4OCA0Mi40Njc2MjEyLDE5Mi42MDAwOTIgNTAuOTA4NTI2NiwxOTUuNDE1NTAxIEM1NS42NDAwOTI0LDE5Ni45OTIyOTYgNjQuMjM1ODk4NCwxOTguMDk1NTIgNzMuMjc3NDg3MywxOTAuNTY2ODczIEM3NC40MjMyNzk0LDE5MS45NTM4ODUgNzUuOTUxNTkzNSwxOTMuMzMzMjEgNzcuOTgxMjY1NiwxOTQuNjEzODAxIEM4MC41NTc4MTk5LDE5Ni4yMzkwNzYgODMuNzA5MDQzOSwxOTcuNTY2OTY1IDg2Ljg1NTUzODEsMTk4LjM1Mzg4NSBDOTguMTk2OTg4NSwyMDEuMTg5Mzk1IDEwOC44MjAxMDIsMjAwLjQ3OTkyNiAxMTcuODgyOTc1LDE5Ni41MDYzMDkgQzExNy45Mzg1NSwxOTguMTE3OTg2IDExNy45ODE3MDksMTk5LjY1ODEyNSAxMTguMDE4MzY1LDIwMC45ODc3ODggQzExOC4wNzg2NywyMDMuMTQ1MTY0IDExOC4xMzc3OTIsMjA1LjI1OTk3MiAxMTguMjE3MDE2LDIwNy4yMzc2MTcgQzExOC43NTM4NDgsMjIwLjYxMjI4NiAxMTkuNjYzNzQxLDIzMS4wMTEzMjYgMTIyLjM1OTcyMywyMzguMjg2OTI4IEMxMjIuNTA3NTI5LDIzOC42ODc3NzggMTIyLjcwNjc3MSwyMzkuMjk3MzMgMTIyLjkxNzI0NywyMzkuOTQzNTM4IEMxMjQuMjYxNjkxLDI0NC4wNjIwMDUgMTI2LjUxMTI5OCwyNTAuOTU1Njc3IDEzMi4yMzI1NzMsMjU2LjM1NTMyNiBDMTM4LjE1ODQxMSwyNjEuOTQ3NzE0IDE0NS4zMjUyMjksMjYzLjY2MzQ0NiAxNTEuODg4OTk4LDI2My42NjI4NTUgQzE1NS4xODA5MzMsMjYzLjY2Mjg1NSAxNTguMzIyMTA2LDI2My4yMzEyNjEgMTYxLjA3NjYxOSwyNjIuNjQwNjI4IEMxNzAuODk3NDQxLDI2MC41MzY0NjIgMTgyLjA1MDI5MSwyNTcuMzI5NjYzIDE5MC4xMTgxMzQsMjQ1Ljg0MjE4IEMxOTcuNzQ1NTE1LDIzNC45ODE5ODYgMjAxLjQ1MzY3MiwyMTguNjI1MTgyIDIwMi4xMjQ3MTEsMTkyLjg1MTM2MyBDMjAyLjIxMTYyMSwxOTIuMTIyOTc1IDIwMi4yOTIwMjgsMTkxLjQyNzEwNCAyMDIuMzY5NDc4LDE5MC43NjM3NTEgQzIwMi40MjE1MDYsMTkwLjMxNjE5NCAyMDIuNDc0NzE2LDE4OS44NTg1ODcgMjAyLjUyODUxNywxODkuNDAyMTYyIEwyMDQuMzI1ODM4LDE4OS41NjAwMTggTDIwNC43ODg3NjcsMTg5LjU5MTM1MyBDMjE0Ljc5MTA5NSwxOTAuMDQ3MTg3IDIyNy4wMjExNTUsMTg3LjkyNTg3NSAyMzQuNTMyMDY1LDE4NC40MzcwNjIgQzI0MC40NjczNjMsMTgxLjY4MjU1IDI1OS40ODU4NTcsMTcxLjY0MjM4MyAyNTUuMDA3OTI2LDE1OC4wODU2MTciPgoKPC9wYXRoPgogICAgICAgIDxwYXRoIGZpbGw9IiMzMzY3OTEiIGQ9Ik0yMzcuOTA1NTg5LDE2MC43MjI0NzYgQzIwOC4xNjU4MzgsMTY2Ljg1NzAxNiAyMDYuMTIxMzg2LDE1Ni43ODc4OCAyMDYuMTIxMzg2LDE1Ni43ODc4OCBDMjM3LjUyMTg4NSwxMTAuMTk0Njk3IDI1MC42NDgyNCw1MS4wNTE2MDI4IDIzOS4zMjAzODgsMzYuNTc2NjY1MSBDMjA4LjQxNzEwOSwtMi45MDgyMzA5NSAxNTQuOTIxOTc3LDE1Ljc2NTU3OTcgMTU0LjAyOTIyOSwxNi4yNTAzODM0IEwxNTMuNzQxODk0LDE2LjMwMTgxOTkgQzE0Ny44NjYzMDksMTUuMDgyMTI0NyAxNDEuMjkwNzE2LDE0LjM1NTUxMDQgMTMzLjkwMDQxNiwxNC4yMzQ5MDA3IEMxMjAuNDQzNTY2LDE0LjAxNDM3NDEgMTEwLjIzNjA4MywxNy43NjI3MzQ0IDEwMi40OTA0NTcsMjMuNjM2NTQ1IEMxMDIuNDkwNDU3LDIzLjYzNjU0NSA3LjA2MDM5NzIzLC0xNS42NzY4OTYxIDExLjQ5ODcxNTksNzMuMDgwNjA5NyBDMTIuNDQyOTAwNyw5MS45NjMxMjI0IDM4LjU2MjU4NjYsMjE1Ljk1NDAzMiA2OS43MTcxMzYzLDE3OC41MDI5NDcgQzgxLjEwNDExMDksMTY0LjgwODQyNSA5Mi4xMDYxOTg2LDE1My4yMjkzMDMgOTIuMTA2MTk4NiwxNTMuMjI5MzAzIEM5Ny41NzA4ODIyLDE1Ni44NTk0MTggMTA0LjExMjc3NiwxNTguNzExMTMyIDExMC45NzA5NzUsMTU4LjA0NjAwNSBMMTExLjUwMzY2NywxNTcuNTkzNzE4IEMxMTEuMzM4MTI1LDE1OS4yOTQwNzkgMTExLjQxMzgwMSwxNjAuOTU3MTkyIDExMS43MTcwOTksMTYyLjkyNTk2OCBDMTAzLjY5MTIzMywxNzEuODkzMDYyIDEwNi4wNDk2MjYsMTczLjQ2NzQ5MiA5MC4wMDU1Nzk3LDE3Ni43NzAwNjkgQzczLjc3MTE1OTQsMTgwLjExNTgwNiA4My4zMDgxOTQsMTg2LjA3MjM4OCA4OS41MzQ5NjU0LDE4Ny42MjkwODEgQzk3LjA4MzcxMzYsMTg5LjUxNjg1OSAxMTQuNTQ3ODgsMTkyLjE5MDk2NSAxMjYuMzQ4MTIsMTc1LjY3MjE2NiBMMTI1Ljg3NzUwNiwxNzcuNTU2OTg4IEMxMjkuMDIyMjI2LDE4MC4wNzU2MDMgMTMxLjIzMDQ0OCwxOTMuOTQwMzk3IDEzMC44NjAzNDIsMjA2LjUwODYzNyBDMTMwLjQ5MDIzNiwyMTkuMDc3NDY5IDEzMC4yNDMxMDQsMjI3LjcwNjM4MyAxMzIuNzIwOTI0LDIzNC40NDYzMzcgQzEzNS4xOTg3NDQsMjQxLjE4NjI5MSAxMzcuNjY4Mjg2LDI1Ni4zNTExODcgMTU4Ljc1OTYxMiwyNTEuODMxODcxIEMxNzYuMzgzNDA5LDI0OC4wNTUxMzIgMTg1LjUxNjA0NiwyMzguMjY4MDA5IDE4Ni43ODY1ODcsMjIxLjk0MjU0IEMxODcuNjg4MjAzLDIxMC4zMzYyMjIgMTg5LjcyODUxNywyMTIuMDUxOTU0IDE4OS44NTc0MDQsMjAxLjY3NTM4MSBMMTkxLjQ5MzkxMiwxOTYuNzYyOTAxIEMxOTMuMzgxMDk5LDE4MS4wMjk4MzggMTkxLjc5MzY2MywxNzUuOTU0MTggMjAyLjY1MTQ5MiwxNzguMzE0OTM4IEwyMDUuMjkwMTI1LDE3OC41NDY2OTcgQzIxMy4yODE3LDE3OC45MTAzIDIyMy43NDEwNDQsMTc3LjI2MTM3NiAyMjkuODc5NzIzLDE3NC40MDgxMjkgQzI0My4wOTgzMDksMTY4LjI3MzU4OSAyNTAuOTM3OTQsMTU4LjAzMTIyNCAyMzcuOTA0NDA2LDE2MC43MjI0NzYgTDIzNy45MDU1ODksMTYwLjcyMjQ3NiI+Cgo8L3BhdGg+CiAgICAgICAgPHBhdGggZmlsbD0iI0ZGRkZGRiIgZD0iTTEwOC4wNzYzNDIsODEuNTI1MDYyNCBDMTA1LjM5NjkxNSw4MS4xNTIgMTAyLjk2OTM0OSw4MS40OTcyNzQ4IDEwMS43NDEzNzYsODIuNDI2Njc5IEMxMDEuMDUwMjM2LDgyLjk0OTkxMjIgMTAwLjgzNjgwNCw4My41NTU5MTY5IDEwMC43Nzk0NTUsODMuOTczMzIxIEMxMDAuNjI1MTQ1LDg1LjA3ODMxODcgMTAxLjM5OTY0OSw4Ni4yOTk3ODc1IDEwMS44NzQ5OTMsODYuOTMwMDMyMyBDMTAzLjIyMDYxOSw4OC43MTM3NTUyIDEwNS4xODcwMyw4OS45Mzk5NTM4IDEwNy4xMzMzMzksOTAuMjEwMTQzMiBDMTA3LjQxNTM1Myw5MC4yNDkxNjQgMTA3LjY5NTU5NCw5MC4yNjgwODMxIDEwNy45NzQ2NTEsOTAuMjY4MDgzMSBDMTExLjIyMDQ3MSw5MC4yNjgwODMxIDExNC4xNzA2NzksODcuNzQxMTkxNyAxMTQuNDMwODE4LDg1Ljg3NTg3OTkgQzExNC43NTU5OTEsODMuNTM5OTUzOCAxMTEuMzY0NzMsODEuOTgyNjY5NyAxMDguMDc2MzQyLDgxLjUyNTA2MjQiPgoKPC9wYXRoPgogICAgICAgIDxwYXRoIGZpbGw9IiNGRkZGRkYiIGQ9Ik0xOTYuODYwNDUzLDgxLjU5ODk2NTQgTDE5Ni44NTk4NjEsODEuNTk4OTY1NCBDMTk2LjYwNDQ1Myw3OS43Njc5NDQ2IDE5My4zNDU2MjYsNzkuMjQ1ODkzOCAxOTAuMjUzNTI0LDc5LjY3NTcxMzYgQzE4Ny4xNjYxNTIsODAuMTA2MTI0NyAxODQuMTcxNjAzLDgxLjQ5OTYzOTcgMTg0LjQyMTY5MSw4My4zMzQ3OTkxIEMxODQuNjIyNzA3LDg0Ljc2MjAxMzkgMTg3LjE5ODY3LDg3LjE5ODQ0OCAxOTAuMjQ5Mzg2LDg3LjE5Nzg1NjggQzE5MC41MDY1NjgsODcuMTk3ODU2OCAxOTAuNzY2NzA3LDg3LjE4MDcxMTMgMTkxLjAyODYxOSw4Ny4xNDQwNTU0IEMxOTMuMDY0Nzk0LDg2Ljg2MjA0MTYgMTk0LjU1ODgxOCw4NS41NjkwMzQ2IDE5NS4yNjgyODYsODQuODIzNTAxMiBDMTk2LjM0OTYzNSw4My42ODgzNTEgMTk2Ljk3NDU1OSw4Mi40MjE5NDkyIDE5Ni44NjA0NTMsODEuNTk4OTY1NCI+Cgo8L3BhdGg+CiAgICAgICAgPHBhdGggZmlsbD0iI0ZGRkZGRiIgZD0iTTI0Ny44MDIwODgsMTYwLjAyNTQyMyBDMjQ2LjY2ODEyLDE1Ni41OTYzMjMgMjQzLjAxODQ5NCwxNTUuNDkyNTA4IDIzNi45NTQzMDksMTU2Ljc0NTMxMiBDMjE4Ljk0OTE3MywxNjAuNDYxMTU1IDIxMi41MDEyODQsMTU3Ljg4Njk2NSAyMTAuMzgzNTIsMTU2LjMyNzkwOCBDMjI0LjM3ODk3NSwxMzUuMDA3MTg3IDIzNS44OTE4OCwxMDkuMjM2MzIzIDI0Mi4xMDI2ODgsODUuMTkwNjUxMyBDMjQ1LjA0NTIxLDczLjgwMDcyMDYgMjQ2LjY3MDQ4NSw2My4yMjMxMzE2IDI0Ni44MDI5MTksNTQuNjAxOTAzIEMyNDYuOTQ5NTQzLDQ1LjEzNzU4ODkgMjQ1LjMzODQ1NywzOC4xODQyMDMyIDI0Mi4wMTQwMDUsMzMuOTM2MjU4NyBDMjI4LjYxMTU0NywxNi44MTA4NjM3IDIwOC45NDIxMTUsNy42MjUwMTYxNyAxODUuMTMxNzUxLDcuMzcyNTYzNTEgQzE2OC43NjMxMjIsNy4xODg2OTI4NCAxNTQuOTMzMjEsMTEuMzc4MTA2MiAxNTIuMjUyMDA5LDEyLjU1NTgyNDUgQzE0Ni42MDU4MiwxMS4xNTE2Njc0IDE0MC40NTA1ODcsMTAuMjg5NjYyOCAxMzMuNzUwMjQ1LDEwLjE3OTY5NTIgQzEyMS40NjE2NTQsOS45ODEwNDM4OCAxMTAuODQwMzE0LDEyLjkyMjk3NDYgMTAyLjA0NTg1NywxOC45MTkxNjg2IEM5OC4yMjU5NTg0LDE3LjQ5Nzg2NjEgODguMzUzNjk5OCwxNC4xMDg5NyA3Ni4yODE0OTY1LDEyLjE2NDQzNDIgQzU1LjQwODkyMzgsOC44MDMzMjU2NCAzOC44MjMzMTY0LDExLjM0OTcyNzUgMjYuOTg3MDExNSwxOS43MzUwNTc3IEMxMi44NjM4NTIyLDI5Ljc0MDkzMyA2LjM0MzgzMzcyLDQ3LjYyNjY0MiA3LjYwNzI3OTQ1LDcyLjg5NDM3NDEgQzguMDMyMzY5NTIsODEuMzk2MTc1NSAxMi44NzU2NzY3LDEwNy41NDc3ODggMjAuNTIwMjAzMiwxMzIuNTkzMjE5IEMzMC41ODIyNDQ4LDE2NS41NTY5MTUgNDEuNTE5Mjk3OSwxODQuMjE4MzA5IDUzLjAyODA2NDcsMTg4LjA1NjUzNiBDNTQuMzc0ODczLDE4OC41MDU4NjYgNTUuOTI4NjA5NywxODguODIwMzk3IDU3LjY0MDc5NDUsMTg4LjgyMDM5NyBDNjEuODM5MDc2MiwxODguODIwMzk3IDY2Ljk4NTY4MTMsMTg2LjkyNzg4OSA3Mi4zNDA5ODg1LDE4MC40OTAwNTEgQzgxLjIzNTk1MzgsMTY5Ljc4ODg5NiA4OS41NDA4Nzc2LDE2MC44MjE4MDEgOTIuNjAyMjM1NiwxNTcuNTYzNTY2IEM5Ny4xMjYyODE4LDE1OS45OTIzMTQgMTAyLjA5NTUyLDE2MS4zNDc5OTEgMTA3LjE3OTQ1NSwxNjEuNDgzOTcyIEMxMDcuMTg4MzIzLDE2MS42MTY5OTggMTA3LjIwMTkyMSwxNjEuNzUwMDIzIDEwNy4yMTM3NDYsMTYxLjg4MjQ1NyBDMTA2LjE5Mzg4NSwxNjMuMDkyMTAyIDEwNS4zNTczMDMsMTY0LjE1MjE2NiAxMDQuNjQ0Mjg2LDE2NS4wNTczMyBDMTAxLjEyMjM2NSwxNjkuNTI4MTY2IDEwMC4zODkyNDcsMTcwLjQ1ODc1MyA4OS4wNTE5MzUzLDE3Mi43OTM0OTcgQzg1LjgyNzM5OTUsMTczLjQ1ODYyNCA3Ny4yNjExNTQ3LDE3NS4yMjQwMTggNzcuMTM2NDA2NSwxODEuMjI3ODk4IEM3Ni45OTk4MzM3LDE4Ny43ODc1MjkgODcuMjYwNTI2NiwxOTAuNTQyNjMzIDg4LjQyOTk2NzcsMTkwLjgzNDY5NyBDOTIuNTA0MDkyNCwxOTEuODU0NTU5IDk2LjQyODYzNzQsMTkyLjM1NzY5MSAxMDAuMTcxNjc3LDE5Mi4zNTc2OTEgQzEwOS4yNzUzNDQsMTkyLjM1NzA5OSAxMTcuMjg1ODM4LDE4OS4zNjU1MDYgMTIzLjY4ODIwMywxODMuNTc2ODMxIEMxMjMuNDkwNzM0LDIwNi45NjI2OTcgMTI0LjQ2NjI1NCwyMzAuMDA2ODM2IDEyNy4yNzM5NzcsMjM3LjAyODIxMiBDMTI5LjU3MzI0NywyNDIuNzc1NTAxIDEzNS4xOTE2NDksMjU2LjgyMjk4NCAxNTIuOTM4NDIsMjU2LjgyMTgwMSBDMTU1LjU0MTU4LDI1Ni44MjE4MDEgMTU4LjQwODQyNSwyNTYuNTE5MDk1IDE2MS41NjE0MjMsMjU1Ljg0MzMyNiBDMTgwLjA4MjEwNiwyNTEuODcyMDc0IDE4OC4xMjQ1MjcsMjQzLjY4NjU3NyAxOTEuMjM2MTM5LDIyNS42NDAwNTUgQzE5Mi45MDEwMjUsMjE1Ljk5NTQxOCAxOTUuNzU4NDExLDE5Mi45NjM2OTUgMTk3LjEwMTY3MiwxODAuNjEwMDY5IEMxOTkuOTM3Nzc0LDE4MS40OTQ1NCAyMDMuNTg5MTczLDE4MS44OTk1MjkgMjA3LjUzNjE4NSwxODEuODk4OTM4IEMyMTUuNzY4Mzg4LDE4MS44OTg5MzggMjI1LjI2Njk5MywxODAuMTUwMDk3IDIzMS4yMjQxNjYsMTc3LjM4NDk0MiBDMjM3LjkxNTY0LDE3NC4yNzc0NjkgMjQ5Ljk5MTk4MiwxNjYuNjUwNjc5IDI0Ny44MDIwODgsMTYwLjAyNTQyMyBMMjQ3LjgwMjA4OCwxNjAuMDI1NDIzIFogTTIwMy42OTYxODUsNzYuNTQ0NTkxMiBDMjAzLjYzNDY5Nyw4MC4xOTE4NTIyIDIwMy4xMzI3NDgsODMuNTAyNzA2NyAyMDIuNjAwNjQ3LDg2Ljk1OTAwMjMgQzIwMi4wMjgzNDIsOTAuNjc2MDI3NyAyMDEuNDM1OTM1LDk0LjUxODk4MzggMjAxLjI4Njk0Nyw5OS4xODQzMzI2IEMyMDEuMTM5NzMyLDEwMy43MjQzNDIgMjAxLjcwNjcxNiwxMDguNDQ0Njc0IDIwMi4yNTUzNzIsMTEzLjAwODkyNCBDMjAzLjM2MzMyNiwxMjIuMjI4NDcxIDIwNC41MDAyNDksMTMxLjcyMDU3MyAyMDAuMDk4NTg3LDE0MS4wODY3NDQgQzE5OS40MTQ1NCwxMzkuODcxNzc4IDE5OC43NTQxNDMsMTM4LjU0NjI1NCAxOTguMTQ4NzMsMTM3LjA3ODI0NSBDMTk3LjYwMTg0OCwxMzUuNzUyMTI5IDE5Ni40MTQwNzksMTMzLjYyMTk0OSAxOTQuNzY5ODg1LDEzMC42NzM1MTUgQzE4OC4zNzA0NzYsMTE5LjE5Nzg1NyAxNzMuMzg1MzEyLDkyLjMyNDM2MDMgMTgxLjA1NjQ0Myw4MS4zNTgzMzcyIEMxODMuMzQwOTMzLDc4LjA5MzU5ODIgMTg5LjEzOTY1OCw3NC43Mzg0MDE4IDIwMy42OTYxODUsNzYuNTQ0NTkxMiBMMjAzLjY5NjE4NSw3Ni41NDQ1OTEyIFogTTE4Ni4wNTIyODYsMTQuNzU4MTMzOSBDMjA3LjM4NjAxNCwxNS4yMjkzMzk1IDIyNC4yNjEzMjEsMjMuMjEwMjcyNSAyMzYuMjA5OTU4LDM4LjQ3ODA0MTYgQzI0NS4zNzM5MzEsNTAuMTg5MDA2OSAyMzUuMjgyOTE5LDEwMy40NzYwMjggMjA2LjA2OTk0OSwxNDkuNDQ2NjUxIEMyMDUuNzgxNDMyLDE0OS4wODAwOTIgMjA1LjQ4NzU5NCwxNDguNzA5OTg2IDIwNS4xODM3MDQsMTQ4LjMzMDQyIEMyMDUuMDYyNTAzLDE0OC4xNzg0NzYgMjA0LjkzODkzOCwxNDguMDI0MTY2IDIwNC44MTQxODksMTQ3Ljg2ODA4MyBDMjEyLjM2MjkzOCwxMzUuNDAwOTQyIDIxMC44ODY2NTEsMTIzLjA2NjIzNiAyMDkuNTcyOTUyLDExMi4xMjk3NzQgQzIwOS4wMzMxNjQsMTA3LjY0MTc5MiAyMDguNTIzNTI5LDEwMy40MDI3MTYgMjA4LjY1MzAwNyw5OS40MjE0MTM0IEMyMDguNzg3MjE1LDk1LjIwMDA3MzkgMjA5LjM0NTMzLDkxLjU4MTE5MTcgMjA5Ljg4NDUyNyw4OC4wODExNDU1IEMyMTAuNTQ4NDcxLDgzLjc2NzU3NTEgMjExLjIyMzA1OCw3OS4zMDUwMTYyIDIxMS4wMzY4MjIsNzQuMDQzNzEzNiBDMjExLjE3NTc2LDczLjQ5MjEwMTYgMjExLjIzMTkyNiw3Mi44Mzk5ODE1IDIxMS4xNTkyMDYsNzIuMDY2MDY5MyBDMjEwLjY4Mzg2MSw2Ny4wMjA1NjM1IDIwNC45MjQxNTcsNTEuOTIyNDc1OCAxOTMuMTgzNjMsMzguMjU1MTUwMSBDMTg2Ljc2MjM0NiwzMC43ODA4OTYxIDE3Ny4zOTY3NjcsMjIuNDE1NjY3NCAxNjQuNjA5Nzc0LDE2Ljc3MzYxNjYgQzE3MC4xMDk5MzEsMTUuNjMzNzM2NyAxNzcuNjMxNDgzLDE0LjU3MDcxNTkgMTg2LjA1MjI4NiwxNC43NTgxMzM5IEwxODYuMDUyMjg2LDE0Ljc1ODEzMzkgWiBNNjYuNjc0MTA2MiwxNzUuNzc3OTk1IEM2MC43NzQyODE4LDE4Mi44NzE1MDEgNTYuNjk5NTY1OCwxODEuNTEyMjc3IDU1LjM1OTg1MjIsMTgxLjA2NTkwMyBDNDYuNjI5MjQ3MSwxNzguMTUzNTMzIDM2LjQ5OTgwNiwxNTkuNzAyMDIzIDI3LjU2ODc3NiwxMzAuNDQxNzU1IEMxOS44NDA4ODY4LDEwNS4xMjM3NjkgMTUuMzI0NTI2Niw3OS42NjUwNzE2IDE0Ljk2NzQyNzMsNzIuNTI2MDQxNiBDMTMuODM4NzgwNiw0OS45NDgzNzg4IDE5LjMxMTc0MTMsMzQuMjEyOTUxNSAzMS4yMzQ5NTYxLDI1Ljc1NzI2NTYgQzUwLjYzODkyODQsMTEuOTk2NTI2NiA4Mi41NDEzNzY0LDIwLjIzMjg2ODQgOTUuMzYwMjk1NiwyNC40MTA0NTczIEM5NS4xNzU4MzM3LDI0LjU5MTk2MyA5NC45ODQyNzcxLDI0Ljc2MjIzNTYgOTQuODAxNTg4OSwyNC45NDY2OTc1IEM3My43NjY0Mjk2LDQ2LjE5MTE1MDEgNzQuMjY1NDIyNiw4Mi40ODc1NzUxIDc0LjMxNjg1OTEsODQuNzA1ODQ3NiBDNzQuMzE1MDg1NSw4NS41NjE5NCA3NC4zODY2MjM2LDg2Ljc3Mzk0OTIgNzQuNDg1MzU4LDg4LjQ0MTIwMDkgQzc0Ljg0NzE4NzEsOTQuNTQ1NTg4OSA3NS41MjA1OTEyLDEwNS45MDc3MzIgNzMuNzIxNDk2NSwxMTguNzc1MTMyIEM3Mi4wNDg5MjM4LDEzMC43MzIwNDYgNzUuNzM0NjE0MywxNDIuNDM1MzI2IDgzLjgzMjAxODUsMTUwLjg4MzkxNyBDODQuNjcwMzc0MSwxNTEuNzU4MzM3IDg1LjU0NTM4NTcsMTUyLjU3OTU0NyA4Ni40NDkzNjcyLDE1My4zNTIyNzcgQzgyLjg0NDY3NDQsMTU3LjIxMjM3OSA3NS4wMTE1NDczLDE2NS43NDc4OCA2Ni42NzQxMDYyLDE3NS43Nzc5OTUgTDY2LjY3NDEwNjIsMTc1Ljc3Nzk5NSBaIE04OS4xNTMwMzQ2LDE0NS43ODQ2MSBDODIuNjI2NTEyNywxMzguOTc1NDgzIDc5LjY2MjcwNjcsMTI5LjUwMzQ4MyA4MS4wMjAxNTcsMTE5Ljc5NTU4NCBDODIuOTIwMzUxLDEwNi4yMDI3NTMgODIuMjE4NTY4MSw5NC4zNjQ2NzQ0IDgxLjg0MTk1ODQsODguMDA0ODc3NiBDODEuNzg5MzM5NSw4Ny4xMTUwODU1IDgxLjc0MjYzMjgsODYuMzM1MjYxIDgxLjcxNDg0NTMsODUuNzE5Nzk2OCBDODQuNzg4MDI3Nyw4Mi45OTU0MzY1IDk5LjAyODg0MDYsNzUuMzY0NTA4MSAxMDkuMTg0Mjk2LDc3LjY5MTU2NTggQzExMy44MTk0OTIsNzguNzUzNDA0MiAxMTYuNjQyNTg3LDgxLjkwODc2NjcgMTE3LjgxNjc1OCw4Ny4zMzczODU3IEMxMjMuODkzMzU4LDExNS40NDAwMzcgMTE4LjYyMTQxMywxMjcuMTUzMzY3IDExNC4zODUyOTMsMTM2LjU2NTY1NCBDMTEzLjUxMjA1NSwxMzguNTA0ODY4IDExMi42ODcyOTgsMTQwLjMzNzY2MyAxMTEuOTgyNTU5LDE0Mi4yMzQzMDkgTDExMS40MzY4NTksMTQzLjY5OTk1NCBDMTEwLjA1NDU3NywxNDcuNDA2MzM3IDEwOC43Njg2NjUsMTUwLjg1MTk5MSAxMDcuOTcxNjk1LDE1NC4xMjQ0MTYgQzEwMS4wMzQyNzMsMTU0LjEwMzEzMiA5NC4yODQ4NTkxLDE1MS4xMzk5MTcgODkuMTUzMDM0NiwxNDUuNzg0NjEgTDg5LjE1MzAzNDYsMTQ1Ljc4NDYxIFogTTkwLjIxNzgyOTEsMTgzLjY4NTAyNSBDODguMTkyMjk1NiwxODMuMTc4OTM4IDg2LjM3MDE0MzIsMTgyLjI5OTc4OCA4NS4zMDEyMTAyLDE4MS41NzA4MDggQzg2LjE5Mzk1ODQsMTgxLjE1MDQ0OCA4Ny43ODMxNjg2LDE4MC41NzkzMjYgOTAuNTM4ODYzNywxODAuMDExNzUxIEMxMDMuODc2Mjg2LDE3Ny4yNjU1MTUgMTA1LjkzNTUyLDE3NS4zMjgwNzQgMTEwLjQzMzU1MiwxNjkuNjE2ODUgQzExMS40NjUyMzgsMTY4LjMwNzg4IDExMi42MzQwODgsMTY2LjgyMzMxNiAxMTQuMjUyODU5LDE2NS4wMTUzNTMgQzExNC4yNTM0NSwxNjUuMDE0MTcxIDExNC4yNTQwNDIsMTY1LjAxMzU4IDExNC4yNTQ2MzMsMTY1LjAxMjk4OCBDMTE2LjY2NjIzNiwxNjIuMzEzNDYgMTE3Ljc2ODg2OCwxNjIuNzcxMDY3IDExOS43Njg5NzksMTYzLjYwMDU1NCBDMTIxLjM5MDExNSwxNjQuMjcxNTk0IDEyMi45Njg2ODQsMTY2LjMwMzAzOSAxMjMuNjA4OTc5LDE2OC41MzkwNDggQzEyMy45MTE2ODYsMTY5LjU5NDk3NSAxMjQuMjUyMjMxLDE3MS41OTk4MTUgMTIzLjEzODk1NiwxNzMuMTU4ODczIEMxMTMuNzQyNjMzLDE4Ni4zMTQ3OSAxMDAuMDUxMDY3LDE4Ni4xNDU3IDkwLjIxNzgyOTEsMTgzLjY4NTAyNSBMOTAuMjE3ODI5MSwxODMuNjg1MDI1IFogTTE2MC4wMTY1NTQsMjQ4LjYzNzQ4NyBDMTQzLjcwMDU0NSwyNTIuMTMzMzk1IDEzNy45MjM2OTUsMjQzLjgwODM3IDEzNC4xMTY4MDQsMjM0LjI5MTQzNiBDMTMxLjY1OTY3NywyMjguMTQ2ODQ1IDEzMC40NTIzOTcsMjAwLjQ0MDMxNCAxMzEuMzA5MDgxLDE2OS44NDM4OCBDMTMxLjMyMDMxNCwxNjkuNDM2NTI3IDEzMS4yNjIzNzQsMTY5LjA0MzM2MyAxMzEuMTUwMDQyLDE2OC42NzM4NDggQzEzMS4wNTI0OSwxNjcuOTYwMjQgMTMwLjkwMjMxOSwxNjcuMjM4MzU2IDEzMC42OTQyMDgsMTY2LjUxMTc0MSBDMTI5LjQxOTUyOSwxNjIuMDU5ODI0IDEyNi4zMTUwMTIsMTU4LjMzNTcwNCAxMjIuNTkwMywxNTYuNzkyMDE4IEMxMjEuMTEwNDY3LDE1Ni4xNzg5MTkgMTE4LjM5Mzc5MiwxNTUuMDUzODIgMTE1LjEyOTY0NCwxNTUuODg4NjI4IEMxMTUuODI2MTA2LDE1My4wMjA2IDExNy4wMzMzODYsMTQ5Ljc4MjQ2NyAxMTguMzQxNzY0LDE0Ni4yNzUzMjYgTDExOC44OTEwMTIsMTQ0Ljc5OTYzIEMxMTkuNTA5NDMyLDE0My4xMzY1MTcgMTIwLjI4NDUyNywxNDEuNDEzNjkxIDEyMS4xMDUxNDUsMTM5LjU5MDM1NiBDMTI1LjUzODE0MywxMjkuNzQxNzQ2IDEzMS42MDk0MjMsMTE2LjI1Mjk3IDEyNS4wMjAyMzEsODUuNzc5NTEwNCBDMTIyLjU1MTg3MSw3NC4zNjU5MzA3IDExNC4zMTAyMDgsNjguNzkyNDYxOSAxMDEuODE1ODcxLDcwLjA4NjY1MTMgQzk0LjMyNTA2MjQsNzAuODYxNzQ2IDg3LjQ3Mjc3Niw3My44ODQwODMxIDg0LjA1NDkwOTksNzUuNjE2OTYwNyBDODMuMzIwMDE4NSw3NS45ODk0MzE5IDgyLjY0Nzc5NjgsNzYuMzQ4ODk2MSA4Mi4wMTk5MTY5LDc2LjY5OTQ5MTkgQzgyLjk3MzU2MTIsNjUuMTk5MDAyMyA4Ni41NzgyNTQsNDMuNzA3NDE4IDEwMC4wNjA1MjcsMzAuMTA5ODU2OCBDMTA4LjU0ODczLDIxLjU0ODkzMyAxMTkuODU0MTE1LDE3LjMyMTA5MDEgMTMzLjYyODQ1MywxNy41NDg3MTEzIEMxNjAuNzY4NTkxLDE3Ljk5MzMxMTggMTc4LjE3MjQ1MywzMS45MjEzNjcyIDE4Ny45OTQ0NTcsNDMuNTI3Njg1OSBDMTk2LjQ1NzgyOSw1My41Mjk0MjI2IDIwMS4wNDA5OTgsNjMuNjAzODc5OSAyMDIuODcwMjQ1LDY5LjAzNzIyODYgQzE4OS4xMTU0MTgsNjcuNjM4OTgzOCAxNzkuNzYwNDgsNzAuMzU0NDc1OCAxNzUuMDE3NjgxLDc3LjEzNDA0MTYgQzE2NC43MDA4MjIsOTEuODgxNTMzNSAxODAuNjYyMDk3LDEyMC41MDYyMzYgMTg4LjMzMzIyOSwxMzQuMjYyODM2IEMxODkuNzM5NzUxLDEzNi43ODQ0MDYgMTkwLjk1NDEyNSwxMzguOTYzMDY3IDE5MS4zMzYwNTUsMTM5Ljg4ODkyNCBDMTkzLjgzMzk3NywxNDUuOTQzMDU4IDE5Ny4wNjc5NzIsMTQ5Ljk4NDY2NSAxOTkuNDI5MzIxLDE1Mi45MzU0NjQgQzIwMC4xNTI5NzksMTUzLjgzOTQ0NiAyMDAuODU1MzUzLDE1NC43MTYyMzEgMjAxLjM4OTIyOSwxNTUuNDgxODY2IEMxOTcuMjIzNDY0LDE1Ni42ODMyMzMgMTg5Ljc0MDM0MiwxNTkuNDU3ODQ4IDE5MC40MjIwMjMsMTczLjMyODU1NCBDMTg5Ljg3MjE4NSwxODAuMjg5MDM1IDE4NS45NjA2NDcsMjEyLjg3NDkzOCAxODMuOTc0MTM0LDIyNC4zODc4NDMgQzE4MS4zNTE0NjQsMjM5LjU5NzY3MiAxNzUuNzU0MzQ2LDI0NS4yNjMzNzIgMTYwLjAxNjU1NCwyNDguNjM3NDg3IEwxNjAuMDE2NTU0LDI0OC42Mzc0ODcgWiBNMjI4LjEyMDgzMSwxNzAuNzAwNTY0IEMyMjMuODYxMDYyLDE3Mi42NzgyMDggMjE2LjczMjA4MywxNzQuMTYxNTg5IDIwOS45NTk2MTIsMTc0LjQ3OTY2NyBDMjAyLjQ3OTQ0NiwxNzQuODMwMjYzIDE5OC42NzE5NjMsMTczLjY0MTkwMyAxOTcuNzc2MjU5LDE3Mi45MTExNSBDMTk3LjM1NTMwNywxNjQuMjY3NDU1IDIwMC41NzMzMzksMTYzLjM2NDA2NSAyMDMuOTc4MTk5LDE2Mi40MDgwNTUgQzIwNC41MTMyNTYsMTYyLjI1NzI5MyAyMDUuMDM1MzA3LDE2Mi4xMTEyNjEgMjA1LjUzOTAzLDE2MS45MzUwNzYgQzIwNS44NTIzNzksMTYyLjE4OTg5NCAyMDYuMTk1Mjg5LDE2Mi40NDI5MzggMjA2LjU3MDcxNiwxNjIuNjkwNjYxIEMyMTIuNTgyODczLDE2Ni42NTg5NTYgMjIzLjMwNjQ5NCwxNjcuMDg3MDAyIDIzOC40NDQ3ODUsMTYzLjk2MjM4MyBDMjM4LjUwMDM2LDE2My45NTA1NTkgMjM4LjU1NTkzNSwxNjMuOTM5OTE3IDIzOC42MTA5MTksMTYzLjkyODY4NCBDMjM2LjU2OTQyMywxNjUuODM3NzQ2IDIzMy4wNzUyODksMTY4LjQwMDExMSAyMjguMTIwODMxLDE3MC43MDA1NjQgTDIyOC4xMjA4MzEsMTcwLjcwMDU2NCBaIj4KCjwvcGF0aD4KICAgIDwvZz4KPC9zdmc+;sketch=1;curveFitting=1;jiggle=2;opacity=40;" vertex="1" parent="1">
                    <mxGeometry x="680" y="380" width="33.5" height="34.57" as="geometry"/>
                </mxCell>
                <mxCell id="17" value="" style="shape=image;verticalLabelPosition=bottom;labelBackgroundColor=default;verticalAlign=top;aspect=fixed;imageAspect=0;image=data:image/svg+xml,PHN2ZyB4bWxuczp4bGluaz0iaHR0cDovL3d3dy53My5vcmcvMTk5OS94bGluayIgeG1sbnM9Imh0dHA6Ly93d3cudzMub3JnLzIwMDAvc3ZnIiBwcmVzZXJ2ZUFzcGVjdFJhdGlvPSJ4TWlkWU1pZCIgdmVyc2lvbj0iMS4xIiB2aWV3Qm94PSIwLjI5NzM2MTM3MzkwMTM2NzIgMC4zNjQzNzc4ODYwNTY5IDI1NS4zODY0MTM1NzQyMTg3NSAyNjMuMjk4NDYxOTE0MDYyNSIgaGVpZ2h0PSI3OTcuODc0MTI3MDEyMzEwNiIgd2lkdGg9Ijc3My44OTgyMjI5NTIxNzgiPgogICAgPGc+CiAgICAgICAgPHBhdGggZmlsbD0iIzAwMDAwMCIgZD0iTTI1NS4wMDc5MjYsMTU4LjA4NTYxNyBDMjUzLjQ3MzEwOSwxNTMuNDM3NDEzIDI0OS40NTIxOTQsMTUwLjE5OTI3OSAyNDQuMjUxNzg4LDE0OS40MjE4MiBDMjQxLjc5OTk4MiwxNDkuMDU1ODUyIDIzOC45OTE2NjcsMTQ5LjIxMTkzNSAyMzUuNjY4OTg4LDE0OS44OTcxNjQgQzIyOS44NzczNTgsMTUxLjA5MjAyOCAyMjUuNTgwMzQyLDE1MS41NDY2NzkgMjIyLjQ0NDQ5LDE1MS42MzUzNjMgQzIzNC4yODA3OTQsMTMxLjY1MDIxNyAyNDMuOTA1OTIxLDEwOC44NTk3MTQgMjQ5LjQ0Njg3Myw4Ny40MDY1NTg5IEMyNTguNDA2MjgyLDUyLjcxODI2MzMgMjUzLjYxODU1LDM2LjkxNTQzNjUgMjQ4LjAyMzc5NywyOS43NjY5NDY5IEMyMzMuMjE3MTgyLDEwLjg0Nzc3ODMgMjExLjYxNDQ0OCwwLjY4MzQ1NDk2NSAxODUuNTUxNTIsMC4zNzE4Nzk5MDggQzE3MS42NDk0NzgsMC4yMDIxOTg2MTQgMTU5LjQ0MzY1OCwyLjk0NzI1MTczIDE1My4wNzczNTgsNC45MjA3NTc1MSBDMTQ3LjE0OTE1NSwzLjg3NTQ3MzQ0IDE0MC43NzQ1NzcsMy4yOTEzNDQxMSAxMzQuMDg2MDYsMy4xODMxNTAxMiBDMTIxLjU1MDMzNywyLjk4MzMxNjQgMTEwLjQ3MzE2NCw1LjcxNTk1MzgxIDEwMS4wMDgyNTksMTEuMzMyNTgyIEM5NS43NjcwNTc3LDkuNTYxMjc0ODMgODcuMzU4MDc4NSw3LjA2MzM1MzM1IDc3LjY0NjA0MTYsNS40Njg4MjIxNyBDNTQuODAzNTEwNCwxLjcxODY4ODIyIDM2LjM5Mzk3NjksNC42NDExMDg1NSAyMi45MjgyNTg3LDE0LjE1MzkwMyBDNi42MjIzMDAyMywyNS42NzIxMjkzIC0wLjkzNzA5MDA2OSw0NS42ODM4Nzk5IDAuNDYxMTU0NzM0LDczLjYzMzk5NTQgQzAuOTA0NTcyNzQ4LDgyLjUwODI2NzkgNS44NjkwODA4MywxMDkuNTA3Njk1IDEzLjY4NTA2MjQsMTM1LjExNDE5OSBDMTguMTc3MTgyNCwxNDkuODMxNTM4IDIyLjk2NzI3OTQsMTYyLjA1MzkxMiAyNy45MjIzMjc5LDE3MS40NDM3MzIgQzM0Ljk0OTAyNTQsMTg0Ljc1ODY4OCA0Mi40Njc2MjEyLDE5Mi42MDAwOTIgNTAuOTA4NTI2NiwxOTUuNDE1NTAxIEM1NS42NDAwOTI0LDE5Ni45OTIyOTYgNjQuMjM1ODk4NCwxOTguMDk1NTIgNzMuMjc3NDg3MywxOTAuNTY2ODczIEM3NC40MjMyNzk0LDE5MS45NTM4ODUgNzUuOTUxNTkzNSwxOTMuMzMzMjEgNzcuOTgxMjY1NiwxOTQuNjEzODAxIEM4MC41NTc4MTk5LDE5Ni4yMzkwNzYgODMuNzA5MDQzOSwxOTcuNTY2OTY1IDg2Ljg1NTUzODEsMTk4LjM1Mzg4NSBDOTguMTk2OTg4NSwyMDEuMTg5Mzk1IDEwOC44MjAxMDIsMjAwLjQ3OTkyNiAxMTcuODgyOTc1LDE5Ni41MDYzMDkgQzExNy45Mzg1NSwxOTguMTE3OTg2IDExNy45ODE3MDksMTk5LjY1ODEyNSAxMTguMDE4MzY1LDIwMC45ODc3ODggQzExOC4wNzg2NywyMDMuMTQ1MTY0IDExOC4xMzc3OTIsMjA1LjI1OTk3MiAxMTguMjE3MDE2LDIwNy4yMzc2MTcgQzExOC43NTM4NDgsMjIwLjYxMjI4NiAxMTkuNjYzNzQxLDIzMS4wMTEzMjYgMTIyLjM1OTcyMywyMzguMjg2OTI4IEMxMjIuNTA3NTI5LDIzOC42ODc3NzggMTIyLjcwNjc3MSwyMzkuMjk3MzMgMTIyLjkxNzI0NywyMzkuOTQzNTM4IEMxMjQuMjYxNjkxLDI0NC4wNjIwMDUgMTI2LjUxMTI5OCwyNTAuOTU1Njc3IDEzMi4yMzI1NzMsMjU2LjM1NTMyNiBDMTM4LjE1ODQxMSwyNjEuOTQ3NzE0IDE0NS4zMjUyMjksMjYzLjY2MzQ0NiAxNTEuODg4OTk4LDI2My42NjI4NTUgQzE1NS4xODA5MzMsMjYzLjY2Mjg1NSAxNTguMzIyMTA2LDI2My4yMzEyNjEgMTYxLjA3NjYxOSwyNjIuNjQwNjI4IEMxNzAuODk3NDQxLDI2MC41MzY0NjIgMTgyLjA1MDI5MSwyNTcuMzI5NjYzIDE5MC4xMTgxMzQsMjQ1Ljg0MjE4IEMxOTcuNzQ1NTE1LDIzNC45ODE5ODYgMjAxLjQ1MzY3MiwyMTguNjI1MTgyIDIwMi4xMjQ3MTEsMTkyLjg1MTM2MyBDMjAyLjIxMTYyMSwxOTIuMTIyOTc1IDIwMi4yOTIwMjgsMTkxLjQyNzEwNCAyMDIuMzY5NDc4LDE5MC43NjM3NTEgQzIwMi40MjE1MDYsMTkwLjMxNjE5NCAyMDIuNDc0NzE2LDE4OS44NTg1ODcgMjAyLjUyODUxNywxODkuNDAyMTYyIEwyMDQuMzI1ODM4LDE4OS41NjAwMTggTDIwNC43ODg3NjcsMTg5LjU5MTM1MyBDMjE0Ljc5MTA5NSwxOTAuMDQ3MTg3IDIyNy4wMjExNTUsMTg3LjkyNTg3NSAyMzQuNTMyMDY1LDE4NC40MzcwNjIgQzI0MC40NjczNjMsMTgxLjY4MjU1IDI1OS40ODU4NTcsMTcxLjY0MjM4MyAyNTUuMDA3OTI2LDE1OC4wODU2MTciPgoKPC9wYXRoPgogICAgICAgIDxwYXRoIGZpbGw9IiMzMzY3OTEiIGQ9Ik0yMzcuOTA1NTg5LDE2MC43MjI0NzYgQzIwOC4xNjU4MzgsMTY2Ljg1NzAxNiAyMDYuMTIxMzg2LDE1Ni43ODc4OCAyMDYuMTIxMzg2LDE1Ni43ODc4OCBDMjM3LjUyMTg4NSwxMTAuMTk0Njk3IDI1MC42NDgyNCw1MS4wNTE2MDI4IDIzOS4zMjAzODgsMzYuNTc2NjY1MSBDMjA4LjQxNzEwOSwtMi45MDgyMzA5NSAxNTQuOTIxOTc3LDE1Ljc2NTU3OTcgMTU0LjAyOTIyOSwxNi4yNTAzODM0IEwxNTMuNzQxODk0LDE2LjMwMTgxOTkgQzE0Ny44NjYzMDksMTUuMDgyMTI0NyAxNDEuMjkwNzE2LDE0LjM1NTUxMDQgMTMzLjkwMDQxNiwxNC4yMzQ5MDA3IEMxMjAuNDQzNTY2LDE0LjAxNDM3NDEgMTEwLjIzNjA4MywxNy43NjI3MzQ0IDEwMi40OTA0NTcsMjMuNjM2NTQ1IEMxMDIuNDkwNDU3LDIzLjYzNjU0NSA3LjA2MDM5NzIzLC0xNS42NzY4OTYxIDExLjQ5ODcxNTksNzMuMDgwNjA5NyBDMTIuNDQyOTAwNyw5MS45NjMxMjI0IDM4LjU2MjU4NjYsMjE1Ljk1NDAzMiA2OS43MTcxMzYzLDE3OC41MDI5NDcgQzgxLjEwNDExMDksMTY0LjgwODQyNSA5Mi4xMDYxOTg2LDE1My4yMjkzMDMgOTIuMTA2MTk4NiwxNTMuMjI5MzAzIEM5Ny41NzA4ODIyLDE1Ni44NTk0MTggMTA0LjExMjc3NiwxNTguNzExMTMyIDExMC45NzA5NzUsMTU4LjA0NjAwNSBMMTExLjUwMzY2NywxNTcuNTkzNzE4IEMxMTEuMzM4MTI1LDE1OS4yOTQwNzkgMTExLjQxMzgwMSwxNjAuOTU3MTkyIDExMS43MTcwOTksMTYyLjkyNTk2OCBDMTAzLjY5MTIzMywxNzEuODkzMDYyIDEwNi4wNDk2MjYsMTczLjQ2NzQ5MiA5MC4wMDU1Nzk3LDE3Ni43NzAwNjkgQzczLjc3MTE1OTQsMTgwLjExNTgwNiA4My4zMDgxOTQsMTg2LjA3MjM4OCA4OS41MzQ5NjU0LDE4Ny42MjkwODEgQzk3LjA4MzcxMzYsMTg5LjUxNjg1OSAxMTQuNTQ3ODgsMTkyLjE5MDk2NSAxMjYuMzQ4MTIsMTc1LjY3MjE2NiBMMTI1Ljg3NzUwNiwxNzcuNTU2OTg4IEMxMjkuMDIyMjI2LDE4MC4wNzU2MDMgMTMxLjIzMDQ0OCwxOTMuOTQwMzk3IDEzMC44NjAzNDIsMjA2LjUwODYzNyBDMTMwLjQ5MDIzNiwyMTkuMDc3NDY5IDEzMC4yNDMxMDQsMjI3LjcwNjM4MyAxMzIuNzIwOTI0LDIzNC40NDYzMzcgQzEzNS4xOTg3NDQsMjQxLjE4NjI5MSAxMzcuNjY4Mjg2LDI1Ni4zNTExODcgMTU4Ljc1OTYxMiwyNTEuODMxODcxIEMxNzYuMzgzNDA5LDI0OC4wNTUxMzIgMTg1LjUxNjA0NiwyMzguMjY4MDA5IDE4Ni43ODY1ODcsMjIxLjk0MjU0IEMxODcuNjg4MjAzLDIxMC4zMzYyMjIgMTg5LjcyODUxNywyMTIuMDUxOTU0IDE4OS44NTc0MDQsMjAxLjY3NTM4MSBMMTkxLjQ5MzkxMiwxOTYuNzYyOTAxIEMxOTMuMzgxMDk5LDE4MS4wMjk4MzggMTkxLjc5MzY2MywxNzUuOTU0MTggMjAyLjY1MTQ5MiwxNzguMzE0OTM4IEwyMDUuMjkwMTI1LDE3OC41NDY2OTcgQzIxMy4yODE3LDE3OC45MTAzIDIyMy43NDEwNDQsMTc3LjI2MTM3NiAyMjkuODc5NzIzLDE3NC40MDgxMjkgQzI0My4wOTgzMDksMTY4LjI3MzU4OSAyNTAuOTM3OTQsMTU4LjAzMTIyNCAyMzcuOTA0NDA2LDE2MC43MjI0NzYgTDIzNy45MDU1ODksMTYwLjcyMjQ3NiI+Cgo8L3BhdGg+CiAgICAgICAgPHBhdGggZmlsbD0iI0ZGRkZGRiIgZD0iTTEwOC4wNzYzNDIsODEuNTI1MDYyNCBDMTA1LjM5NjkxNSw4MS4xNTIgMTAyLjk2OTM0OSw4MS40OTcyNzQ4IDEwMS43NDEzNzYsODIuNDI2Njc5IEMxMDEuMDUwMjM2LDgyLjk0OTkxMjIgMTAwLjgzNjgwNCw4My41NTU5MTY5IDEwMC43Nzk0NTUsODMuOTczMzIxIEMxMDAuNjI1MTQ1LDg1LjA3ODMxODcgMTAxLjM5OTY0OSw4Ni4yOTk3ODc1IDEwMS44NzQ5OTMsODYuOTMwMDMyMyBDMTAzLjIyMDYxOSw4OC43MTM3NTUyIDEwNS4xODcwMyw4OS45Mzk5NTM4IDEwNy4xMzMzMzksOTAuMjEwMTQzMiBDMTA3LjQxNTM1Myw5MC4yNDkxNjQgMTA3LjY5NTU5NCw5MC4yNjgwODMxIDEwNy45NzQ2NTEsOTAuMjY4MDgzMSBDMTExLjIyMDQ3MSw5MC4yNjgwODMxIDExNC4xNzA2NzksODcuNzQxMTkxNyAxMTQuNDMwODE4LDg1Ljg3NTg3OTkgQzExNC43NTU5OTEsODMuNTM5OTUzOCAxMTEuMzY0NzMsODEuOTgyNjY5NyAxMDguMDc2MzQyLDgxLjUyNTA2MjQiPgoKPC9wYXRoPgogICAgICAgIDxwYXRoIGZpbGw9IiNGRkZGRkYiIGQ9Ik0xOTYuODYwNDUzLDgxLjU5ODk2NTQgTDE5Ni44NTk4NjEsODEuNTk4OTY1NCBDMTk2LjYwNDQ1Myw3OS43Njc5NDQ2IDE5My4zNDU2MjYsNzkuMjQ1ODkzOCAxOTAuMjUzNTI0LDc5LjY3NTcxMzYgQzE4Ny4xNjYxNTIsODAuMTA2MTI0NyAxODQuMTcxNjAzLDgxLjQ5OTYzOTcgMTg0LjQyMTY5MSw4My4zMzQ3OTkxIEMxODQuNjIyNzA3LDg0Ljc2MjAxMzkgMTg3LjE5ODY3LDg3LjE5ODQ0OCAxOTAuMjQ5Mzg2LDg3LjE5Nzg1NjggQzE5MC41MDY1NjgsODcuMTk3ODU2OCAxOTAuNzY2NzA3LDg3LjE4MDcxMTMgMTkxLjAyODYxOSw4Ny4xNDQwNTU0IEMxOTMuMDY0Nzk0LDg2Ljg2MjA0MTYgMTk0LjU1ODgxOCw4NS41NjkwMzQ2IDE5NS4yNjgyODYsODQuODIzNTAxMiBDMTk2LjM0OTYzNSw4My42ODgzNTEgMTk2Ljk3NDU1OSw4Mi40MjE5NDkyIDE5Ni44NjA0NTMsODEuNTk4OTY1NCI+Cgo8L3BhdGg+CiAgICAgICAgPHBhdGggZmlsbD0iI0ZGRkZGRiIgZD0iTTI0Ny44MDIwODgsMTYwLjAyNTQyMyBDMjQ2LjY2ODEyLDE1Ni41OTYzMjMgMjQzLjAxODQ5NCwxNTUuNDkyNTA4IDIzNi45NTQzMDksMTU2Ljc0NTMxMiBDMjE4Ljk0OTE3MywxNjAuNDYxMTU1IDIxMi41MDEyODQsMTU3Ljg4Njk2NSAyMTAuMzgzNTIsMTU2LjMyNzkwOCBDMjI0LjM3ODk3NSwxMzUuMDA3MTg3IDIzNS44OTE4OCwxMDkuMjM2MzIzIDI0Mi4xMDI2ODgsODUuMTkwNjUxMyBDMjQ1LjA0NTIxLDczLjgwMDcyMDYgMjQ2LjY3MDQ4NSw2My4yMjMxMzE2IDI0Ni44MDI5MTksNTQuNjAxOTAzIEMyNDYuOTQ5NTQzLDQ1LjEzNzU4ODkgMjQ1LjMzODQ1NywzOC4xODQyMDMyIDI0Mi4wMTQwMDUsMzMuOTM2MjU4NyBDMjI4LjYxMTU0NywxNi44MTA4NjM3IDIwOC45NDIxMTUsNy42MjUwMTYxNyAxODUuMTMxNzUxLDcuMzcyNTYzNTEgQzE2OC43NjMxMjIsNy4xODg2OTI4NCAxNTQuOTMzMjEsMTEuMzc4MTA2MiAxNTIuMjUyMDA5LDEyLjU1NTgyNDUgQzE0Ni42MDU4MiwxMS4xNTE2Njc0IDE0MC40NTA1ODcsMTAuMjg5NjYyOCAxMzMuNzUwMjQ1LDEwLjE3OTY5NTIgQzEyMS40NjE2NTQsOS45ODEwNDM4OCAxMTAuODQwMzE0LDEyLjkyMjk3NDYgMTAyLjA0NTg1NywxOC45MTkxNjg2IEM5OC4yMjU5NTg0LDE3LjQ5Nzg2NjEgODguMzUzNjk5OCwxNC4xMDg5NyA3Ni4yODE0OTY1LDEyLjE2NDQzNDIgQzU1LjQwODkyMzgsOC44MDMzMjU2NCAzOC44MjMzMTY0LDExLjM0OTcyNzUgMjYuOTg3MDExNSwxOS43MzUwNTc3IEMxMi44NjM4NTIyLDI5Ljc0MDkzMyA2LjM0MzgzMzcyLDQ3LjYyNjY0MiA3LjYwNzI3OTQ1LDcyLjg5NDM3NDEgQzguMDMyMzY5NTIsODEuMzk2MTc1NSAxMi44NzU2NzY3LDEwNy41NDc3ODggMjAuNTIwMjAzMiwxMzIuNTkzMjE5IEMzMC41ODIyNDQ4LDE2NS41NTY5MTUgNDEuNTE5Mjk3OSwxODQuMjE4MzA5IDUzLjAyODA2NDcsMTg4LjA1NjUzNiBDNTQuMzc0ODczLDE4OC41MDU4NjYgNTUuOTI4NjA5NywxODguODIwMzk3IDU3LjY0MDc5NDUsMTg4LjgyMDM5NyBDNjEuODM5MDc2MiwxODguODIwMzk3IDY2Ljk4NTY4MTMsMTg2LjkyNzg4OSA3Mi4zNDA5ODg1LDE4MC40OTAwNTEgQzgxLjIzNTk1MzgsMTY5Ljc4ODg5NiA4OS41NDA4Nzc2LDE2MC44MjE4MDEgOTIuNjAyMjM1NiwxNTcuNTYzNTY2IEM5Ny4xMjYyODE4LDE1OS45OTIzMTQgMTAyLjA5NTUyLDE2MS4zNDc5OTEgMTA3LjE3OTQ1NSwxNjEuNDgzOTcyIEMxMDcuMTg4MzIzLDE2MS42MTY5OTggMTA3LjIwMTkyMSwxNjEuNzUwMDIzIDEwNy4yMTM3NDYsMTYxLjg4MjQ1NyBDMTA2LjE5Mzg4NSwxNjMuMDkyMTAyIDEwNS4zNTczMDMsMTY0LjE1MjE2NiAxMDQuNjQ0Mjg2LDE2NS4wNTczMyBDMTAxLjEyMjM2NSwxNjkuNTI4MTY2IDEwMC4zODkyNDcsMTcwLjQ1ODc1MyA4OS4wNTE5MzUzLDE3Mi43OTM0OTcgQzg1LjgyNzM5OTUsMTczLjQ1ODYyNCA3Ny4yNjExNTQ3LDE3NS4yMjQwMTggNzcuMTM2NDA2NSwxODEuMjI3ODk4IEM3Ni45OTk4MzM3LDE4Ny43ODc1MjkgODcuMjYwNTI2NiwxOTAuNTQyNjMzIDg4LjQyOTk2NzcsMTkwLjgzNDY5NyBDOTIuNTA0MDkyNCwxOTEuODU0NTU5IDk2LjQyODYzNzQsMTkyLjM1NzY5MSAxMDAuMTcxNjc3LDE5Mi4zNTc2OTEgQzEwOS4yNzUzNDQsMTkyLjM1NzA5OSAxMTcuMjg1ODM4LDE4OS4zNjU1MDYgMTIzLjY4ODIwMywxODMuNTc2ODMxIEMxMjMuNDkwNzM0LDIwNi45NjI2OTcgMTI0LjQ2NjI1NCwyMzAuMDA2ODM2IDEyNy4yNzM5NzcsMjM3LjAyODIxMiBDMTI5LjU3MzI0NywyNDIuNzc1NTAxIDEzNS4xOTE2NDksMjU2LjgyMjk4NCAxNTIuOTM4NDIsMjU2LjgyMTgwMSBDMTU1LjU0MTU4LDI1Ni44MjE4MDEgMTU4LjQwODQyNSwyNTYuNTE5MDk1IDE2MS41NjE0MjMsMjU1Ljg0MzMyNiBDMTgwLjA4MjEwNiwyNTEuODcyMDc0IDE4OC4xMjQ1MjcsMjQzLjY4NjU3NyAxOTEuMjM2MTM5LDIyNS42NDAwNTUgQzE5Mi45MDEwMjUsMjE1Ljk5NTQxOCAxOTUuNzU4NDExLDE5Mi45NjM2OTUgMTk3LjEwMTY3MiwxODAuNjEwMDY5IEMxOTkuOTM3Nzc0LDE4MS40OTQ1NCAyMDMuNTg5MTczLDE4MS44OTk1MjkgMjA3LjUzNjE4NSwxODEuODk4OTM4IEMyMTUuNzY4Mzg4LDE4MS44OTg5MzggMjI1LjI2Njk5MywxODAuMTUwMDk3IDIzMS4yMjQxNjYsMTc3LjM4NDk0MiBDMjM3LjkxNTY0LDE3NC4yNzc0NjkgMjQ5Ljk5MTk4MiwxNjYuNjUwNjc5IDI0Ny44MDIwODgsMTYwLjAyNTQyMyBMMjQ3LjgwMjA4OCwxNjAuMDI1NDIzIFogTTIwMy42OTYxODUsNzYuNTQ0NTkxMiBDMjAzLjYzNDY5Nyw4MC4xOTE4NTIyIDIwMy4xMzI3NDgsODMuNTAyNzA2NyAyMDIuNjAwNjQ3LDg2Ljk1OTAwMjMgQzIwMi4wMjgzNDIsOTAuNjc2MDI3NyAyMDEuNDM1OTM1LDk0LjUxODk4MzggMjAxLjI4Njk0Nyw5OS4xODQzMzI2IEMyMDEuMTM5NzMyLDEwMy43MjQzNDIgMjAxLjcwNjcxNiwxMDguNDQ0Njc0IDIwMi4yNTUzNzIsMTEzLjAwODkyNCBDMjAzLjM2MzMyNiwxMjIuMjI4NDcxIDIwNC41MDAyNDksMTMxLjcyMDU3MyAyMDAuMDk4NTg3LDE0MS4wODY3NDQgQzE5OS40MTQ1NCwxMzkuODcxNzc4IDE5OC43NTQxNDMsMTM4LjU0NjI1NCAxOTguMTQ4NzMsMTM3LjA3ODI0NSBDMTk3LjYwMTg0OCwxMzUuNzUyMTI5IDE5Ni40MTQwNzksMTMzLjYyMTk0OSAxOTQuNzY5ODg1LDEzMC42NzM1MTUgQzE4OC4zNzA0NzYsMTE5LjE5Nzg1NyAxNzMuMzg1MzEyLDkyLjMyNDM2MDMgMTgxLjA1NjQ0Myw4MS4zNTgzMzcyIEMxODMuMzQwOTMzLDc4LjA5MzU5ODIgMTg5LjEzOTY1OCw3NC43Mzg0MDE4IDIwMy42OTYxODUsNzYuNTQ0NTkxMiBMMjAzLjY5NjE4NSw3Ni41NDQ1OTEyIFogTTE4Ni4wNTIyODYsMTQuNzU4MTMzOSBDMjA3LjM4NjAxNCwxNS4yMjkzMzk1IDIyNC4yNjEzMjEsMjMuMjEwMjcyNSAyMzYuMjA5OTU4LDM4LjQ3ODA0MTYgQzI0NS4zNzM5MzEsNTAuMTg5MDA2OSAyMzUuMjgyOTE5LDEwMy40NzYwMjggMjA2LjA2OTk0OSwxNDkuNDQ2NjUxIEMyMDUuNzgxNDMyLDE0OS4wODAwOTIgMjA1LjQ4NzU5NCwxNDguNzA5OTg2IDIwNS4xODM3MDQsMTQ4LjMzMDQyIEMyMDUuMDYyNTAzLDE0OC4xNzg0NzYgMjA0LjkzODkzOCwxNDguMDI0MTY2IDIwNC44MTQxODksMTQ3Ljg2ODA4MyBDMjEyLjM2MjkzOCwxMzUuNDAwOTQyIDIxMC44ODY2NTEsMTIzLjA2NjIzNiAyMDkuNTcyOTUyLDExMi4xMjk3NzQgQzIwOS4wMzMxNjQsMTA3LjY0MTc5MiAyMDguNTIzNTI5LDEwMy40MDI3MTYgMjA4LjY1MzAwNyw5OS40MjE0MTM0IEMyMDguNzg3MjE1LDk1LjIwMDA3MzkgMjA5LjM0NTMzLDkxLjU4MTE5MTcgMjA5Ljg4NDUyNyw4OC4wODExNDU1IEMyMTAuNTQ4NDcxLDgzLjc2NzU3NTEgMjExLjIyMzA1OCw3OS4zMDUwMTYyIDIxMS4wMzY4MjIsNzQuMDQzNzEzNiBDMjExLjE3NTc2LDczLjQ5MjEwMTYgMjExLjIzMTkyNiw3Mi44Mzk5ODE1IDIxMS4xNTkyMDYsNzIuMDY2MDY5MyBDMjEwLjY4Mzg2MSw2Ny4wMjA1NjM1IDIwNC45MjQxNTcsNTEuOTIyNDc1OCAxOTMuMTgzNjMsMzguMjU1MTUwMSBDMTg2Ljc2MjM0NiwzMC43ODA4OTYxIDE3Ny4zOTY3NjcsMjIuNDE1NjY3NCAxNjQuNjA5Nzc0LDE2Ljc3MzYxNjYgQzE3MC4xMDk5MzEsMTUuNjMzNzM2NyAxNzcuNjMxNDgzLDE0LjU3MDcxNTkgMTg2LjA1MjI4NiwxNC43NTgxMzM5IEwxODYuMDUyMjg2LDE0Ljc1ODEzMzkgWiBNNjYuNjc0MTA2MiwxNzUuNzc3OTk1IEM2MC43NzQyODE4LDE4Mi44NzE1MDEgNTYuNjk5NTY1OCwxODEuNTEyMjc3IDU1LjM1OTg1MjIsMTgxLjA2NTkwMyBDNDYuNjI5MjQ3MSwxNzguMTUzNTMzIDM2LjQ5OTgwNiwxNTkuNzAyMDIzIDI3LjU2ODc3NiwxMzAuNDQxNzU1IEMxOS44NDA4ODY4LDEwNS4xMjM3NjkgMTUuMzI0NTI2Niw3OS42NjUwNzE2IDE0Ljk2NzQyNzMsNzIuNTI2MDQxNiBDMTMuODM4NzgwNiw0OS45NDgzNzg4IDE5LjMxMTc0MTMsMzQuMjEyOTUxNSAzMS4yMzQ5NTYxLDI1Ljc1NzI2NTYgQzUwLjYzODkyODQsMTEuOTk2NTI2NiA4Mi41NDEzNzY0LDIwLjIzMjg2ODQgOTUuMzYwMjk1NiwyNC40MTA0NTczIEM5NS4xNzU4MzM3LDI0LjU5MTk2MyA5NC45ODQyNzcxLDI0Ljc2MjIzNTYgOTQuODAxNTg4OSwyNC45NDY2OTc1IEM3My43NjY0Mjk2LDQ2LjE5MTE1MDEgNzQuMjY1NDIyNiw4Mi40ODc1NzUxIDc0LjMxNjg1OTEsODQuNzA1ODQ3NiBDNzQuMzE1MDg1NSw4NS41NjE5NCA3NC4zODY2MjM2LDg2Ljc3Mzk0OTIgNzQuNDg1MzU4LDg4LjQ0MTIwMDkgQzc0Ljg0NzE4NzEsOTQuNTQ1NTg4OSA3NS41MjA1OTEyLDEwNS45MDc3MzIgNzMuNzIxNDk2NSwxMTguNzc1MTMyIEM3Mi4wNDg5MjM4LDEzMC43MzIwNDYgNzUuNzM0NjE0MywxNDIuNDM1MzI2IDgzLjgzMjAxODUsMTUwLjg4MzkxNyBDODQuNjcwMzc0MSwxNTEuNzU4MzM3IDg1LjU0NTM4NTcsMTUyLjU3OTU0NyA4Ni40NDkzNjcyLDE1My4zNTIyNzcgQzgyLjg0NDY3NDQsMTU3LjIxMjM3OSA3NS4wMTE1NDczLDE2NS43NDc4OCA2Ni42NzQxMDYyLDE3NS43Nzc5OTUgTDY2LjY3NDEwNjIsMTc1Ljc3Nzk5NSBaIE04OS4xNTMwMzQ2LDE0NS43ODQ2MSBDODIuNjI2NTEyNywxMzguOTc1NDgzIDc5LjY2MjcwNjcsMTI5LjUwMzQ4MyA4MS4wMjAxNTcsMTE5Ljc5NTU4NCBDODIuOTIwMzUxLDEwNi4yMDI3NTMgODIuMjE4NTY4MSw5NC4zNjQ2NzQ0IDgxLjg0MTk1ODQsODguMDA0ODc3NiBDODEuNzg5MzM5NSw4Ny4xMTUwODU1IDgxLjc0MjYzMjgsODYuMzM1MjYxIDgxLjcxNDg0NTMsODUuNzE5Nzk2OCBDODQuNzg4MDI3Nyw4Mi45OTU0MzY1IDk5LjAyODg0MDYsNzUuMzY0NTA4MSAxMDkuMTg0Mjk2LDc3LjY5MTU2NTggQzExMy44MTk0OTIsNzguNzUzNDA0MiAxMTYuNjQyNTg3LDgxLjkwODc2NjcgMTE3LjgxNjc1OCw4Ny4zMzczODU3IEMxMjMuODkzMzU4LDExNS40NDAwMzcgMTE4LjYyMTQxMywxMjcuMTUzMzY3IDExNC4zODUyOTMsMTM2LjU2NTY1NCBDMTEzLjUxMjA1NSwxMzguNTA0ODY4IDExMi42ODcyOTgsMTQwLjMzNzY2MyAxMTEuOTgyNTU5LDE0Mi4yMzQzMDkgTDExMS40MzY4NTksMTQzLjY5OTk1NCBDMTEwLjA1NDU3NywxNDcuNDA2MzM3IDEwOC43Njg2NjUsMTUwLjg1MTk5MSAxMDcuOTcxNjk1LDE1NC4xMjQ0MTYgQzEwMS4wMzQyNzMsMTU0LjEwMzEzMiA5NC4yODQ4NTkxLDE1MS4xMzk5MTcgODkuMTUzMDM0NiwxNDUuNzg0NjEgTDg5LjE1MzAzNDYsMTQ1Ljc4NDYxIFogTTkwLjIxNzgyOTEsMTgzLjY4NTAyNSBDODguMTkyMjk1NiwxODMuMTc4OTM4IDg2LjM3MDE0MzIsMTgyLjI5OTc4OCA4NS4zMDEyMTAyLDE4MS41NzA4MDggQzg2LjE5Mzk1ODQsMTgxLjE1MDQ0OCA4Ny43ODMxNjg2LDE4MC41NzkzMjYgOTAuNTM4ODYzNywxODAuMDExNzUxIEMxMDMuODc2Mjg2LDE3Ny4yNjU1MTUgMTA1LjkzNTUyLDE3NS4zMjgwNzQgMTEwLjQzMzU1MiwxNjkuNjE2ODUgQzExMS40NjUyMzgsMTY4LjMwNzg4IDExMi42MzQwODgsMTY2LjgyMzMxNiAxMTQuMjUyODU5LDE2NS4wMTUzNTMgQzExNC4yNTM0NSwxNjUuMDE0MTcxIDExNC4yNTQwNDIsMTY1LjAxMzU4IDExNC4yNTQ2MzMsMTY1LjAxMjk4OCBDMTE2LjY2NjIzNiwxNjIuMzEzNDYgMTE3Ljc2ODg2OCwxNjIuNzcxMDY3IDExOS43Njg5NzksMTYzLjYwMDU1NCBDMTIxLjM5MDExNSwxNjQuMjcxNTk0IDEyMi45Njg2ODQsMTY2LjMwMzAzOSAxMjMuNjA4OTc5LDE2OC41MzkwNDggQzEyMy45MTE2ODYsMTY5LjU5NDk3NSAxMjQuMjUyMjMxLDE3MS41OTk4MTUgMTIzLjEzODk1NiwxNzMuMTU4ODczIEMxMTMuNzQyNjMzLDE4Ni4zMTQ3OSAxMDAuMDUxMDY3LDE4Ni4xNDU3IDkwLjIxNzgyOTEsMTgzLjY4NTAyNSBMOTAuMjE3ODI5MSwxODMuNjg1MDI1IFogTTE2MC4wMTY1NTQsMjQ4LjYzNzQ4NyBDMTQzLjcwMDU0NSwyNTIuMTMzMzk1IDEzNy45MjM2OTUsMjQzLjgwODM3IDEzNC4xMTY4MDQsMjM0LjI5MTQzNiBDMTMxLjY1OTY3NywyMjguMTQ2ODQ1IDEzMC40NTIzOTcsMjAwLjQ0MDMxNCAxMzEuMzA5MDgxLDE2OS44NDM4OCBDMTMxLjMyMDMxNCwxNjkuNDM2NTI3IDEzMS4yNjIzNzQsMTY5LjA0MzM2MyAxMzEuMTUwMDQyLDE2OC42NzM4NDggQzEzMS4wNTI0OSwxNjcuOTYwMjQgMTMwLjkwMjMxOSwxNjcuMjM4MzU2IDEzMC42OTQyMDgsMTY2LjUxMTc0MSBDMTI5LjQxOTUyOSwxNjIuMDU5ODI0IDEyNi4zMTUwMTIsMTU4LjMzNTcwNCAxMjIuNTkwMywxNTYuNzkyMDE4IEMxMjEuMTEwNDY3LDE1Ni4xNzg5MTkgMTE4LjM5Mzc5MiwxNTUuMDUzODIgMTE1LjEyOTY0NCwxNTUuODg4NjI4IEMxMTUuODI2MTA2LDE1My4wMjA2IDExNy4wMzMzODYsMTQ5Ljc4MjQ2NyAxMTguMzQxNzY0LDE0Ni4yNzUzMjYgTDExOC44OTEwMTIsMTQ0Ljc5OTYzIEMxMTkuNTA5NDMyLDE0My4xMzY1MTcgMTIwLjI4NDUyNywxNDEuNDEzNjkxIDEyMS4xMDUxNDUsMTM5LjU5MDM1NiBDMTI1LjUzODE0MywxMjkuNzQxNzQ2IDEzMS42MDk0MjMsMTE2LjI1Mjk3IDEyNS4wMjAyMzEsODUuNzc5NTEwNCBDMTIyLjU1MTg3MSw3NC4zNjU5MzA3IDExNC4zMTAyMDgsNjguNzkyNDYxOSAxMDEuODE1ODcxLDcwLjA4NjY1MTMgQzk0LjMyNTA2MjQsNzAuODYxNzQ2IDg3LjQ3Mjc3Niw3My44ODQwODMxIDg0LjA1NDkwOTksNzUuNjE2OTYwNyBDODMuMzIwMDE4NSw3NS45ODk0MzE5IDgyLjY0Nzc5NjgsNzYuMzQ4ODk2MSA4Mi4wMTk5MTY5LDc2LjY5OTQ5MTkgQzgyLjk3MzU2MTIsNjUuMTk5MDAyMyA4Ni41NzgyNTQsNDMuNzA3NDE4IDEwMC4wNjA1MjcsMzAuMTA5ODU2OCBDMTA4LjU0ODczLDIxLjU0ODkzMyAxMTkuODU0MTE1LDE3LjMyMTA5MDEgMTMzLjYyODQ1MywxNy41NDg3MTEzIEMxNjAuNzY4NTkxLDE3Ljk5MzMxMTggMTc4LjE3MjQ1MywzMS45MjEzNjcyIDE4Ny45OTQ0NTcsNDMuNTI3Njg1OSBDMTk2LjQ1NzgyOSw1My41Mjk0MjI2IDIwMS4wNDA5OTgsNjMuNjAzODc5OSAyMDIuODcwMjQ1LDY5LjAzNzIyODYgQzE4OS4xMTU0MTgsNjcuNjM4OTgzOCAxNzkuNzYwNDgsNzAuMzU0NDc1OCAxNzUuMDE3NjgxLDc3LjEzNDA0MTYgQzE2NC43MDA4MjIsOTEuODgxNTMzNSAxODAuNjYyMDk3LDEyMC41MDYyMzYgMTg4LjMzMzIyOSwxMzQuMjYyODM2IEMxODkuNzM5NzUxLDEzNi43ODQ0MDYgMTkwLjk1NDEyNSwxMzguOTYzMDY3IDE5MS4zMzYwNTUsMTM5Ljg4ODkyNCBDMTkzLjgzMzk3NywxNDUuOTQzMDU4IDE5Ny4wNjc5NzIsMTQ5Ljk4NDY2NSAxOTkuNDI5MzIxLDE1Mi45MzU0NjQgQzIwMC4xNTI5NzksMTUzLjgzOTQ0NiAyMDAuODU1MzUzLDE1NC43MTYyMzEgMjAxLjM4OTIyOSwxNTUuNDgxODY2IEMxOTcuMjIzNDY0LDE1Ni42ODMyMzMgMTg5Ljc0MDM0MiwxNTkuNDU3ODQ4IDE5MC40MjIwMjMsMTczLjMyODU1NCBDMTg5Ljg3MjE4NSwxODAuMjg5MDM1IDE4NS45NjA2NDcsMjEyLjg3NDkzOCAxODMuOTc0MTM0LDIyNC4zODc4NDMgQzE4MS4zNTE0NjQsMjM5LjU5NzY3MiAxNzUuNzU0MzQ2LDI0NS4yNjMzNzIgMTYwLjAxNjU1NCwyNDguNjM3NDg3IEwxNjAuMDE2NTU0LDI0OC42Mzc0ODcgWiBNMjI4LjEyMDgzMSwxNzAuNzAwNTY0IEMyMjMuODYxMDYyLDE3Mi42NzgyMDggMjE2LjczMjA4MywxNzQuMTYxNTg5IDIwOS45NTk2MTIsMTc0LjQ3OTY2NyBDMjAyLjQ3OTQ0NiwxNzQuODMwMjYzIDE5OC42NzE5NjMsMTczLjY0MTkwMyAxOTcuNzc2MjU5LDE3Mi45MTExNSBDMTk3LjM1NTMwNywxNjQuMjY3NDU1IDIwMC41NzMzMzksMTYzLjM2NDA2NSAyMDMuOTc4MTk5LDE2Mi40MDgwNTUgQzIwNC41MTMyNTYsMTYyLjI1NzI5MyAyMDUuMDM1MzA3LDE2Mi4xMTEyNjEgMjA1LjUzOTAzLDE2MS45MzUwNzYgQzIwNS44NTIzNzksMTYyLjE4OTg5NCAyMDYuMTk1Mjg5LDE2Mi40NDI5MzggMjA2LjU3MDcxNiwxNjIuNjkwNjYxIEMyMTIuNTgyODczLDE2Ni42NTg5NTYgMjIzLjMwNjQ5NCwxNjcuMDg3MDAyIDIzOC40NDQ3ODUsMTYzLjk2MjM4MyBDMjM4LjUwMDM2LDE2My45NTA1NTkgMjM4LjU1NTkzNSwxNjMuOTM5OTE3IDIzOC42MTA5MTksMTYzLjkyODY4NCBDMjM2LjU2OTQyMywxNjUuODM3NzQ2IDIzMy4wNzUyODksMTY4LjQwMDExMSAyMjguMTIwODMxLDE3MC43MDA1NjQgTDIyOC4xMjA4MzEsMTcwLjcwMDU2NCBaIj4KCjwvcGF0aD4KICAgIDwvZz4KPC9zdmc+;opacity=40;" vertex="1" parent="1">
                    <mxGeometry x="460" y="660" width="33.5" height="34.57" as="geometry"/>
                </mxCell>
                <mxCell id="18" value="" style="shape=image;verticalLabelPosition=bottom;labelBackgroundColor=default;verticalAlign=top;aspect=fixed;imageAspect=0;image=data:image/svg+xml,PHN2ZyB4bWxuczp4bGluaz0iaHR0cDovL3d3dy53My5vcmcvMTk5OS94bGluayIgeG1sbnM9Imh0dHA6Ly93d3cudzMub3JnLzIwMDAvc3ZnIiBwcmVzZXJ2ZUFzcGVjdFJhdGlvPSJ4TWlkWU1pZCIgdmVyc2lvbj0iMS4xIiB2aWV3Qm94PSIwLjI5NzM2MTM3MzkwMTM2NzIgMC4zNjQzNzc4ODYwNTY5IDI1NS4zODY0MTM1NzQyMTg3NSAyNjMuMjk4NDYxOTE0MDYyNSIgaGVpZ2h0PSI3OTcuODc0MTI3MDEyMzEwNiIgd2lkdGg9Ijc3My44OTgyMjI5NTIxNzgiPgogICAgPGc+CiAgICAgICAgPHBhdGggZmlsbD0iIzAwMDAwMCIgZD0iTTI1NS4wMDc5MjYsMTU4LjA4NTYxNyBDMjUzLjQ3MzEwOSwxNTMuNDM3NDEzIDI0OS40NTIxOTQsMTUwLjE5OTI3OSAyNDQuMjUxNzg4LDE0OS40MjE4MiBDMjQxLjc5OTk4MiwxNDkuMDU1ODUyIDIzOC45OTE2NjcsMTQ5LjIxMTkzNSAyMzUuNjY4OTg4LDE0OS44OTcxNjQgQzIyOS44NzczNTgsMTUxLjA5MjAyOCAyMjUuNTgwMzQyLDE1MS41NDY2NzkgMjIyLjQ0NDQ5LDE1MS42MzUzNjMgQzIzNC4yODA3OTQsMTMxLjY1MDIxNyAyNDMuOTA1OTIxLDEwOC44NTk3MTQgMjQ5LjQ0Njg3Myw4Ny40MDY1NTg5IEMyNTguNDA2MjgyLDUyLjcxODI2MzMgMjUzLjYxODU1LDM2LjkxNTQzNjUgMjQ4LjAyMzc5NywyOS43NjY5NDY5IEMyMzMuMjE3MTgyLDEwLjg0Nzc3ODMgMjExLjYxNDQ0OCwwLjY4MzQ1NDk2NSAxODUuNTUxNTIsMC4zNzE4Nzk5MDggQzE3MS42NDk0NzgsMC4yMDIxOTg2MTQgMTU5LjQ0MzY1OCwyLjk0NzI1MTczIDE1My4wNzczNTgsNC45MjA3NTc1MSBDMTQ3LjE0OTE1NSwzLjg3NTQ3MzQ0IDE0MC43NzQ1NzcsMy4yOTEzNDQxMSAxMzQuMDg2MDYsMy4xODMxNTAxMiBDMTIxLjU1MDMzNywyLjk4MzMxNjQgMTEwLjQ3MzE2NCw1LjcxNTk1MzgxIDEwMS4wMDgyNTksMTEuMzMyNTgyIEM5NS43NjcwNTc3LDkuNTYxMjc0ODMgODcuMzU4MDc4NSw3LjA2MzM1MzM1IDc3LjY0NjA0MTYsNS40Njg4MjIxNyBDNTQuODAzNTEwNCwxLjcxODY4ODIyIDM2LjM5Mzk3NjksNC42NDExMDg1NSAyMi45MjgyNTg3LDE0LjE1MzkwMyBDNi42MjIzMDAyMywyNS42NzIxMjkzIC0wLjkzNzA5MDA2OSw0NS42ODM4Nzk5IDAuNDYxMTU0NzM0LDczLjYzMzk5NTQgQzAuOTA0NTcyNzQ4LDgyLjUwODI2NzkgNS44NjkwODA4MywxMDkuNTA3Njk1IDEzLjY4NTA2MjQsMTM1LjExNDE5OSBDMTguMTc3MTgyNCwxNDkuODMxNTM4IDIyLjk2NzI3OTQsMTYyLjA1MzkxMiAyNy45MjIzMjc5LDE3MS40NDM3MzIgQzM0Ljk0OTAyNTQsMTg0Ljc1ODY4OCA0Mi40Njc2MjEyLDE5Mi42MDAwOTIgNTAuOTA4NTI2NiwxOTUuNDE1NTAxIEM1NS42NDAwOTI0LDE5Ni45OTIyOTYgNjQuMjM1ODk4NCwxOTguMDk1NTIgNzMuMjc3NDg3MywxOTAuNTY2ODczIEM3NC40MjMyNzk0LDE5MS45NTM4ODUgNzUuOTUxNTkzNSwxOTMuMzMzMjEgNzcuOTgxMjY1NiwxOTQuNjEzODAxIEM4MC41NTc4MTk5LDE5Ni4yMzkwNzYgODMuNzA5MDQzOSwxOTcuNTY2OTY1IDg2Ljg1NTUzODEsMTk4LjM1Mzg4NSBDOTguMTk2OTg4NSwyMDEuMTg5Mzk1IDEwOC44MjAxMDIsMjAwLjQ3OTkyNiAxMTcuODgyOTc1LDE5Ni41MDYzMDkgQzExNy45Mzg1NSwxOTguMTE3OTg2IDExNy45ODE3MDksMTk5LjY1ODEyNSAxMTguMDE4MzY1LDIwMC45ODc3ODggQzExOC4wNzg2NywyMDMuMTQ1MTY0IDExOC4xMzc3OTIsMjA1LjI1OTk3MiAxMTguMjE3MDE2LDIwNy4yMzc2MTcgQzExOC43NTM4NDgsMjIwLjYxMjI4NiAxMTkuNjYzNzQxLDIzMS4wMTEzMjYgMTIyLjM1OTcyMywyMzguMjg2OTI4IEMxMjIuNTA3NTI5LDIzOC42ODc3NzggMTIyLjcwNjc3MSwyMzkuMjk3MzMgMTIyLjkxNzI0NywyMzkuOTQzNTM4IEMxMjQuMjYxNjkxLDI0NC4wNjIwMDUgMTI2LjUxMTI5OCwyNTAuOTU1Njc3IDEzMi4yMzI1NzMsMjU2LjM1NTMyNiBDMTM4LjE1ODQxMSwyNjEuOTQ3NzE0IDE0NS4zMjUyMjksMjYzLjY2MzQ0NiAxNTEuODg4OTk4LDI2My42NjI4NTUgQzE1NS4xODA5MzMsMjYzLjY2Mjg1NSAxNTguMzIyMTA2LDI2My4yMzEyNjEgMTYxLjA3NjYxOSwyNjIuNjQwNjI4IEMxNzAuODk3NDQxLDI2MC41MzY0NjIgMTgyLjA1MDI5MSwyNTcuMzI5NjYzIDE5MC4xMTgxMzQsMjQ1Ljg0MjE4IEMxOTcuNzQ1NTE1LDIzNC45ODE5ODYgMjAxLjQ1MzY3MiwyMTguNjI1MTgyIDIwMi4xMjQ3MTEsMTkyLjg1MTM2MyBDMjAyLjIxMTYyMSwxOTIuMTIyOTc1IDIwMi4yOTIwMjgsMTkxLjQyNzEwNCAyMDIuMzY5NDc4LDE5MC43NjM3NTEgQzIwMi40MjE1MDYsMTkwLjMxNjE5NCAyMDIuNDc0NzE2LDE4OS44NTg1ODcgMjAyLjUyODUxNywxODkuNDAyMTYyIEwyMDQuMzI1ODM4LDE4OS41NjAwMTggTDIwNC43ODg3NjcsMTg5LjU5MTM1MyBDMjE0Ljc5MTA5NSwxOTAuMDQ3MTg3IDIyNy4wMjExNTUsMTg3LjkyNTg3NSAyMzQuNTMyMDY1LDE4NC40MzcwNjIgQzI0MC40NjczNjMsMTgxLjY4MjU1IDI1OS40ODU4NTcsMTcxLjY0MjM4MyAyNTUuMDA3OTI2LDE1OC4wODU2MTciPgoKPC9wYXRoPgogICAgICAgIDxwYXRoIGZpbGw9IiMzMzY3OTEiIGQ9Ik0yMzcuOTA1NTg5LDE2MC43MjI0NzYgQzIwOC4xNjU4MzgsMTY2Ljg1NzAxNiAyMDYuMTIxMzg2LDE1Ni43ODc4OCAyMDYuMTIxMzg2LDE1Ni43ODc4OCBDMjM3LjUyMTg4NSwxMTAuMTk0Njk3IDI1MC42NDgyNCw1MS4wNTE2MDI4IDIzOS4zMjAzODgsMzYuNTc2NjY1MSBDMjA4LjQxNzEwOSwtMi45MDgyMzA5NSAxNTQuOTIxOTc3LDE1Ljc2NTU3OTcgMTU0LjAyOTIyOSwxNi4yNTAzODM0IEwxNTMuNzQxODk0LDE2LjMwMTgxOTkgQzE0Ny44NjYzMDksMTUuMDgyMTI0NyAxNDEuMjkwNzE2LDE0LjM1NTUxMDQgMTMzLjkwMDQxNiwxNC4yMzQ5MDA3IEMxMjAuNDQzNTY2LDE0LjAxNDM3NDEgMTEwLjIzNjA4MywxNy43NjI3MzQ0IDEwMi40OTA0NTcsMjMuNjM2NTQ1IEMxMDIuNDkwNDU3LDIzLjYzNjU0NSA3LjA2MDM5NzIzLC0xNS42NzY4OTYxIDExLjQ5ODcxNTksNzMuMDgwNjA5NyBDMTIuNDQyOTAwNyw5MS45NjMxMjI0IDM4LjU2MjU4NjYsMjE1Ljk1NDAzMiA2OS43MTcxMzYzLDE3OC41MDI5NDcgQzgxLjEwNDExMDksMTY0LjgwODQyNSA5Mi4xMDYxOTg2LDE1My4yMjkzMDMgOTIuMTA2MTk4NiwxNTMuMjI5MzAzIEM5Ny41NzA4ODIyLDE1Ni44NTk0MTggMTA0LjExMjc3NiwxNTguNzExMTMyIDExMC45NzA5NzUsMTU4LjA0NjAwNSBMMTExLjUwMzY2NywxNTcuNTkzNzE4IEMxMTEuMzM4MTI1LDE1OS4yOTQwNzkgMTExLjQxMzgwMSwxNjAuOTU3MTkyIDExMS43MTcwOTksMTYyLjkyNTk2OCBDMTAzLjY5MTIzMywxNzEuODkzMDYyIDEwNi4wNDk2MjYsMTczLjQ2NzQ5MiA5MC4wMDU1Nzk3LDE3Ni43NzAwNjkgQzczLjc3MTE1OTQsMTgwLjExNTgwNiA4My4zMDgxOTQsMTg2LjA3MjM4OCA4OS41MzQ5NjU0LDE4Ny42MjkwODEgQzk3LjA4MzcxMzYsMTg5LjUxNjg1OSAxMTQuNTQ3ODgsMTkyLjE5MDk2NSAxMjYuMzQ4MTIsMTc1LjY3MjE2NiBMMTI1Ljg3NzUwNiwxNzcuNTU2OTg4IEMxMjkuMDIyMjI2LDE4MC4wNzU2MDMgMTMxLjIzMDQ0OCwxOTMuOTQwMzk3IDEzMC44NjAzNDIsMjA2LjUwODYzNyBDMTMwLjQ5MDIzNiwyMTkuMDc3NDY5IDEzMC4yNDMxMDQsMjI3LjcwNjM4MyAxMzIuNzIwOTI0LDIzNC40NDYzMzcgQzEzNS4xOTg3NDQsMjQxLjE4NjI5MSAxMzcuNjY4Mjg2LDI1Ni4zNTExODcgMTU4Ljc1OTYxMiwyNTEuODMxODcxIEMxNzYuMzgzNDA5LDI0OC4wNTUxMzIgMTg1LjUxNjA0NiwyMzguMjY4MDA5IDE4Ni43ODY1ODcsMjIxLjk0MjU0IEMxODcuNjg4MjAzLDIxMC4zMzYyMjIgMTg5LjcyODUxNywyMTIuMDUxOTU0IDE4OS44NTc0MDQsMjAxLjY3NTM4MSBMMTkxLjQ5MzkxMiwxOTYuNzYyOTAxIEMxOTMuMzgxMDk5LDE4MS4wMjk4MzggMTkxLjc5MzY2MywxNzUuOTU0MTggMjAyLjY1MTQ5MiwxNzguMzE0OTM4IEwyMDUuMjkwMTI1LDE3OC41NDY2OTcgQzIxMy4yODE3LDE3OC45MTAzIDIyMy43NDEwNDQsMTc3LjI2MTM3NiAyMjkuODc5NzIzLDE3NC40MDgxMjkgQzI0My4wOTgzMDksMTY4LjI3MzU4OSAyNTAuOTM3OTQsMTU4LjAzMTIyNCAyMzcuOTA0NDA2LDE2MC43MjI0NzYgTDIzNy45MDU1ODksMTYwLjcyMjQ3NiI+Cgo8L3BhdGg+CiAgICAgICAgPHBhdGggZmlsbD0iI0ZGRkZGRiIgZD0iTTEwOC4wNzYzNDIsODEuNTI1MDYyNCBDMTA1LjM5NjkxNSw4MS4xNTIgMTAyLjk2OTM0OSw4MS40OTcyNzQ4IDEwMS43NDEzNzYsODIuNDI2Njc5IEMxMDEuMDUwMjM2LDgyLjk0OTkxMjIgMTAwLjgzNjgwNCw4My41NTU5MTY5IDEwMC43Nzk0NTUsODMuOTczMzIxIEMxMDAuNjI1MTQ1LDg1LjA3ODMxODcgMTAxLjM5OTY0OSw4Ni4yOTk3ODc1IDEwMS44NzQ5OTMsODYuOTMwMDMyMyBDMTAzLjIyMDYxOSw4OC43MTM3NTUyIDEwNS4xODcwMyw4OS45Mzk5NTM4IDEwNy4xMzMzMzksOTAuMjEwMTQzMiBDMTA3LjQxNTM1Myw5MC4yNDkxNjQgMTA3LjY5NTU5NCw5MC4yNjgwODMxIDEwNy45NzQ2NTEsOTAuMjY4MDgzMSBDMTExLjIyMDQ3MSw5MC4yNjgwODMxIDExNC4xNzA2NzksODcuNzQxMTkxNyAxMTQuNDMwODE4LDg1Ljg3NTg3OTkgQzExNC43NTU5OTEsODMuNTM5OTUzOCAxMTEuMzY0NzMsODEuOTgyNjY5NyAxMDguMDc2MzQyLDgxLjUyNTA2MjQiPgoKPC9wYXRoPgogICAgICAgIDxwYXRoIGZpbGw9IiNGRkZGRkYiIGQ9Ik0xOTYuODYwNDUzLDgxLjU5ODk2NTQgTDE5Ni44NTk4NjEsODEuNTk4OTY1NCBDMTk2LjYwNDQ1Myw3OS43Njc5NDQ2IDE5My4zNDU2MjYsNzkuMjQ1ODkzOCAxOTAuMjUzNTI0LDc5LjY3NTcxMzYgQzE4Ny4xNjYxNTIsODAuMTA2MTI0NyAxODQuMTcxNjAzLDgxLjQ5OTYzOTcgMTg0LjQyMTY5MSw4My4zMzQ3OTkxIEMxODQuNjIyNzA3LDg0Ljc2MjAxMzkgMTg3LjE5ODY3LDg3LjE5ODQ0OCAxOTAuMjQ5Mzg2LDg3LjE5Nzg1NjggQzE5MC41MDY1NjgsODcuMTk3ODU2OCAxOTAuNzY2NzA3LDg3LjE4MDcxMTMgMTkxLjAyODYxOSw4Ny4xNDQwNTU0IEMxOTMuMDY0Nzk0LDg2Ljg2MjA0MTYgMTk0LjU1ODgxOCw4NS41NjkwMzQ2IDE5NS4yNjgyODYsODQuODIzNTAxMiBDMTk2LjM0OTYzNSw4My42ODgzNTEgMTk2Ljk3NDU1OSw4Mi40MjE5NDkyIDE5Ni44NjA0NTMsODEuNTk4OTY1NCI+Cgo8L3BhdGg+CiAgICAgICAgPHBhdGggZmlsbD0iI0ZGRkZGRiIgZD0iTTI0Ny44MDIwODgsMTYwLjAyNTQyMyBDMjQ2LjY2ODEyLDE1Ni41OTYzMjMgMjQzLjAxODQ5NCwxNTUuNDkyNTA4IDIzNi45NTQzMDksMTU2Ljc0NTMxMiBDMjE4Ljk0OTE3MywxNjAuNDYxMTU1IDIxMi41MDEyODQsMTU3Ljg4Njk2NSAyMTAuMzgzNTIsMTU2LjMyNzkwOCBDMjI0LjM3ODk3NSwxMzUuMDA3MTg3IDIzNS44OTE4OCwxMDkuMjM2MzIzIDI0Mi4xMDI2ODgsODUuMTkwNjUxMyBDMjQ1LjA0NTIxLDczLjgwMDcyMDYgMjQ2LjY3MDQ4NSw2My4yMjMxMzE2IDI0Ni44MDI5MTksNTQuNjAxOTAzIEMyNDYuOTQ5NTQzLDQ1LjEzNzU4ODkgMjQ1LjMzODQ1NywzOC4xODQyMDMyIDI0Mi4wMTQwMDUsMzMuOTM2MjU4NyBDMjI4LjYxMTU0NywxNi44MTA4NjM3IDIwOC45NDIxMTUsNy42MjUwMTYxNyAxODUuMTMxNzUxLDcuMzcyNTYzNTEgQzE2OC43NjMxMjIsNy4xODg2OTI4NCAxNTQuOTMzMjEsMTEuMzc4MTA2MiAxNTIuMjUyMDA5LDEyLjU1NTgyNDUgQzE0Ni42MDU4MiwxMS4xNTE2Njc0IDE0MC40NTA1ODcsMTAuMjg5NjYyOCAxMzMuNzUwMjQ1LDEwLjE3OTY5NTIgQzEyMS40NjE2NTQsOS45ODEwNDM4OCAxMTAuODQwMzE0LDEyLjkyMjk3NDYgMTAyLjA0NTg1NywxOC45MTkxNjg2IEM5OC4yMjU5NTg0LDE3LjQ5Nzg2NjEgODguMzUzNjk5OCwxNC4xMDg5NyA3Ni4yODE0OTY1LDEyLjE2NDQzNDIgQzU1LjQwODkyMzgsOC44MDMzMjU2NCAzOC44MjMzMTY0LDExLjM0OTcyNzUgMjYuOTg3MDExNSwxOS43MzUwNTc3IEMxMi44NjM4NTIyLDI5Ljc0MDkzMyA2LjM0MzgzMzcyLDQ3LjYyNjY0MiA3LjYwNzI3OTQ1LDcyLjg5NDM3NDEgQzguMDMyMzY5NTIsODEuMzk2MTc1NSAxMi44NzU2NzY3LDEwNy41NDc3ODggMjAuNTIwMjAzMiwxMzIuNTkzMjE5IEMzMC41ODIyNDQ4LDE2NS41NTY5MTUgNDEuNTE5Mjk3OSwxODQuMjE4MzA5IDUzLjAyODA2NDcsMTg4LjA1NjUzNiBDNTQuMzc0ODczLDE4OC41MDU4NjYgNTUuOTI4NjA5NywxODguODIwMzk3IDU3LjY0MDc5NDUsMTg4LjgyMDM5NyBDNjEuODM5MDc2MiwxODguODIwMzk3IDY2Ljk4NTY4MTMsMTg2LjkyNzg4OSA3Mi4zNDA5ODg1LDE4MC40OTAwNTEgQzgxLjIzNTk1MzgsMTY5Ljc4ODg5NiA4OS41NDA4Nzc2LDE2MC44MjE4MDEgOTIuNjAyMjM1NiwxNTcuNTYzNTY2IEM5Ny4xMjYyODE4LDE1OS45OTIzMTQgMTAyLjA5NTUyLDE2MS4zNDc5OTEgMTA3LjE3OTQ1NSwxNjEuNDgzOTcyIEMxMDcuMTg4MzIzLDE2MS42MTY5OTggMTA3LjIwMTkyMSwxNjEuNzUwMDIzIDEwNy4yMTM3NDYsMTYxLjg4MjQ1NyBDMTA2LjE5Mzg4NSwxNjMuMDkyMTAyIDEwNS4zNTczMDMsMTY0LjE1MjE2NiAxMDQuNjQ0Mjg2LDE2NS4wNTczMyBDMTAxLjEyMjM2NSwxNjkuNTI4MTY2IDEwMC4zODkyNDcsMTcwLjQ1ODc1MyA4OS4wNTE5MzUzLDE3Mi43OTM0OTcgQzg1LjgyNzM5OTUsMTczLjQ1ODYyNCA3Ny4yNjExNTQ3LDE3NS4yMjQwMTggNzcuMTM2NDA2NSwxODEuMjI3ODk4IEM3Ni45OTk4MzM3LDE4Ny43ODc1MjkgODcuMjYwNTI2NiwxOTAuNTQyNjMzIDg4LjQyOTk2NzcsMTkwLjgzNDY5NyBDOTIuNTA0MDkyNCwxOTEuODU0NTU5IDk2LjQyODYzNzQsMTkyLjM1NzY5MSAxMDAuMTcxNjc3LDE5Mi4zNTc2OTEgQzEwOS4yNzUzNDQsMTkyLjM1NzA5OSAxMTcuMjg1ODM4LDE4OS4zNjU1MDYgMTIzLjY4ODIwMywxODMuNTc2ODMxIEMxMjMuNDkwNzM0LDIwNi45NjI2OTcgMTI0LjQ2NjI1NCwyMzAuMDA2ODM2IDEyNy4yNzM5NzcsMjM3LjAyODIxMiBDMTI5LjU3MzI0NywyNDIuNzc1NTAxIDEzNS4xOTE2NDksMjU2LjgyMjk4NCAxNTIuOTM4NDIsMjU2LjgyMTgwMSBDMTU1LjU0MTU4LDI1Ni44MjE4MDEgMTU4LjQwODQyNSwyNTYuNTE5MDk1IDE2MS41NjE0MjMsMjU1Ljg0MzMyNiBDMTgwLjA4MjEwNiwyNTEuODcyMDc0IDE4OC4xMjQ1MjcsMjQzLjY4NjU3NyAxOTEuMjM2MTM5LDIyNS42NDAwNTUgQzE5Mi45MDEwMjUsMjE1Ljk5NTQxOCAxOTUuNzU4NDExLDE5Mi45NjM2OTUgMTk3LjEwMTY3MiwxODAuNjEwMDY5IEMxOTkuOTM3Nzc0LDE4MS40OTQ1NCAyMDMuNTg5MTczLDE4MS44OTk1MjkgMjA3LjUzNjE4NSwxODEuODk4OTM4IEMyMTUuNzY4Mzg4LDE4MS44OTg5MzggMjI1LjI2Njk5MywxODAuMTUwMDk3IDIzMS4yMjQxNjYsMTc3LjM4NDk0MiBDMjM3LjkxNTY0LDE3NC4yNzc0NjkgMjQ5Ljk5MTk4MiwxNjYuNjUwNjc5IDI0Ny44MDIwODgsMTYwLjAyNTQyMyBMMjQ3LjgwMjA4OCwxNjAuMDI1NDIzIFogTTIwMy42OTYxODUsNzYuNTQ0NTkxMiBDMjAzLjYzNDY5Nyw4MC4xOTE4NTIyIDIwMy4xMzI3NDgsODMuNTAyNzA2NyAyMDIuNjAwNjQ3LDg2Ljk1OTAwMjMgQzIwMi4wMjgzNDIsOTAuNjc2MDI3NyAyMDEuNDM1OTM1LDk0LjUxODk4MzggMjAxLjI4Njk0Nyw5OS4xODQzMzI2IEMyMDEuMTM5NzMyLDEwMy43MjQzNDIgMjAxLjcwNjcxNiwxMDguNDQ0Njc0IDIwMi4yNTUzNzIsMTEzLjAwODkyNCBDMjAzLjM2MzMyNiwxMjIuMjI4NDcxIDIwNC41MDAyNDksMTMxLjcyMDU3MyAyMDAuMDk4NTg3LDE0MS4wODY3NDQgQzE5OS40MTQ1NCwxMzkuODcxNzc4IDE5OC43NTQxNDMsMTM4LjU0NjI1NCAxOTguMTQ4NzMsMTM3LjA3ODI0NSBDMTk3LjYwMTg0OCwxMzUuNzUyMTI5IDE5Ni40MTQwNzksMTMzLjYyMTk0OSAxOTQuNzY5ODg1LDEzMC42NzM1MTUgQzE4OC4zNzA0NzYsMTE5LjE5Nzg1NyAxNzMuMzg1MzEyLDkyLjMyNDM2MDMgMTgxLjA1NjQ0Myw4MS4zNTgzMzcyIEMxODMuMzQwOTMzLDc4LjA5MzU5ODIgMTg5LjEzOTY1OCw3NC43Mzg0MDE4IDIwMy42OTYxODUsNzYuNTQ0NTkxMiBMMjAzLjY5NjE4NSw3Ni41NDQ1OTEyIFogTTE4Ni4wNTIyODYsMTQuNzU4MTMzOSBDMjA3LjM4NjAxNCwxNS4yMjkzMzk1IDIyNC4yNjEzMjEsMjMuMjEwMjcyNSAyMzYuMjA5OTU4LDM4LjQ3ODA0MTYgQzI0NS4zNzM5MzEsNTAuMTg5MDA2OSAyMzUuMjgyOTE5LDEwMy40NzYwMjggMjA2LjA2OTk0OSwxNDkuNDQ2NjUxIEMyMDUuNzgxNDMyLDE0OS4wODAwOTIgMjA1LjQ4NzU5NCwxNDguNzA5OTg2IDIwNS4xODM3MDQsMTQ4LjMzMDQyIEMyMDUuMDYyNTAzLDE0OC4xNzg0NzYgMjA0LjkzODkzOCwxNDguMDI0MTY2IDIwNC44MTQxODksMTQ3Ljg2ODA4MyBDMjEyLjM2MjkzOCwxMzUuNDAwOTQyIDIxMC44ODY2NTEsMTIzLjA2NjIzNiAyMDkuNTcyOTUyLDExMi4xMjk3NzQgQzIwOS4wMzMxNjQsMTA3LjY0MTc5MiAyMDguNTIzNTI5LDEwMy40MDI3MTYgMjA4LjY1MzAwNyw5OS40MjE0MTM0IEMyMDguNzg3MjE1LDk1LjIwMDA3MzkgMjA5LjM0NTMzLDkxLjU4MTE5MTcgMjA5Ljg4NDUyNyw4OC4wODExNDU1IEMyMTAuNTQ4NDcxLDgzLjc2NzU3NTEgMjExLjIyMzA1OCw3OS4zMDUwMTYyIDIxMS4wMzY4MjIsNzQuMDQzNzEzNiBDMjExLjE3NTc2LDczLjQ5MjEwMTYgMjExLjIzMTkyNiw3Mi44Mzk5ODE1IDIxMS4xNTkyMDYsNzIuMDY2MDY5MyBDMjEwLjY4Mzg2MSw2Ny4wMjA1NjM1IDIwNC45MjQxNTcsNTEuOTIyNDc1OCAxOTMuMTgzNjMsMzguMjU1MTUwMSBDMTg2Ljc2MjM0NiwzMC43ODA4OTYxIDE3Ny4zOTY3NjcsMjIuNDE1NjY3NCAxNjQuNjA5Nzc0LDE2Ljc3MzYxNjYgQzE3MC4xMDk5MzEsMTUuNjMzNzM2NyAxNzcuNjMxNDgzLDE0LjU3MDcxNTkgMTg2LjA1MjI4NiwxNC43NTgxMzM5IEwxODYuMDUyMjg2LDE0Ljc1ODEzMzkgWiBNNjYuNjc0MTA2MiwxNzUuNzc3OTk1IEM2MC43NzQyODE4LDE4Mi44NzE1MDEgNTYuNjk5NTY1OCwxODEuNTEyMjc3IDU1LjM1OTg1MjIsMTgxLjA2NTkwMyBDNDYuNjI5MjQ3MSwxNzguMTUzNTMzIDM2LjQ5OTgwNiwxNTkuNzAyMDIzIDI3LjU2ODc3NiwxMzAuNDQxNzU1IEMxOS44NDA4ODY4LDEwNS4xMjM3NjkgMTUuMzI0NTI2Niw3OS42NjUwNzE2IDE0Ljk2NzQyNzMsNzIuNTI2MDQxNiBDMTMuODM4NzgwNiw0OS45NDgzNzg4IDE5LjMxMTc0MTMsMzQuMjEyOTUxNSAzMS4yMzQ5NTYxLDI1Ljc1NzI2NTYgQzUwLjYzODkyODQsMTEuOTk2NTI2NiA4Mi41NDEzNzY0LDIwLjIzMjg2ODQgOTUuMzYwMjk1NiwyNC40MTA0NTczIEM5NS4xNzU4MzM3LDI0LjU5MTk2MyA5NC45ODQyNzcxLDI0Ljc2MjIzNTYgOTQuODAxNTg4OSwyNC45NDY2OTc1IEM3My43NjY0Mjk2LDQ2LjE5MTE1MDEgNzQuMjY1NDIyNiw4Mi40ODc1NzUxIDc0LjMxNjg1OTEsODQuNzA1ODQ3NiBDNzQuMzE1MDg1NSw4NS41NjE5NCA3NC4zODY2MjM2LDg2Ljc3Mzk0OTIgNzQuNDg1MzU4LDg4LjQ0MTIwMDkgQzc0Ljg0NzE4NzEsOTQuNTQ1NTg4OSA3NS41MjA1OTEyLDEwNS45MDc3MzIgNzMuNzIxNDk2NSwxMTguNzc1MTMyIEM3Mi4wNDg5MjM4LDEzMC43MzIwNDYgNzUuNzM0NjE0MywxNDIuNDM1MzI2IDgzLjgzMjAxODUsMTUwLjg4MzkxNyBDODQuNjcwMzc0MSwxNTEuNzU4MzM3IDg1LjU0NTM4NTcsMTUyLjU3OTU0NyA4Ni40NDkzNjcyLDE1My4zNTIyNzcgQzgyLjg0NDY3NDQsMTU3LjIxMjM3OSA3NS4wMTE1NDczLDE2NS43NDc4OCA2Ni42NzQxMDYyLDE3NS43Nzc5OTUgTDY2LjY3NDEwNjIsMTc1Ljc3Nzk5NSBaIE04OS4xNTMwMzQ2LDE0NS43ODQ2MSBDODIuNjI2NTEyNywxMzguOTc1NDgzIDc5LjY2MjcwNjcsMTI5LjUwMzQ4MyA4MS4wMjAxNTcsMTE5Ljc5NTU4NCBDODIuOTIwMzUxLDEwNi4yMDI3NTMgODIuMjE4NTY4MSw5NC4zNjQ2NzQ0IDgxLjg0MTk1ODQsODguMDA0ODc3NiBDODEuNzg5MzM5NSw4Ny4xMTUwODU1IDgxLjc0MjYzMjgsODYuMzM1MjYxIDgxLjcxNDg0NTMsODUuNzE5Nzk2OCBDODQuNzg4MDI3Nyw4Mi45OTU0MzY1IDk5LjAyODg0MDYsNzUuMzY0NTA4MSAxMDkuMTg0Mjk2LDc3LjY5MTU2NTggQzExMy44MTk0OTIsNzguNzUzNDA0MiAxMTYuNjQyNTg3LDgxLjkwODc2NjcgMTE3LjgxNjc1OCw4Ny4zMzczODU3IEMxMjMuODkzMzU4LDExNS40NDAwMzcgMTE4LjYyMTQxMywxMjcuMTUzMzY3IDExNC4zODUyOTMsMTM2LjU2NTY1NCBDMTEzLjUxMjA1NSwxMzguNTA0ODY4IDExMi42ODcyOTgsMTQwLjMzNzY2MyAxMTEuOTgyNTU5LDE0Mi4yMzQzMDkgTDExMS40MzY4NTksMTQzLjY5OTk1NCBDMTEwLjA1NDU3NywxNDcuNDA2MzM3IDEwOC43Njg2NjUsMTUwLjg1MTk5MSAxMDcuOTcxNjk1LDE1NC4xMjQ0MTYgQzEwMS4wMzQyNzMsMTU0LjEwMzEzMiA5NC4yODQ4NTkxLDE1MS4xMzk5MTcgODkuMTUzMDM0NiwxNDUuNzg0NjEgTDg5LjE1MzAzNDYsMTQ1Ljc4NDYxIFogTTkwLjIxNzgyOTEsMTgzLjY4NTAyNSBDODguMTkyMjk1NiwxODMuMTc4OTM4IDg2LjM3MDE0MzIsMTgyLjI5OTc4OCA4NS4zMDEyMTAyLDE4MS41NzA4MDggQzg2LjE5Mzk1ODQsMTgxLjE1MDQ0OCA4Ny43ODMxNjg2LDE4MC41NzkzMjYgOTAuNTM4ODYzNywxODAuMDExNzUxIEMxMDMuODc2Mjg2LDE3Ny4yNjU1MTUgMTA1LjkzNTUyLDE3NS4zMjgwNzQgMTEwLjQzMzU1MiwxNjkuNjE2ODUgQzExMS40NjUyMzgsMTY4LjMwNzg4IDExMi42MzQwODgsMTY2LjgyMzMxNiAxMTQuMjUyODU5LDE2NS4wMTUzNTMgQzExNC4yNTM0NSwxNjUuMDE0MTcxIDExNC4yNTQwNDIsMTY1LjAxMzU4IDExNC4yNTQ2MzMsMTY1LjAxMjk4OCBDMTE2LjY2NjIzNiwxNjIuMzEzNDYgMTE3Ljc2ODg2OCwxNjIuNzcxMDY3IDExOS43Njg5NzksMTYzLjYwMDU1NCBDMTIxLjM5MDExNSwxNjQuMjcxNTk0IDEyMi45Njg2ODQsMTY2LjMwMzAzOSAxMjMuNjA4OTc5LDE2OC41MzkwNDggQzEyMy45MTE2ODYsMTY5LjU5NDk3NSAxMjQuMjUyMjMxLDE3MS41OTk4MTUgMTIzLjEzODk1NiwxNzMuMTU4ODczIEMxMTMuNzQyNjMzLDE4Ni4zMTQ3OSAxMDAuMDUxMDY3LDE4Ni4xNDU3IDkwLjIxNzgyOTEsMTgzLjY4NTAyNSBMOTAuMjE3ODI5MSwxODMuNjg1MDI1IFogTTE2MC4wMTY1NTQsMjQ4LjYzNzQ4NyBDMTQzLjcwMDU0NSwyNTIuMTMzMzk1IDEzNy45MjM2OTUsMjQzLjgwODM3IDEzNC4xMTY4MDQsMjM0LjI5MTQzNiBDMTMxLjY1OTY3NywyMjguMTQ2ODQ1IDEzMC40NTIzOTcsMjAwLjQ0MDMxNCAxMzEuMzA5MDgxLDE2OS44NDM4OCBDMTMxLjMyMDMxNCwxNjkuNDM2NTI3IDEzMS4yNjIzNzQsMTY5LjA0MzM2MyAxMzEuMTUwMDQyLDE2OC42NzM4NDggQzEzMS4wNTI0OSwxNjcuOTYwMjQgMTMwLjkwMjMxOSwxNjcuMjM4MzU2IDEzMC42OTQyMDgsMTY2LjUxMTc0MSBDMTI5LjQxOTUyOSwxNjIuMDU5ODI0IDEyNi4zMTUwMTIsMTU4LjMzNTcwNCAxMjIuNTkwMywxNTYuNzkyMDE4IEMxMjEuMTEwNDY3LDE1Ni4xNzg5MTkgMTE4LjM5Mzc5MiwxNTUuMDUzODIgMTE1LjEyOTY0NCwxNTUuODg4NjI4IEMxMTUuODI2MTA2LDE1My4wMjA2IDExNy4wMzMzODYsMTQ5Ljc4MjQ2NyAxMTguMzQxNzY0LDE0Ni4yNzUzMjYgTDExOC44OTEwMTIsMTQ0Ljc5OTYzIEMxMTkuNTA5NDMyLDE0My4xMzY1MTcgMTIwLjI4NDUyNywxNDEuNDEzNjkxIDEyMS4xMDUxNDUsMTM5LjU5MDM1NiBDMTI1LjUzODE0MywxMjkuNzQxNzQ2IDEzMS42MDk0MjMsMTE2LjI1Mjk3IDEyNS4wMjAyMzEsODUuNzc5NTEwNCBDMTIyLjU1MTg3MSw3NC4zNjU5MzA3IDExNC4zMTAyMDgsNjguNzkyNDYxOSAxMDEuODE1ODcxLDcwLjA4NjY1MTMgQzk0LjMyNTA2MjQsNzAuODYxNzQ2IDg3LjQ3Mjc3Niw3My44ODQwODMxIDg0LjA1NDkwOTksNzUuNjE2OTYwNyBDODMuMzIwMDE4NSw3NS45ODk0MzE5IDgyLjY0Nzc5NjgsNzYuMzQ4ODk2MSA4Mi4wMTk5MTY5LDc2LjY5OTQ5MTkgQzgyLjk3MzU2MTIsNjUuMTk5MDAyMyA4Ni41NzgyNTQsNDMuNzA3NDE4IDEwMC4wNjA1MjcsMzAuMTA5ODU2OCBDMTA4LjU0ODczLDIxLjU0ODkzMyAxMTkuODU0MTE1LDE3LjMyMTA5MDEgMTMzLjYyODQ1MywxNy41NDg3MTEzIEMxNjAuNzY4NTkxLDE3Ljk5MzMxMTggMTc4LjE3MjQ1MywzMS45MjEzNjcyIDE4Ny45OTQ0NTcsNDMuNTI3Njg1OSBDMTk2LjQ1NzgyOSw1My41Mjk0MjI2IDIwMS4wNDA5OTgsNjMuNjAzODc5OSAyMDIuODcwMjQ1LDY5LjAzNzIyODYgQzE4OS4xMTU0MTgsNjcuNjM4OTgzOCAxNzkuNzYwNDgsNzAuMzU0NDc1OCAxNzUuMDE3NjgxLDc3LjEzNDA0MTYgQzE2NC43MDA4MjIsOTEuODgxNTMzNSAxODAuNjYyMDk3LDEyMC41MDYyMzYgMTg4LjMzMzIyOSwxMzQuMjYyODM2IEMxODkuNzM5NzUxLDEzNi43ODQ0MDYgMTkwLjk1NDEyNSwxMzguOTYzMDY3IDE5MS4zMzYwNTUsMTM5Ljg4ODkyNCBDMTkzLjgzMzk3NywxNDUuOTQzMDU4IDE5Ny4wNjc5NzIsMTQ5Ljk4NDY2NSAxOTkuNDI5MzIxLDE1Mi45MzU0NjQgQzIwMC4xNTI5NzksMTUzLjgzOTQ0NiAyMDAuODU1MzUzLDE1NC43MTYyMzEgMjAxLjM4OTIyOSwxNTUuNDgxODY2IEMxOTcuMjIzNDY0LDE1Ni42ODMyMzMgMTg5Ljc0MDM0MiwxNTkuNDU3ODQ4IDE5MC40MjIwMjMsMTczLjMyODU1NCBDMTg5Ljg3MjE4NSwxODAuMjg5MDM1IDE4NS45NjA2NDcsMjEyLjg3NDkzOCAxODMuOTc0MTM0LDIyNC4zODc4NDMgQzE4MS4zNTE0NjQsMjM5LjU5NzY3MiAxNzUuNzU0MzQ2LDI0NS4yNjMzNzIgMTYwLjAxNjU1NCwyNDguNjM3NDg3IEwxNjAuMDE2NTU0LDI0OC42Mzc0ODcgWiBNMjI4LjEyMDgzMSwxNzAuNzAwNTY0IEMyMjMuODYxMDYyLDE3Mi42NzgyMDggMjE2LjczMjA4MywxNzQuMTYxNTg5IDIwOS45NTk2MTIsMTc0LjQ3OTY2NyBDMjAyLjQ3OTQ0NiwxNzQuODMwMjYzIDE5OC42NzE5NjMsMTczLjY0MTkwMyAxOTcuNzc2MjU5LDE3Mi45MTExNSBDMTk3LjM1NTMwNywxNjQuMjY3NDU1IDIwMC41NzMzMzksMTYzLjM2NDA2NSAyMDMuOTc4MTk5LDE2Mi40MDgwNTUgQzIwNC41MTMyNTYsMTYyLjI1NzI5MyAyMDUuMDM1MzA3LDE2Mi4xMTEyNjEgMjA1LjUzOTAzLDE2MS45MzUwNzYgQzIwNS44NTIzNzksMTYyLjE4OTg5NCAyMDYuMTk1Mjg5LDE2Mi40NDI5MzggMjA2LjU3MDcxNiwxNjIuNjkwNjYxIEMyMTIuNTgyODczLDE2Ni42NTg5NTYgMjIzLjMwNjQ5NCwxNjcuMDg3MDAyIDIzOC40NDQ3ODUsMTYzLjk2MjM4MyBDMjM4LjUwMDM2LDE2My45NTA1NTkgMjM4LjU1NTkzNSwxNjMuOTM5OTE3IDIzOC42MTA5MTksMTYzLjkyODY4NCBDMjM2LjU2OTQyMywxNjUuODM3NzQ2IDIzMy4wNzUyODksMTY4LjQwMDExMSAyMjguMTIwODMxLDE3MC43MDA1NjQgTDIyOC4xMjA4MzEsMTcwLjcwMDU2NCBaIj4KCjwvcGF0aD4KICAgIDwvZz4KPC9zdmc+;opacity=40;" vertex="1" parent="1">
                    <mxGeometry x="180" y="662.1" width="33.5" height="34.57" as="geometry"/>
                </mxCell>
                <mxCell id="19" value="" style="shape=cylinder3;whiteSpace=wrap;html=1;boundedLbl=1;backgroundOutline=1;size=5.841818181818098;sketch=1;curveFitting=1;jiggle=2;fontFamily=Roboto;fontSource=https%3A%2F%2Ffonts.googleapis.com%2Fcss%3Ffamily%3DRoboto;" vertex="1" parent="1">
                    <mxGeometry x="125" y="390" width="30" height="36.67" as="geometry"/>
                </mxCell>
                <mxCell id="20" value="" style="shape=cylinder3;whiteSpace=wrap;html=1;boundedLbl=1;backgroundOutline=1;size=5.841818181818098;sketch=1;curveFitting=1;jiggle=2;fontFamily=Roboto;fontSource=https%3A%2F%2Ffonts.googleapis.com%2Fcss%3Ffamily%3DRoboto;" vertex="1" parent="1">
                    <mxGeometry x="540" y="380" width="30" height="36.67" as="geometry"/>
                </mxCell>
                <mxCell id="22" value="" style="shape=image;verticalLabelPosition=bottom;labelBackgroundColor=default;verticalAlign=top;aspect=fixed;imageAspect=0;image=data:image/svg+xml,PHN2ZyB4bWxucz0iaHR0cDovL3d3dy53My5vcmcvMjAwMC9zdmciIHZpZXdCb3g9IjAgMCAzMiAzMiIgaGVpZ2h0PSI4MDBweCIgd2lkdGg9IjgwMHB4Ij48dGl0bGU+ZmlsZV90eXBlX251eHQ8L3RpdGxlPjxwYXRoIHN0eWxlPSJmaWxsOiMwMGM1OGUiIGQ9Ik0xMC42NDgsMjUuNzM0YTEuNDY1LDEuNDY1LDAsMCwxLS4xNTctLjk0MkgzLjg0N0wxMy43MTYsNy40MTdsNC4xNTksNy40MSwxLjMwOC0uOTc2TDE1LjA3Niw2LjQ2N0ExLjc1MiwxLjc1MiwwLDAsMCwxMy43LDUuNTZhMS41MzEsMS41MzEsMCwwLDAtMS4zNDMuOTI0bC0xMCwxNy41OTNhMS43MjksMS43MjksMCwwLDAtLjA4NywxLjY1NiwxLjUyNiwxLjUyNiwwLDAsMCwxLjQ1Ni43MDZIMTIuMWExLjUyMywxLjUyMywwLDAsMS0xLjQ1Ni0uN1oiLz48cGF0aCBzdHlsZT0iZmlsbDojMTA4Nzc1IiBkPSJNMjkuNjM2LDI0LjExMiwyMS41ODksOS44MjNhMS42OTIsMS42OTIsMCwwLDAtMS4zNTEtLjkwNywxLjQ4OSwxLjQ4OSwwLDAsMC0xLjMwOC45MDdsLTEuMDY0LDEuN3YzLjNsMi4zNzEtNC4wNzEsNy45NTEsMTQuMDcxSDI1LjE2M2ExLjM3NywxLjM3NywwLDAsMS0uMTIyLjgzN2wtLjAyNi4wNTJhMS43MjksMS43MjksMCwwLDEtMS40NTYuNzMyaDQuNzM0YTEuNzIsMS43MiwwLDAsMCwxLjQ1Ni0uNzMyLDEuNTQ4LDEuNTQ4LDAsMCwwLS4xMjItMS42WiIvPjxwYXRoIHN0eWxlPSJmaWxsOiMyZjQ5NWUiIGQ9Ik0yNS4yMzMsMjUuN2wuMDI2LS4wNTIuMDctLjEzOWExLjI3OCwxLjI3OCwwLDAsMCwuMDYxLS43LDIuMTEsMi4xMSwwLDAsMC0uMjctLjcyNGwtNi4yODYtMTAuOS0uOTUtMS42NTZoLS4wMTdsLS45NTksMS42NDgtNi4yNzcsMTAuOWEyLjE4LDIuMTgsMCwwLDAtLjI0NC43MTUsMS40MzgsMS40MzgsMCwwLDAsLjE0OC45NDIsMS41NjMsMS41NjMsMCwwLDAsMS40ODIuN0gyMy43MjVhMS43OSwxLjc5LDAsMCwwLDEuNTA4LS43NDFaTTE3Ljg2NiwxNC44MzYsMjMuNjIsMjQuOEgxMi4xMTJaIi8+PC9zdmc+;sketch=1;curveFitting=1;jiggle=2;imageBorder=none;imageBackground=none;opacity=40;" vertex="1" parent="1">
                    <mxGeometry x="580" y="220" width="40" height="40" as="geometry"/>
                </mxCell>
                <mxCell id="23" value="" style="shape=image;verticalLabelPosition=bottom;labelBackgroundColor=default;verticalAlign=top;aspect=fixed;imageAspect=0;image=data:image/svg+xml,PHN2ZyB4bWxuczp4bGluaz0iaHR0cDovL3d3dy53My5vcmcvMTk5OS94bGluayIgeG1sbnM9Imh0dHA6Ly93d3cudzMub3JnLzIwMDAvc3ZnIiBwcmVzZXJ2ZUFzcGVjdFJhdGlvPSJ4TWlkWU1pZCIgdmVyc2lvbj0iMS4xIiB2aWV3Qm94PSIwIDAgMjU2IDIyMC44MDAwMDMwNTE3NTc4IiBoZWlnaHQ9IjY5MC4wMDAwMDk1MzY3NDMyIiB3aWR0aD0iODAwIj4KCTxnPgoJCTxwYXRoIGZpbGw9IiM0MUI4ODMiIGQ9Ik0yMDQuOCwwIEwyNTYsMCBMMTI4LDIyMC44IEwwLDAgTDUwLjU2LDAgTDk3LjkyLDAgTDEyOCw1MS4yIEwxNTcuNDQsMCBMMjA0LjgsMCBaIj4KCjwvcGF0aD4KCQk8cGF0aCBmaWxsPSIjNDFCODgzIiBkPSJNMCwwIEwxMjgsMjIwLjggTDI1NiwwIEwyMDQuOCwwIEwxMjgsMTMyLjQ4IEw1MC41NiwwIEwwLDAgWiI+Cgo8L3BhdGg+CgkJPHBhdGggZmlsbD0iIzM1NDk1RSIgZD0iTTUwLjU2LDAgTDEyOCwxMzMuMTIgTDIwNC44LDAgTDE1Ny40NCwwIEwxMjgsNTEuMiBMOTcuOTIsMCBMNTAuNTYsMCBaIj4KCjwvcGF0aD4KCTwvZz4KPC9zdmc+;sketch=1;curveFitting=1;jiggle=2;opacity=40;" vertex="1" parent="1">
                    <mxGeometry x="780" y="270" width="29.02" height="25.06" as="geometry"/>
                </mxCell>
                <mxCell id="24" value="" style="shape=image;verticalLabelPosition=bottom;labelBackgroundColor=default;verticalAlign=top;aspect=fixed;imageAspect=0;image=data:image/svg+xml,PHN2ZyB4bWxuczp4bGluaz0iaHR0cDovL3d3dy53My5vcmcvMTk5OS94bGluayIgeG1sbnM9Imh0dHA6Ly93d3cudzMub3JnLzIwMDAvc3ZnIiBwcmVzZXJ2ZUFzcGVjdFJhdGlvPSJ4TWlkWU1pZCIgdmVyc2lvbj0iMS4xIiB2aWV3Qm94PSIwIDAgMjU2IDIyMC44MDAwMDMwNTE3NTc4IiBoZWlnaHQ9IjY5MC4wMDAwMDk1MzY3NDMyIiB3aWR0aD0iODAwIj4KCTxnPgoJCTxwYXRoIGZpbGw9IiM0MUI4ODMiIGQ9Ik0yMDQuOCwwIEwyNTYsMCBMMTI4LDIyMC44IEwwLDAgTDUwLjU2LDAgTDk3LjkyLDAgTDEyOCw1MS4yIEwxNTcuNDQsMCBMMjA0LjgsMCBaIj4KCjwvcGF0aD4KCQk8cGF0aCBmaWxsPSIjNDFCODgzIiBkPSJNMCwwIEwxMjgsMjIwLjggTDI1NiwwIEwyMDQuOCwwIEwxMjgsMTMyLjQ4IEw1MC41NiwwIEwwLDAgWiI+Cgo8L3BhdGg+CgkJPHBhdGggZmlsbD0iIzM1NDk1RSIgZD0iTTUwLjU2LDAgTDEyOCwxMzMuMTIgTDIwNC44LDAgTDE1Ny40NCwwIEwxMjgsNTEuMiBMOTcuOTIsMCBMNTAuNTYsMCBaIj4KCjwvcGF0aD4KCTwvZz4KPC9zdmc+;sketch=1;curveFitting=1;jiggle=2;opacity=40;" vertex="1" parent="1">
                    <mxGeometry x="384" y="227.47" width="29.02" height="25.06" as="geometry"/>
                </mxCell>
                <mxCell id="25" value="" style="shape=image;verticalLabelPosition=bottom;labelBackgroundColor=default;verticalAlign=top;aspect=fixed;imageAspect=0;image=data:image/svg+xml,PHN2ZyB4bWxuczp4bGluaz0iaHR0cDovL3d3dy53My5vcmcvMTk5OS94bGluayIgeG1sbnM9Imh0dHA6Ly93d3cudzMub3JnLzIwMDAvc3ZnIiBwcmVzZXJ2ZUFzcGVjdFJhdGlvPSJ4TWlkWU1pZCIgdmVyc2lvbj0iMS4xIiB2aWV3Qm94PSIwIDAgMjU2IDIyMC44MDAwMDMwNTE3NTc4IiBoZWlnaHQ9IjY5MC4wMDAwMDk1MzY3NDMyIiB3aWR0aD0iODAwIj4KCTxnPgoJCTxwYXRoIGZpbGw9IiM0MUI4ODMiIGQ9Ik0yMDQuOCwwIEwyNTYsMCBMMTI4LDIyMC44IEwwLDAgTDUwLjU2LDAgTDk3LjkyLDAgTDEyOCw1MS4yIEwxNTcuNDQsMCBMMjA0LjgsMCBaIj4KCjwvcGF0aD4KCQk8cGF0aCBmaWxsPSIjNDFCODgzIiBkPSJNMCwwIEwxMjgsMjIwLjggTDI1NiwwIEwyMDQuOCwwIEwxMjgsMTMyLjQ4IEw1MC41NiwwIEwwLDAgWiI+Cgo8L3BhdGg+CgkJPHBhdGggZmlsbD0iIzM1NDk1RSIgZD0iTTUwLjU2LDAgTDEyOCwxMzMuMTIgTDIwNC44LDAgTDE1Ny40NCwwIEwxMjgsNTEuMiBMOTcuOTIsMCBMNTAuNTYsMCBaIj4KCjwvcGF0aD4KCTwvZz4KPC9zdmc+;sketch=1;curveFitting=1;jiggle=2;opacity=40;" vertex="1" parent="1">
                    <mxGeometry x="184.48" y="270" width="29.02" height="25.06" as="geometry"/>
                </mxCell>
                <mxCell id="26" value="" style="shape=image;verticalLabelPosition=bottom;labelBackgroundColor=default;verticalAlign=top;aspect=fixed;imageAspect=0;image=data:image/svg+xml,PHN2ZyB4bWxuczp4bGluaz0iaHR0cDovL3d3dy53My5vcmcvMTk5OS94bGluayIgeG1sbnM9Imh0dHA6Ly93d3cudzMub3JnLzIwMDAvc3ZnIiBwcmVzZXJ2ZUFzcGVjdFJhdGlvPSJ4TWlkWU1pZCIgdmVyc2lvbj0iMS4xIiB2aWV3Qm94PSIwIDAuMDAwMTI4NzQ2MDMyNzE0ODQzNzUgMjU2IDI2My41Mzk3MzM4ODY3MTg3NSIgaGVpZ2h0PSI3OTguNjA1MjU0MjAyMTc4IiB3aWR0aD0iNzc1Ljc1NzU3NTc1NzU3NTgiPgogICAgPGc+CiAgICAgICAgPHBhdGggZmlsbD0iI0ZGMkQyMCIgZD0iTTI1NS44NTU2NDEsNTkuNjE5NzE3IEMyNTUuOTUwNTY1LDU5Ljk3MTA1OTYgMjU2LDYwLjMzMzMxNDkgMjU2LDYwLjY5NzI1MzYgTDI1NiwxMTcuMjY1MzQ1IEMyNTYsMTE4Ljc0MzIwNiAyNTUuMjA5NDA5LDEyMC4xMDgxNDkgMjUzLjkyNzQxOCwxMjAuODQzMzg1IEwyMDYuNDQ4Nzg2LDE0OC4xNzg3ODYgTDIwNi40NDg3ODYsMjAyLjM1OTc5OCBDMjA2LjQ0ODc4NiwyMDMuODM0MzIyIDIwNS42NjUxMjMsMjA1LjE5NTQyMSAyMDQuMzg2NTE1LDIwNS45Mzc4MzggTDEwNS4yNzg5MywyNjIuOTkwNTYzIEMxMDUuMDUyMDgsMjYzLjExOTQ1NSAxMDQuODA0NjA4LDI2My4yMDE5NDYgMTA0LjU1NzEzNSwyNjMuMjg5NTkzIEMxMDQuNDY0MzMzLDI2My4zMjA1MjcgMTA0LjM3NjY4NywyNjMuMzc3MjM5IDEwNC4yNzg3MjksMjYzLjQwMzAxNyBDMTAzLjU4NTkyOSwyNjMuNTg1NDYgMTAyLjg1NzcwMSwyNjMuNTg1NDYgMTAyLjE2NDkwMSwyNjMuNDAzMDE3IEMxMDIuMDUxNDc2LDI2My4zNzIwODMgMTAxLjk0ODM2MywyNjMuMzEwMjE1IDEwMS44NDAwOTMsMjYzLjI2ODk3IEMxMDEuNjEzMjQ0LDI2My4xODY0NzkgMTAxLjM3NjA4MiwyNjMuMTE0MyAxMDEuMTU5NTQ0LDI2Mi45OTA1NjMgTDIuMDcyNTgyMjcsMjA1LjkzNzgzOCBDMC43OTEzNzE4LDIwNS4yMDE4MTkgMCwyMDMuODM3MzcyIDAsMjAyLjM1OTc5OCBMMCwzMi42NTU1MjQ4IEMwLDMyLjI4NDMxNjEgMC4wNTE1NTY3NzI5LDMxLjkyMzQxODcgMC4xNDQzNTg5NjQsMzEuNTcyODMyNiBDMC4xNzUyOTMwMjgsMzEuNDU0MjUyIDAuMjQ3NDcyNTEsMzEuMzQ1OTgyOCAwLjI4ODcxNzkyOCwzMS4yMjc0MDIyIEMwLjM2NjA1MzA4NywzMS4wMTA4NjM4IDAuNDM4MjMyNTY5LDMwLjc4OTE2OTcgMC41NTE2NTc0NywzMC41ODgwOTgyIEMwLjYyODk5MjYyOSwzMC40NTQwNTA2IDAuNzQyNDE3NTI5LDMwLjM0NTc4MTQgMC44MzUyMTk3MiwzMC4yMjIwNDUxIEMwLjk1MzgwMDI5OCwzMC4wNTcwNjM1IDEuMDYyMDY5NTIsMjkuODg2OTI2MSAxLjIwMTI3MjgxLDI5Ljc0MjU2NzIgQzEuMzE5ODUzMzksMjkuNjIzOTg2NiAxLjQ3NDUyMzcsMjkuNTM2MzQwMSAxLjYwODU3MTMxLDI5LjQzMzIyNjUgQzEuNzU4MDg1OTUsMjkuMzA5NDkwMyAxLjg5MjEzMzU2LDI5LjE3NTQ0MjcgMi4wNjIyNzA5MSwyOS4wNzc0ODQ4IEwyLjA2NzQyNjU5LDI5LjA3NzQ4NDggTDUxLjYxMzQ4NTMsMC41NTExMjIzNjQgQzUyLjg5MDE5MDMsLTAuMTgzNTM1NzY4IDU0LjQ2MTMyMjEsLTAuMTgzNTM1NzY4IDU1LjczODAyNzEsMC41NTExMjIzNjQgTDEwNS4yODQwODYsMjkuMDc3NDg0OCBMMTA1LjI5NDM5NywyOS4wNzc0ODQ4IEMxMDUuNDU5Mzc5LDI5LjE4MDU5ODMgMTA1LjU5ODU4MiwyOS4zMDk0OTAzIDEwNS43NDgwOTcsMjkuNDI4MDcwOCBDMTA1Ljg4MjE0NCwyOS41MzExODQ0IDEwNi4wMzE2NTksMjkuNjIzOTg2NiAxMDYuMTUwMjQsMjkuNzM3NDExNSBDMTA2LjI5NDU5OSwyOS44ODY5MjYxIDEwNi4zOTc3MTIsMzAuMDU3MDYzNSAxMDYuNTIxNDQ4LDMwLjIyMjA0NTEgQzEwNi42MDkwOTUsMzAuMzQ1NzgxNCAxMDYuNzI3Njc2LDMwLjQ1NDA1MDYgMTA2Ljc5OTg1NSwzMC41ODgwOTgyIEMxMDYuOTE4NDM2LDMwLjc5NDMyNTMgMTA2Ljk4NTQ1OSwzMS4wMTA4NjM4IDEwNy4wNjc5NSwzMS4yMjc0MDIyIEMxMDcuMTA5MTk2LDMxLjM0NTk4MjggMTA3LjE4MTM3NSwzMS40NTQyNTIgMTA3LjIxMjMwOSwzMS41Nzc5ODgzIEMxMDcuMzA3MjM0LDMxLjkyOTMzMDggMTA3LjM1NTc2NSwzMi4yOTE1ODYxIDEwNy4zNTY2NjgsMzIuNjU1NTI0OCBMMTA3LjM1NjY2OCwxMzguNjUxMDk0IEwxNDguNjQzMzMyLDExNC44NzgyNjYgTDE0OC42NDMzMzIsNjAuNjkyMDk3OSBDMTQ4LjY0MzMzMiw2MC4zMzEyMDA1IDE0OC42OTQ4ODksNTkuOTY1MTQ3NCAxNDguNzg3NjkxLDU5LjYxOTcxNyBDMTQ4LjgyMzc4MSw1OS40OTU5ODA4IDE0OC44OTA4MDQsNTkuMzg3NzExNiAxNDguOTMyMDUsNTkuMjY5MTMxIEMxNDkuMDE0NTQxLDU5LjA1MjU5MjUgMTQ5LjA4NjcyLDU4LjgzMDg5ODQgMTQ5LjIwMDE0NSw1OC42Mjk4MjcgQzE0OS4yNzc0OCw1OC40OTU3Nzk0IDE0OS4zOTA5MDUsNTguMzg3NTEwMiAxNDkuNDc4NTUyLDU4LjI2Mzc3MzkgQzE0OS42MDIyODgsNTguMDk4NzkyMiAxNDkuNzA1NDAxLDU3LjkyODY1NDkgMTQ5Ljg0OTc2LDU3Ljc4NDI5NTkgQzE0OS45NjgzNDEsNTcuNjY1NzE1MyAxNTAuMTE3ODU2LDU3LjU3ODA2ODggMTUwLjI1MTkwMyw1Ny40NzQ5NTUzIEMxNTAuNDA2NTczLDU3LjM1MTIxOSAxNTAuNTQwNjIxLDU3LjIxNzE3MTQgMTUwLjcwNTYwMyw1Ny4xMTkyMTM2IEwxNTAuNzEwNzU4LDU3LjExOTIxMzYgTDIwMC4yNjE5NzMsMjguNTkyODUxMSBDMjAxLjUzODM5NSwyNy44NTcxMzQ1IDIwMy4xMTAwOTMsMjcuODU3MTM0NSAyMDQuMzg2NTE1LDI4LjU5Mjg1MTEgTDI1My45MzI1NzMsNTcuMTE5MjEzNiBDMjU0LjEwNzg2Niw1Ny4yMjIzMjcxIDI1NC4yNDE5MTQsNTcuMzUxMjE5IDI1NC4zOTY1ODQsNTcuNDY5Nzk5NiBDMjU0LjUyNTQ3Niw1Ny41NzI5MTMyIDI1NC42NzQ5OTEsNTcuNjY1NzE1MyAyNTQuNzkzNTcyLDU3Ljc3OTE0MDIgQzI1NC45Mzc5Myw1Ny45Mjg2NTQ5IDI1NS4wNDEwNDQsNTguMDk4NzkyMiAyNTUuMTY0NzgsNTguMjYzNzczOSBDMjU1LjI1NzU4Miw1OC4zODc1MTAyIDI1NS4zNzEwMDcsNTguNDk1Nzc5NCAyNTUuNDQzMTg3LDU4LjYyOTgyNyBDMjU1LjU2MTc2Nyw1OC44MzA4OTg0IDI1NS42Mjg3OTEsNTkuMDUyNTkyNSAyNTUuNzExMjgyLDU5LjI2OTEzMSBDMjU1Ljc1NzY4Myw1OS4zODc3MTE2IDI1NS44MjQ3MDcsNTkuNDk1OTgwOCAyNTUuODU1NjQxLDU5LjYxOTcxNyBaIE0yNDcuNzQwNjA1LDExNC44NzgyNjYgTDI0Ny43NDA2MDUsNjcuODM3ODY2NiBMMjMwLjQwMjA2Miw3Ny44MTkyNTc5IEwyMDYuNDQ4Nzg2LDkxLjYxMDY5NDYgTDIwNi40NDg3ODYsMTM4LjY1MTA5NCBMMjQ3Ljc0NTc2MSwxMTQuODc4MjY2IEwyNDcuNzQwNjA1LDExNC44NzgyNjYgWiBNMTk4LjE5NDU0NiwxOTkuOTcyNzIgTDE5OC4xOTQ1NDYsMTUyLjkwMTM4NiBMMTc0LjYzMzEwMSwxNjYuMzU3NzA0IEwxMDcuMzUxNTEyLDIwNC43NTcxODggTDEwNy4zNTE1MTIsMjUyLjI3MTkxIEwxOTguMTk0NTQ2LDE5OS45NzI3MiBaIE04LjI1OTM5NTAxLDM5Ljc5NjEzNzkgTDguMjU5Mzk1MDEsMTk5Ljk3MjcyIEw5OS4wOTIxMTc1LDI1Mi4yNjY3NTUgTDk5LjA5MjExNzUsMjA0Ljc2MjM0NCBMNTEuNjM5MjYzNywxNzcuOTA2NDIxIEw1MS42MjM3OTY3LDE3Ny44OTYxMSBMNTEuNjAzMTc0LDE3Ny44ODU3OTggQzUxLjQ0MzM0OCwxNzcuNzkyOTk2IDUxLjMwOTMwMDQsMTc3LjY1ODk0OSA1MS4xNTk3ODU3LDE3Ny41NDU1MjQgQzUxLjAzMDg5MzgsMTc3LjQ0MjQxIDUwLjg4MTM3OTEsMTc3LjM1OTkxOSA1MC43Njc5NTQyLDE3Ny4yNDY0OTQgTDUwLjc1NzY0MjksMTc3LjIzMTAyNyBDNTAuNjIzNTk1MywxNzcuMTAyMTM1IDUwLjUzMDc5MzEsMTc2Ljk0MjMwOSA1MC40MTczNjgyLDE3Ni43OTc5NSBDNTAuMzE0MjU0NiwxNzYuNjU4NzQ3IDUwLjE5MDUxODQsMTc2LjU0MDE2NyA1MC4xMDgwMjc2LDE3Ni4zOTU4MDggTDUwLjEwMjg3MTksMTc2LjM4MDM0MSBDNTAuMDEwMDY5NywxNzYuMjI1NjcgNDkuOTUzMzU3MiwxNzYuMDQwMDY2IDQ5Ljg4NjMzMzQsMTc1Ljg2NDc3MyBDNDkuODE5MzA5NiwxNzUuNzEwMTAzIDQ5LjczMTY2MzEsMTc1LjU2NTc0NCA0OS42OTA0MTc3LDE3NS40MDA3NjIgTDQ5LjY5MDQxNzcsMTc1LjM5NTYwNiBDNDkuNjM4ODYwOSwxNzUuMTk5NjkgNDkuNjI4NTQ5NiwxNzQuOTkzNDYzIDQ5LjYwNzkyNjksMTc0Ljc5MjM5MiBDNDkuNTg3MzA0MSwxNzQuNjM3NzIyIDQ5LjU0NjA1ODcsMTc0LjQ4MzA1MSA0OS41NDYwNTg3LDE3NC4zMjgzODEgTDQ5LjU0NjA1ODcsMTc0LjMxODA3IEw0OS41NDYwNTg3LDYzLjU2ODk2NTggTDI1LjU5NzkzNzcsNDkuNzcyMzczNCBMOC4yNTkzOTUwMSwzOS44MDEyOTM1IEw4LjI1OTM5NTAxLDM5Ljc5NjEzNzkgWiBNNTMuNjgwOTExOSw4Ljg5MzAwODIxIEwxMi4zOTk0MDM5LDMyLjY1NTUyNDggTDUzLjY3MDYwMDYsNTYuNDE4MDQxNCBMOTQuOTQ2OTUyOSwzMi42NTAzNjkyIEw1My42NzA2MDA2LDguODkzMDA4MjEgTDUzLjY4MDkxMTksOC44OTMwMDgyMSBaIE03NS4xNDkxNTIxLDE1Ny4xOTA5MSBMOTkuMDk3MjczMSwxNDMuNDA0NjI5IEw5OS4wOTcyNzMxLDM5Ljc5NjEzNzkgTDgxLjc1ODczMDQsNDkuNzc3NTI5MSBMNTcuODA1NDUzNyw2My41Njg5NjU4IEw1Ny44MDU0NTM3LDE2Ny4xNzc0NTcgTDc1LjE0OTE1MjEsMTU3LjE5MDkxIFogTTIwMi4zMjQyNDQsMzYuOTM0NzM3IEwxNjEuMDQ3ODkxLDYwLjY5NzI1MzYgTDIwMi4zMjQyNDQsODQuNDU5NzcwMiBMMjQzLjU5NTQ0LDYwLjY5MjA5NzkgTDIwMi4zMjQyNDQsMzYuOTM0NzM3IFogTTE5OC4xOTQ1NDYsOTEuNjEwNjk0NiBMMTc0LjI0MTI3LDc3LjgxOTI1NzkgTDE1Ni45MDI3MjcsNjcuODM3ODY2NiBMMTU2LjkwMjcyNywxMTQuODc4MjY2IEwxODAuODUwODQ4LDEyOC42NjQ1NDcgTDE5OC4xOTQ1NDYsMTM4LjY1MTA5NCBMMTk4LjE5NDU0Niw5MS42MTA2OTQ2IFogTTEwMy4yMTY2NTksMTk3LjYxNjU3NSBMMTYzLjc1OTc3OCwxNjMuMDUyOTE1IEwxOTQuMDIzNjAzLDE0NS43ODEzOTYgTDE1Mi43NzgxODUsMTIyLjAzNDM0NiBMMTA1LjI4OTI0MiwxNDkuMzc0OTAzIEw2Mi4wMDczMzA3LDE3NC4yOTIyOTEgTDEwMy4yMTY2NTksMTk3LjYxNjU3NSBaIj4KCjwvcGF0aD4KICAgIDwvZz4KPC9zdmc+;sketch=1;curveFitting=1;jiggle=2;opacity=40;" vertex="1" parent="1">
                    <mxGeometry x="225.59" y="624.57" width="34.41" height="35.43" as="geometry"/>
                </mxCell>
                <mxCell id="28" value="" style="shape=image;verticalLabelPosition=bottom;labelBackgroundColor=default;verticalAlign=top;aspect=fixed;imageAspect=0;image=data:image/svg+xml,PHN2ZyB4bWxuczp4bGluaz0iaHR0cDovL3d3dy53My5vcmcvMTk5OS94bGluayIgeG1sbnM9Imh0dHA6Ly93d3cudzMub3JnLzIwMDAvc3ZnIiBwcmVzZXJ2ZUFzcGVjdFJhdGlvPSJ4TWlkWU1pZCIgdmVyc2lvbj0iMS4xIiB2aWV3Qm94PSIwIDAuMDAwMTI4NzQ2MDMyNzE0ODQzNzUgMjU2IDI2My41Mzk3MzM4ODY3MTg3NSIgaGVpZ2h0PSI3OTguNjA1MjU0MjAyMTc4IiB3aWR0aD0iNzc1Ljc1NzU3NTc1NzU3NTgiPgogICAgPGc+CiAgICAgICAgPHBhdGggZmlsbD0iI0ZGMkQyMCIgZD0iTTI1NS44NTU2NDEsNTkuNjE5NzE3IEMyNTUuOTUwNTY1LDU5Ljk3MTA1OTYgMjU2LDYwLjMzMzMxNDkgMjU2LDYwLjY5NzI1MzYgTDI1NiwxMTcuMjY1MzQ1IEMyNTYsMTE4Ljc0MzIwNiAyNTUuMjA5NDA5LDEyMC4xMDgxNDkgMjUzLjkyNzQxOCwxMjAuODQzMzg1IEwyMDYuNDQ4Nzg2LDE0OC4xNzg3ODYgTDIwNi40NDg3ODYsMjAyLjM1OTc5OCBDMjA2LjQ0ODc4NiwyMDMuODM0MzIyIDIwNS42NjUxMjMsMjA1LjE5NTQyMSAyMDQuMzg2NTE1LDIwNS45Mzc4MzggTDEwNS4yNzg5MywyNjIuOTkwNTYzIEMxMDUuMDUyMDgsMjYzLjExOTQ1NSAxMDQuODA0NjA4LDI2My4yMDE5NDYgMTA0LjU1NzEzNSwyNjMuMjg5NTkzIEMxMDQuNDY0MzMzLDI2My4zMjA1MjcgMTA0LjM3NjY4NywyNjMuMzc3MjM5IDEwNC4yNzg3MjksMjYzLjQwMzAxNyBDMTAzLjU4NTkyOSwyNjMuNTg1NDYgMTAyLjg1NzcwMSwyNjMuNTg1NDYgMTAyLjE2NDkwMSwyNjMuNDAzMDE3IEMxMDIuMDUxNDc2LDI2My4zNzIwODMgMTAxLjk0ODM2MywyNjMuMzEwMjE1IDEwMS44NDAwOTMsMjYzLjI2ODk3IEMxMDEuNjEzMjQ0LDI2My4xODY0NzkgMTAxLjM3NjA4MiwyNjMuMTE0MyAxMDEuMTU5NTQ0LDI2Mi45OTA1NjMgTDIuMDcyNTgyMjcsMjA1LjkzNzgzOCBDMC43OTEzNzE4LDIwNS4yMDE4MTkgMCwyMDMuODM3MzcyIDAsMjAyLjM1OTc5OCBMMCwzMi42NTU1MjQ4IEMwLDMyLjI4NDMxNjEgMC4wNTE1NTY3NzI5LDMxLjkyMzQxODcgMC4xNDQzNTg5NjQsMzEuNTcyODMyNiBDMC4xNzUyOTMwMjgsMzEuNDU0MjUyIDAuMjQ3NDcyNTEsMzEuMzQ1OTgyOCAwLjI4ODcxNzkyOCwzMS4yMjc0MDIyIEMwLjM2NjA1MzA4NywzMS4wMTA4NjM4IDAuNDM4MjMyNTY5LDMwLjc4OTE2OTcgMC41NTE2NTc0NywzMC41ODgwOTgyIEMwLjYyODk5MjYyOSwzMC40NTQwNTA2IDAuNzQyNDE3NTI5LDMwLjM0NTc4MTQgMC44MzUyMTk3MiwzMC4yMjIwNDUxIEMwLjk1MzgwMDI5OCwzMC4wNTcwNjM1IDEuMDYyMDY5NTIsMjkuODg2OTI2MSAxLjIwMTI3MjgxLDI5Ljc0MjU2NzIgQzEuMzE5ODUzMzksMjkuNjIzOTg2NiAxLjQ3NDUyMzcsMjkuNTM2MzQwMSAxLjYwODU3MTMxLDI5LjQzMzIyNjUgQzEuNzU4MDg1OTUsMjkuMzA5NDkwMyAxLjg5MjEzMzU2LDI5LjE3NTQ0MjcgMi4wNjIyNzA5MSwyOS4wNzc0ODQ4IEwyLjA2NzQyNjU5LDI5LjA3NzQ4NDggTDUxLjYxMzQ4NTMsMC41NTExMjIzNjQgQzUyLjg5MDE5MDMsLTAuMTgzNTM1NzY4IDU0LjQ2MTMyMjEsLTAuMTgzNTM1NzY4IDU1LjczODAyNzEsMC41NTExMjIzNjQgTDEwNS4yODQwODYsMjkuMDc3NDg0OCBMMTA1LjI5NDM5NywyOS4wNzc0ODQ4IEMxMDUuNDU5Mzc5LDI5LjE4MDU5ODMgMTA1LjU5ODU4MiwyOS4zMDk0OTAzIDEwNS43NDgwOTcsMjkuNDI4MDcwOCBDMTA1Ljg4MjE0NCwyOS41MzExODQ0IDEwNi4wMzE2NTksMjkuNjIzOTg2NiAxMDYuMTUwMjQsMjkuNzM3NDExNSBDMTA2LjI5NDU5OSwyOS44ODY5MjYxIDEwNi4zOTc3MTIsMzAuMDU3MDYzNSAxMDYuNTIxNDQ4LDMwLjIyMjA0NTEgQzEwNi42MDkwOTUsMzAuMzQ1NzgxNCAxMDYuNzI3Njc2LDMwLjQ1NDA1MDYgMTA2Ljc5OTg1NSwzMC41ODgwOTgyIEMxMDYuOTE4NDM2LDMwLjc5NDMyNTMgMTA2Ljk4NTQ1OSwzMS4wMTA4NjM4IDEwNy4wNjc5NSwzMS4yMjc0MDIyIEMxMDcuMTA5MTk2LDMxLjM0NTk4MjggMTA3LjE4MTM3NSwzMS40NTQyNTIgMTA3LjIxMjMwOSwzMS41Nzc5ODgzIEMxMDcuMzA3MjM0LDMxLjkyOTMzMDggMTA3LjM1NTc2NSwzMi4yOTE1ODYxIDEwNy4zNTY2NjgsMzIuNjU1NTI0OCBMMTA3LjM1NjY2OCwxMzguNjUxMDk0IEwxNDguNjQzMzMyLDExNC44NzgyNjYgTDE0OC42NDMzMzIsNjAuNjkyMDk3OSBDMTQ4LjY0MzMzMiw2MC4zMzEyMDA1IDE0OC42OTQ4ODksNTkuOTY1MTQ3NCAxNDguNzg3NjkxLDU5LjYxOTcxNyBDMTQ4LjgyMzc4MSw1OS40OTU5ODA4IDE0OC44OTA4MDQsNTkuMzg3NzExNiAxNDguOTMyMDUsNTkuMjY5MTMxIEMxNDkuMDE0NTQxLDU5LjA1MjU5MjUgMTQ5LjA4NjcyLDU4LjgzMDg5ODQgMTQ5LjIwMDE0NSw1OC42Mjk4MjcgQzE0OS4yNzc0OCw1OC40OTU3Nzk0IDE0OS4zOTA5MDUsNTguMzg3NTEwMiAxNDkuNDc4NTUyLDU4LjI2Mzc3MzkgQzE0OS42MDIyODgsNTguMDk4NzkyMiAxNDkuNzA1NDAxLDU3LjkyODY1NDkgMTQ5Ljg0OTc2LDU3Ljc4NDI5NTkgQzE0OS45NjgzNDEsNTcuNjY1NzE1MyAxNTAuMTE3ODU2LDU3LjU3ODA2ODggMTUwLjI1MTkwMyw1Ny40NzQ5NTUzIEMxNTAuNDA2NTczLDU3LjM1MTIxOSAxNTAuNTQwNjIxLDU3LjIxNzE3MTQgMTUwLjcwNTYwMyw1Ny4xMTkyMTM2IEwxNTAuNzEwNzU4LDU3LjExOTIxMzYgTDIwMC4yNjE5NzMsMjguNTkyODUxMSBDMjAxLjUzODM5NSwyNy44NTcxMzQ1IDIwMy4xMTAwOTMsMjcuODU3MTM0NSAyMDQuMzg2NTE1LDI4LjU5Mjg1MTEgTDI1My45MzI1NzMsNTcuMTE5MjEzNiBDMjU0LjEwNzg2Niw1Ny4yMjIzMjcxIDI1NC4yNDE5MTQsNTcuMzUxMjE5IDI1NC4zOTY1ODQsNTcuNDY5Nzk5NiBDMjU0LjUyNTQ3Niw1Ny41NzI5MTMyIDI1NC42NzQ5OTEsNTcuNjY1NzE1MyAyNTQuNzkzNTcyLDU3Ljc3OTE0MDIgQzI1NC45Mzc5Myw1Ny45Mjg2NTQ5IDI1NS4wNDEwNDQsNTguMDk4NzkyMiAyNTUuMTY0NzgsNTguMjYzNzczOSBDMjU1LjI1NzU4Miw1OC4zODc1MTAyIDI1NS4zNzEwMDcsNTguNDk1Nzc5NCAyNTUuNDQzMTg3LDU4LjYyOTgyNyBDMjU1LjU2MTc2Nyw1OC44MzA4OTg0IDI1NS42Mjg3OTEsNTkuMDUyNTkyNSAyNTUuNzExMjgyLDU5LjI2OTEzMSBDMjU1Ljc1NzY4Myw1OS4zODc3MTE2IDI1NS44MjQ3MDcsNTkuNDk1OTgwOCAyNTUuODU1NjQxLDU5LjYxOTcxNyBaIE0yNDcuNzQwNjA1LDExNC44NzgyNjYgTDI0Ny43NDA2MDUsNjcuODM3ODY2NiBMMjMwLjQwMjA2Miw3Ny44MTkyNTc5IEwyMDYuNDQ4Nzg2LDkxLjYxMDY5NDYgTDIwNi40NDg3ODYsMTM4LjY1MTA5NCBMMjQ3Ljc0NTc2MSwxMTQuODc4MjY2IEwyNDcuNzQwNjA1LDExNC44NzgyNjYgWiBNMTk4LjE5NDU0NiwxOTkuOTcyNzIgTDE5OC4xOTQ1NDYsMTUyLjkwMTM4NiBMMTc0LjYzMzEwMSwxNjYuMzU3NzA0IEwxMDcuMzUxNTEyLDIwNC43NTcxODggTDEwNy4zNTE1MTIsMjUyLjI3MTkxIEwxOTguMTk0NTQ2LDE5OS45NzI3MiBaIE04LjI1OTM5NTAxLDM5Ljc5NjEzNzkgTDguMjU5Mzk1MDEsMTk5Ljk3MjcyIEw5OS4wOTIxMTc1LDI1Mi4yNjY3NTUgTDk5LjA5MjExNzUsMjA0Ljc2MjM0NCBMNTEuNjM5MjYzNywxNzcuOTA2NDIxIEw1MS42MjM3OTY3LDE3Ny44OTYxMSBMNTEuNjAzMTc0LDE3Ny44ODU3OTggQzUxLjQ0MzM0OCwxNzcuNzkyOTk2IDUxLjMwOTMwMDQsMTc3LjY1ODk0OSA1MS4xNTk3ODU3LDE3Ny41NDU1MjQgQzUxLjAzMDg5MzgsMTc3LjQ0MjQxIDUwLjg4MTM3OTEsMTc3LjM1OTkxOSA1MC43Njc5NTQyLDE3Ny4yNDY0OTQgTDUwLjc1NzY0MjksMTc3LjIzMTAyNyBDNTAuNjIzNTk1MywxNzcuMTAyMTM1IDUwLjUzMDc5MzEsMTc2Ljk0MjMwOSA1MC40MTczNjgyLDE3Ni43OTc5NSBDNTAuMzE0MjU0NiwxNzYuNjU4NzQ3IDUwLjE5MDUxODQsMTc2LjU0MDE2NyA1MC4xMDgwMjc2LDE3Ni4zOTU4MDggTDUwLjEwMjg3MTksMTc2LjM4MDM0MSBDNTAuMDEwMDY5NywxNzYuMjI1NjcgNDkuOTUzMzU3MiwxNzYuMDQwMDY2IDQ5Ljg4NjMzMzQsMTc1Ljg2NDc3MyBDNDkuODE5MzA5NiwxNzUuNzEwMTAzIDQ5LjczMTY2MzEsMTc1LjU2NTc0NCA0OS42OTA0MTc3LDE3NS40MDA3NjIgTDQ5LjY5MDQxNzcsMTc1LjM5NTYwNiBDNDkuNjM4ODYwOSwxNzUuMTk5NjkgNDkuNjI4NTQ5NiwxNzQuOTkzNDYzIDQ5LjYwNzkyNjksMTc0Ljc5MjM5MiBDNDkuNTg3MzA0MSwxNzQuNjM3NzIyIDQ5LjU0NjA1ODcsMTc0LjQ4MzA1MSA0OS41NDYwNTg3LDE3NC4zMjgzODEgTDQ5LjU0NjA1ODcsMTc0LjMxODA3IEw0OS41NDYwNTg3LDYzLjU2ODk2NTggTDI1LjU5NzkzNzcsNDkuNzcyMzczNCBMOC4yNTkzOTUwMSwzOS44MDEyOTM1IEw4LjI1OTM5NTAxLDM5Ljc5NjEzNzkgWiBNNTMuNjgwOTExOSw4Ljg5MzAwODIxIEwxMi4zOTk0MDM5LDMyLjY1NTUyNDggTDUzLjY3MDYwMDYsNTYuNDE4MDQxNCBMOTQuOTQ2OTUyOSwzMi42NTAzNjkyIEw1My42NzA2MDA2LDguODkzMDA4MjEgTDUzLjY4MDkxMTksOC44OTMwMDgyMSBaIE03NS4xNDkxNTIxLDE1Ny4xOTA5MSBMOTkuMDk3MjczMSwxNDMuNDA0NjI5IEw5OS4wOTcyNzMxLDM5Ljc5NjEzNzkgTDgxLjc1ODczMDQsNDkuNzc3NTI5MSBMNTcuODA1NDUzNyw2My41Njg5NjU4IEw1Ny44MDU0NTM3LDE2Ny4xNzc0NTcgTDc1LjE0OTE1MjEsMTU3LjE5MDkxIFogTTIwMi4zMjQyNDQsMzYuOTM0NzM3IEwxNjEuMDQ3ODkxLDYwLjY5NzI1MzYgTDIwMi4zMjQyNDQsODQuNDU5NzcwMiBMMjQzLjU5NTQ0LDYwLjY5MjA5NzkgTDIwMi4zMjQyNDQsMzYuOTM0NzM3IFogTTE5OC4xOTQ1NDYsOTEuNjEwNjk0NiBMMTc0LjI0MTI3LDc3LjgxOTI1NzkgTDE1Ni45MDI3MjcsNjcuODM3ODY2NiBMMTU2LjkwMjcyNywxMTQuODc4MjY2IEwxODAuODUwODQ4LDEyOC42NjQ1NDcgTDE5OC4xOTQ1NDYsMTM4LjY1MTA5NCBMMTk4LjE5NDU0Niw5MS42MTA2OTQ2IFogTTEwMy4yMTY2NTksMTk3LjYxNjU3NSBMMTYzLjc1OTc3OCwxNjMuMDUyOTE1IEwxOTQuMDIzNjAzLDE0NS43ODEzOTYgTDE1Mi43NzgxODUsMTIyLjAzNDM0NiBMMTA1LjI4OTI0MiwxNDkuMzc0OTAzIEw2Mi4wMDczMzA3LDE3NC4yOTIyOTEgTDEwMy4yMTY2NTksMTk3LjYxNjU3NSBaIj4KCjwvcGF0aD4KICAgIDwvZz4KPC9zdmc+;sketch=1;curveFitting=1;jiggle=2;opacity=40;" vertex="1" parent="1">
                    <mxGeometry x="502.79999999999995" y="624.57" width="34.41" height="35.43" as="geometry"/>
                </mxCell>
            </root>
        </mxGraphModel>
    </diagram>
</mxfile>